<?xml version="1.0" encoding="UTF-8" standalone="no"?>
<!-- Created with Inkscape (http://www.inkscape.org/) -->

<svg
   xmlns:dc="http://purl.org/dc/elements/1.1/"
   xmlns:cc="http://creativecommons.org/ns#"
   xmlns:rdf="http://www.w3.org/1999/02/22-rdf-syntax-ns#"
   xmlns:svg="http://www.w3.org/2000/svg"
   xmlns="http://www.w3.org/2000/svg"
   xmlns:sodipodi="http://sodipodi.sourceforge.net/DTD/sodipodi-0.dtd"
   xmlns:inkscape="http://www.inkscape.org/namespaces/inkscape"
   version="1.1"
   id="svg2"
   width="250mm"
   height="250mm"
   viewBox="0 0 944.88192 944.88192"
   sodipodi:docname="c22012021-06_generated.svg"
   inkscape:version="0.92.4 (5da689c313, 2019-01-14)">
  <metadata
     id="metadata8">
    <rdf:RDF>
      <cc:Work
         rdf:about="">
        <dc:format>image/svg+xml</dc:format>
        <dc:type
           rdf:resource="http://purl.org/dc/dcmitype/StillImage" />
        <dc:title></dc:title>
      </cc:Work>
    </rdf:RDF>
  </metadata>
  <defs
     id="defs6" />
  <sodipodi:namedview
     pagecolor="#ffffff"
     bordercolor="#666666"
     borderopacity="1"
     objecttolerance="10"
     gridtolerance="10"
     guidetolerance="10"
     inkscape:pageopacity="0"
     inkscape:pageshadow="2"
     inkscape:window-width="3240"
     inkscape:window-height="2035"
     id="namedview4"
     showgrid="false"
     units="mm"
     inkscape:zoom="0.36875"
     inkscape:cx="-324.52303"
     inkscape:cy="947.20316"
     inkscape:window-x="-13"
     inkscape:window-y="-13"
     inkscape:window-maximized="1"
     inkscape:current-layer="svg2" />
  <path
     style="fill:#000000;stroke-width:0.47387192"
     d="m 475.48544,813.81365 c -0.0388,-4.01895 -1.14184,-15.90731 -1.899,-20.4653 -1.64459,-9.89945 -5.14876,-19.31172 -8.28759,-22.26051 l -1.13408,-1.06536 -0.29474,1.59317 c -0.16213,0.87625 -0.44538,2.65917 -0.6295,3.96204 l -0.33484,2.36888 -3.44605,-4.02744 c -6.81472,-7.96439 -13.59498,-19.68046 -15.53316,-26.84053 -0.44858,-1.65711 -0.97552,-3.0129 -1.17098,-3.0129 -0.56308,0 -1.05191,6.3618 -0.69067,8.9883 0.19994,1.45403 0.14806,2.38463 -0.13299,2.38463 -0.64114,0 -6.23886,-6.00161 -8.68063,-9.30697 -2.7795,-3.76237 -6.24259,-10.53439 -7.76529,-15.18456 -1.25885,-3.84455 -1.29476,-3.89295 -4.15627,-5.59751 -8.8083,-5.24704 -21.55349,-16.97892 -27.27748,-25.10872 -5.9173,-8.4043 -9.69098,-16.71553 -11.40978,-25.12908 -0.52696,-2.57963 -0.90653,-4.7418 -0.84344,-4.80492 0.0946,-0.0947 5.49803,1.93532 9.62237,3.61503 0.66966,0.2727 1.11953,1.01706 1.34425,2.22426 1.48747,7.9899 7.13175,17.78132 14.9411,25.91904 7.86442,8.19508 12.77466,11.74457 28.9107,20.89864 16.51782,9.37057 24.52984,14.95653 27.8881,19.4433 l 1.064,1.42161 -0.78448,-1.61457 c -1.94397,-4.00124 -10.62483,-11.07989 -26.89507,-21.93122 -4.73967,-3.16107 -9.89703,-6.71174 -11.46074,-7.89036 -12.58629,-9.48645 -21.22056,-20.80571 -24.861,-32.59204 -0.53079,-1.71852 -0.9651,-3.262 -0.96517,-3.43 -7e-5,-0.16803 3.71245,-0.30551 8.25006,-0.30551 h 8.25016 l 0.3276,3.08018 c 0.91268,8.57977 5.13819,19.26628 8.92585,22.5737 2.7095,2.36603 8.93322,5.22276 14.39863,6.60923 11.84685,3.00519 24.49454,2.13509 32.16222,-2.21264 2.91119,-1.65071 6.60108,-5.47883 7.62149,-7.90699 0.74203,-1.76582 0.74279,-1.76621 1.19745,-0.58229 0.25024,0.65156 0.35721,3.8502 0.23761,7.10808 -0.24369,6.63838 -0.98222,9.36191 -3.19574,11.78537 -1.649,1.80545 -1.69107,1.95692 -0.54323,1.95692 1.32763,0 7.52822,2.21151 9.47949,3.38096 3.14309,1.88378 5.87238,4.33362 7.25265,6.51001 0.7469,1.17777 1.35799,2.2899 1.35799,2.47144 0,0.18151 -2.2101,0.21722 -4.91147,0.0794 -2.70136,-0.1379 -5.69738,-0.10321 -6.65807,0.077 l -1.74653,0.32768 2.47471,2.69884 c 4.92531,5.37128 9.40623,13.38053 11.4771,20.51405 0.688,2.36987 2.18491,8.96773 2.03115,8.95249 -0.0327,-0.005 -1.28624,-0.62761 -2.78429,-1.38736 -2.53474,-1.2856 -7.73584,-2.79622 -8.10872,-2.35519 -0.0905,0.10701 0.0228,1.90045 0.25221,3.9855 0.76881,6.99364 -0.30189,18.82944 -2.47228,27.33003 -1.94358,7.61211 -6.75873,19.13253 -9.47256,22.66347 l -0.91055,1.18466 -0.0106,-1.09588 z m -44.5545,-141.11221 c -0.91222,-0.10076 -3.43296,-0.31183 -5.60167,-0.46906 -2.16864,-0.15727 -3.87158,-0.3574 -3.78424,-0.44472 0.0874,-0.0873 4.33583,-0.70274 9.44115,-1.36756 24.89526,-3.24185 50.16545,-9.45659 66.92643,-16.45932 13.9518,-5.82912 22.38707,-11.02655 30.11021,-18.55287 3.1631,-3.08246 3.46925,-3.27605 3.16181,-1.99901 -0.64852,2.69383 -3.5795,8.41565 -5.94625,11.60814 -10.56959,14.25766 -29.47196,23.24885 -56.3977,26.82649 -5.58265,0.74176 -33.28381,1.36862 -37.90974,0.85791 z m -33.408,-5.6758 c -6.49814,-0.66873 -16.69557,-2.54114 -21.32637,-3.91584 l -2.75829,-0.81885 4.93425,-1.22781 c 2.71383,-0.67528 6.97523,-1.99549 9.46974,-2.93383 l 4.53545,-1.70605 3.99424,1.56666 c 7.59189,2.97782 21.25973,6.85286 30.53106,8.65604 1.88462,0.36653 1.87778,0.37051 -1.18467,0.69215 -5.16375,0.54224 -21.66753,0.35931 -28.19541,-0.31247 z m 28.31752,-8.50012 c -35.02723,-4.44014 -67.65381,-26.05645 -81.56428,-54.03928 -9.44682,-19.00359 -10.62363,-40.62356 -3.39343,-62.34322 5.90244,-17.73099 17.24324,-31.17081 38.47041,-45.59071 9.71081,-6.59669 15.37676,-9.84597 46.83903,-26.86094 31.57501,-17.07587 47.45785,-27.95895 61.85398,-42.38262 14.87003,-14.89857 24.61041,-31.56527 29.35449,-50.22807 6.99412,-27.51387 -0.11085,-49.51398 -20.30966,-62.88789 -11.60225,-7.68206 -24.7326,-11.41845 -40.09709,-11.41014 -14.11888,0.008 -24.59877,3.38302 -31.3941,10.11149 -1.75924,1.74194 -3.19863,3.06273 -3.19863,2.93507 0,-0.12766 0.87494,-1.97147 1.9442,-4.09734 3.70092,-7.35772 8.23372,-12.71973 14.97457,-17.71391 2.13798,-1.58403 4.16373,-2.99151 4.50176,-3.12776 1.22051,-0.49206 -0.71326,-1.19182 -6.22935,-2.25426 -6.24183,-1.20223 -17.21587,-1.45854 -22.02401,-0.51441 -1.54278,0.30291 -2.89118,0.46461 -2.99648,0.35931 -0.34648,-0.34645 8.56506,-7.8615 12.51599,-10.55472 l 3.87135,-2.6389 12.71418,0.24981 c 14.57035,0.28624 21.40136,1.13584 33.04651,4.11 15.30219,3.9082 27.87265,9.69766 39.03028,17.97583 5.55138,4.11874 14.7779,13.50794 18.69535,19.02499 3.63314,5.11663 8.24742,14.08358 10.10039,19.62824 7.72391,23.11117 5.12876,49.00962 -7.43342,74.18377 -6.3577,12.74067 -14.25385,23.7112 -25.02589,34.76984 -18.06951,18.55024 -39.29983,32.39219 -66.83505,43.57562 -16.15293,6.56054 -25.52804,11.11668 -35.43998,17.22312 -25.36897,15.62918 -39.53863,33.75236 -43.03996,55.04877 -1.0782,6.55787 -0.6564,17.51057 0.93354,24.24139 2.52315,10.68141 7.58566,22.37423 12.44827,28.75147 10.48399,13.74972 32.85275,26.68049 57.28315,33.11386 11.25927,2.965 19.15025,4.0794 30.81032,4.35136 11.98365,0.27949 19.49779,-0.44408 28.65675,-2.75932 2.99724,-0.75769 5.5561,-1.36778 5.68643,-1.35583 0.64601,0.0593 -8.1441,3.10196 -14.21619,4.92081 -7.95048,2.38153 -18.17138,4.60984 -26.29989,5.73377 -7.9084,1.09344 -27.16326,1.34702 -34.23354,0.4508 z m -72.86623,-4.20397 c -7.98187,-4.23855 -17.26726,-10.65 -20.54327,-14.18485 l -1.11928,-1.20769 1.59314,-0.24491 c 0.87625,-0.13467 3.29043,-0.37496 5.36489,-0.53404 4.91666,-0.37697 10.41554,-1.43508 15.02456,-2.89107 l 3.70246,-1.16959 3.45562,2.88375 c 5.14717,4.29541 11.33234,8.60756 17.04301,11.88197 2.79816,1.60443 4.98262,3.08696 4.85432,3.29452 -0.69375,1.12258 -15.62943,3.7627 -21.33856,3.77197 -1.31617,0 -2.59779,0.20862 -2.84799,0.45887 -0.29069,0.29068 -2.16423,-0.45275 -5.1889,-2.05893 z m 132.45107,-10.5636 c -2.08776,-2.79131 -5.50855,-5.14998 -8.89792,-6.13531 -2.0078,-0.58367 -3.9189,-0.7086 -8.11808,-0.53061 -6.33746,0.26869 -9.94306,1.29705 -18.09948,5.16217 l -5.02551,2.38145 -4.01742,-0.75278 c -5.53321,-1.03685 -15.10491,-3.70341 -19.81878,-5.52123 -3.19727,-1.23297 -3.76932,-1.59935 -3.0906,-1.97921 1.44951,-0.81117 20.05091,-6.9254 26.26953,-8.63476 7.60232,-2.08963 17.06743,-4.19632 24.92447,-5.5475 8.28486,-1.42466 23.01049,-1.55059 27.67606,-0.23659 8.78935,2.47546 12.7084,6.60909 13.62009,14.36611 l 0.28857,2.45544 -1.85426,0.94598 c -4.5837,2.33842 -17.61416,6.20344 -21.01349,6.23287 -0.86559,0.008 -1.63287,-0.58784 -2.84318,-2.20603 z m 32.50047,-8.80126 c 3.36586,-8.41497 4.41671,-18.94886 2.59919,-26.0552 -1.43772,-5.62164 -3.45351,-9.1202 -7.63694,-13.25468 l -3.69423,-3.65103 2.45082,0.96375 c 8.12957,3.19675 14.86236,9.66471 17.11118,16.43796 1.20871,3.64091 1.67981,8.92402 1.16984,13.12006 -0.79993,6.58229 -1.49463,8.28248 -4.59063,11.23553 -2.61425,2.49358 -6.8733,5.11305 -8.31346,5.11305 -0.49027,0 -0.2583,-1.00295 0.90423,-3.90944 z m -104.80033,-5.46821 c -2.13417,-2.03799 -5.65295,-4.73636 -7.95684,-6.10168 -2.39261,-1.41785 -3.90589,-2.58667 -3.59658,-2.77784 0.29374,-0.18154 4.53417,-0.44326 9.42321,-0.58165 11.89463,-0.33672 19.72002,0.69168 26.31609,3.45843 l 1.87868,0.78797 -6.61736,2.47713 c -3.63953,1.36241 -8.51272,3.36624 -10.82934,4.45296 -2.31661,1.08672 -4.34244,1.96748 -4.50183,1.95718 -0.15939,-0.0103 -2.01161,-1.66291 -4.11603,-3.6725 z m -91.33115,-0.69215 c -3.227,-3.79607 -8.039,-11.48857 -11.4615,-18.32249 -1.69534,-3.38519 -3.08245,-6.33899 -3.08245,-6.56392 0,-0.22501 1.65263,-0.11221 3.67253,0.25063 4.62373,0.83051 13.86178,0.48438 19.70398,-0.73825 l 4.18471,-0.87575 2.63052,5.2468 c 2.9834,5.95048 6.52831,11.50641 10.65472,16.69911 1.55433,1.95593 2.7556,3.62555 2.66945,3.71017 -0.0862,0.0846 -1.52639,0.50819 -3.20056,0.94121 -4.68788,1.2125 -12.51466,2.12084 -18.36212,2.13108 l -5.29442,0.01 -2.11486,-2.48782 z m 191.15178,-1.71106 c -0.95658,-1.78739 -3.92232,-4.85339 -5.90578,-6.10548 -2.69816,-1.70331 -6.4967,-2.88581 -10.4089,-3.24029 l -3.43943,-0.31169 -1.39504,-2.6667 c -4.14821,-7.92935 -11.9491,-16.11117 -20.11298,-21.09521 l -2.13243,-1.30182 1.65851,0.32701 c 5.67015,1.11811 21.38143,7.48765 27.88551,11.30516 7.22876,4.24281 12.99135,9.96758 14.50492,14.4096 0.76295,2.23901 0.93154,7.22127 0.29915,8.83985 -0.35294,0.90323 -0.38741,0.89747 -0.95353,-0.16043 z m -63.90203,-8.20418 c -2.03062,-4.5347 -7.28042,-10.08366 -11.68921,-12.35537 -1.05715,-0.54469 -3.30818,-1.49301 -5.0023,-2.10732 l -3.08017,-1.11697 6.39726,0.21012 c 10.42397,0.34232 20.46578,2.92412 30.04775,7.72541 4.37455,2.19206 10.70525,6.06667 10.70525,6.55204 0,0.14647 -1.54599,0.12813 -3.43555,-0.0408 -4.62654,-0.41341 -18.30103,1.35601 -22.23385,2.87692 -0.60127,0.23255 -1.01151,-0.18609 -1.70918,-1.74407 z M 380.08498,608.2773 c -2.02279,-3.04006 -4.621,-7.47692 -5.77383,-9.85976 -2.21921,-4.58692 -4.50972,-11.77628 -4.50972,-14.15496 0,-1.2464 0.13292,-1.38785 1.06621,-1.13473 5.54679,1.50414 9.65601,1.92178 18.83641,1.91435 11.95935,-0.01 19.82493,-1.31596 29.64854,-4.92384 2.20835,-0.81103 2.70227,-0.82941 6.16034,-0.2292 4.41815,0.76686 11.0327,2.63173 15.3686,4.33298 3.6498,1.4321 10.42587,4.9345 10.42587,5.38892 0,0.17543 -0.90629,0.13349 -2.01396,-0.0932 -1.10768,-0.22671 -5.65988,-0.54917 -10.11607,-0.71657 -18.57301,-0.69765 -30.60946,2.48449 -44.87261,11.86317 -6.10375,4.01351 -8.96823,7.04198 -9.82849,10.39117 -0.28034,1.09143 -0.55556,2.15647 -0.61161,2.36677 -0.0561,0.21025 -1.75691,-2.10502 -3.77968,-5.14511 z m -65.77301,-11.13029 c -3.77364,-0.34617 -9.51342,-2.00373 -10.2845,-2.97001 -1.255,-1.57273 -4.0843,-16.68326 -4.66812,-24.9313 -0.30217,-4.26869 -0.27651,-4.44656 0.5889,-4.08647 6.3672,2.64929 14.42808,3.80862 21.43864,3.08331 2.42794,-0.25116 4.93179,-0.58656 5.56413,-0.74528 1.09901,-0.27583 1.1497,-0.18688 1.1497,2.01663 0,5.45673 2.53456,21.1476 4.01865,24.87877 0.41149,1.03451 0.14409,1.15944 -4.27202,1.99573 -4.92558,0.93277 -9.09156,1.16623 -13.53538,0.75862 z m 65.94335,-15.62658 c -4.18229,-0.58784 -9.3623,-2.21836 -10.42567,-3.28173 -1.62526,-1.62522 -1.88332,-12.33614 -0.45737,-18.98504 l 0.51452,-2.39926 4.01574,4.26588 c 2.20866,2.34624 5.44138,5.34936 7.18385,6.67353 4.09294,3.11046 12.5765,7.27071 17.31109,8.48914 4.28286,1.10221 13.02867,2.09635 14.34398,1.63048 0.59526,-0.21075 0.7351,-0.15829 0.41928,0.15738 -0.55692,0.5567 -6.12236,1.75367 -12.79457,2.75175 -6.02854,0.90177 -16.15879,1.25329 -20.11085,0.69787 z m -69.9248,-21.03672 c -3.51924,-0.68667 -9.41511,-2.75914 -10.56548,-3.71386 -1.62185,-1.34602 1.40651,-20.54533 4.95216,-31.39606 0.68131,-2.08501 1.32615,-3.94573 1.43292,-4.13485 0.10679,-0.18914 1.34321,0.59204 2.74762,1.73594 5.57729,4.54278 12.94911,7.62317 21.69543,9.06568 2.6689,0.44017 4.91555,0.85365 4.99253,0.91876 0.077,0.0651 -0.61368,1.93901 -1.53478,4.16419 -2.20752,5.3327 -4.00185,11.6827 -4.96559,17.57238 l -0.78249,4.78224 -2.58888,0.60451 c -4.03809,0.94292 -11.59651,1.14 -15.38344,0.40107 z m 24.06585,-35.39396 c -8.44108,-0.98266 -16.749,-4.19683 -21.34673,-8.25863 -3.84959,-3.40082 -3.83843,-3.30067 -0.98542,-8.85486 1.36514,-2.65763 3.89604,-6.97401 5.62426,-9.59199 3.90351,-5.91311 10.46623,-14.15957 10.87181,-13.66112 0.16629,0.20432 1.54736,1.92508 3.06902,3.82386 6.10395,7.61666 14.3521,13.24129 22.75157,15.51491 l 3.0821,0.83431 -4.14728,4.33809 c -4.23421,4.42905 -8.44183,9.44437 -11.65192,13.88859 -1.96002,2.71354 -1.62725,2.62349 -7.26741,1.96684 z m 118.3327,-17.41628 c 0,-0.2328 0.45078,-1.44238 1.00177,-2.688 3.19186,-7.21569 3.65542,-13.999 1.06141,-15.53101 -1.11193,-0.65672 -0.71882,-1.07389 2.08312,-2.21054 4.67386,-1.89594 16.41465,-7.9631 20.23153,-10.45478 2.00597,-1.30955 4.6985,-3.36425 5.9833,-4.56605 1.28479,-1.20179 2.33601,-2.02061 2.33601,-1.81963 0,0.20099 -0.94585,2.36209 -2.10183,4.80247 -5.29058,11.16853 -14.23293,22.02506 -23.5614,28.60493 -3.9717,2.80144 -7.03391,4.48307 -7.03391,3.86261 z m 35.95945,-5.17312 c 9.52058,-18.99236 11.25996,-29.39373 4.74127,-28.35132 l -1.84323,0.29473 v -4.93545 -4.93546 l 3.38389,-1.71912 c 7.44902,-3.78431 13.684,-8.77997 17.32337,-13.8801 2.60192,-3.6463 2.69588,-3.55965 3.46058,3.19082 1.39618,12.32442 -3.05324,26.44447 -12.13703,38.51651 -2.9239,3.88592 -13.23656,14.3237 -16.20808,16.40474 l -1.57087,1.10025 z M 357.96684,497.3858 c -8.26603,-1.79187 -17.26872,-8.19611 -22.57331,-16.058 -1.51185,-2.24065 -1.54597,-2.38608 -0.76511,-3.26034 1.72428,-1.93055 10.51239,-8.86086 15.27039,-12.04222 6.17514,-4.12894 21.71287,-12.86896 21.96684,-12.35644 0.041,0.0827 0.89708,1.85628 1.90244,3.94133 4.47393,9.27842 10.2908,15.56463 18.44988,19.93858 l 2.75086,1.47468 -4.64634,2.75584 c -6.25482,3.70992 -15.60757,9.8346 -20.48651,13.41579 -3.69581,2.71272 -4.17248,2.92835 -6.39727,2.89349 -1.32214,-0.021 -3.78448,-0.33693 -5.47187,-0.70271 z m 168.6862,-15.2189 c 0,-0.26843 0.4517,-3.34459 1.00375,-6.83594 1.36628,-8.64079 1.49531,-19.09144 0.25913,-20.98216 -0.84473,-1.29211 -1.2625,-1.36511 -3.20532,-0.56019 -0.65012,0.2694 -0.80396,-0.31137 -1.08424,-4.09262 -0.17963,-2.42361 -0.61345,-5.89113 -0.96388,-7.70568 l -0.63734,-3.29912 5.29362,-5.27405 c 6.26001,-6.2368 11.47321,-12.91719 14.26617,-18.28123 l 2.01754,-3.87479 0.53813,2.50908 c 1.82467,8.50819 1.84194,22.28248 0.0396,31.51925 -1.89634,9.71823 -5.04057,18.17031 -9.6722,26.00043 -2.70319,4.56953 -7.85515,11.70366 -7.85515,10.87702 z m -125.81298,-9.10477 c -2.87041,-0.83697 -6.39144,-2.51239 -9.00316,-4.284 -4.56544,-3.09688 -10.11188,-10.40534 -12.50211,-16.47393 l -0.97001,-2.46267 2.47102,-1.39219 c 1.35903,-0.76572 6.20273,-3.41998 10.76376,-5.89832 4.56101,-2.47837 10.91581,-5.9899 14.12177,-7.80342 l 5.82899,-3.29729 5.54393,5.5653 c 7.55827,7.58741 13.60936,11.49945 22.32719,14.43462 l 4.46258,1.50251 -7.06883,3.80776 c -3.88794,2.09429 -10.69406,5.6828 -15.12476,7.97449 -4.4307,2.29167 -10.16666,5.30454 -12.74652,6.6952 -2.57994,1.39069 -4.81898,2.5133 -4.97568,2.49476 -0.15674,-0.0185 -1.56439,-0.40684 -3.12817,-0.86282 z m 175.907,-10.47635 c -0.16761,-0.65159 -1.15941,-4.71382 -2.20417,-9.02722 -4.29702,-17.74273 -9.90578,-30.40232 -14.27044,-32.21019 -1.99083,-0.82468 -4.23714,0.25927 -5.97295,2.88218 l -1.29423,1.95569 -1.04034,-5.68885 c -1.52354,-8.3307 -3.30096,-13.22521 -6.55034,-18.03721 l -1.72188,-2.55013 1.8497,-2.44998 c 3.51224,-4.65191 5.73588,-9.97917 6.72517,-16.11145 0.32114,-1.99082 0.74051,-3.5588 0.93193,-3.48434 0.75998,0.29556 4.96738,5.57951 7.65436,9.61278 3.2875,4.93475 8.71776,15.73601 10.82888,21.53958 3.08496,8.48079 5.32869,19.30998 6.19899,29.91918 0.69265,8.44376 -0.20945,27.24661 -1.13468,23.64996 z M 450.64252,446.4067 c -7.05103,-0.90117 -13.98186,-3.47262 -19.75281,-7.32875 -3.72459,-2.48868 -12.27946,-10.35449 -12.27946,-11.29034 0,-0.312 2.93212,-2.47126 6.51573,-4.79834 3.58368,-2.32708 9.03258,-6.10559 12.1088,-8.3967 l 5.593,-4.16565 3.79671,2.86092 c 3.92027,2.95398 9.36681,5.78229 14.50119,7.53023 3.66045,1.24616 13.9935,3.36482 16.7781,3.44014 1.14008,0.0309 2.68926,0.19077 3.44262,0.3554 l 1.36978,0.29936 -3.52168,3.42552 c -1.93696,1.88407 -5.43209,4.9618 -7.76704,6.83947 -4.08232,3.28279 -15.64325,11.13402 -16.9037,11.47955 -0.33552,0.092 -2.08205,-0.021 -3.88124,-0.25081 z m 23.41076,-30.0413 c -5.59392,-0.8845 -11.86808,-2.78005 -16.34862,-4.93923 -3.86564,-1.86289 -8.74644,-5.13807 -8.75937,-5.87789 -0.008,-0.22539 1.51433,-2.14458 3.374,-4.26484 4.37676,-4.99016 7.50882,-9.77351 9.41543,-14.37954 0.84047,-2.03042 1.57405,-3.74425 1.6302,-3.80855 0.0563,-0.0643 1.1512,0.19328 2.43348,0.57232 7.28263,2.15268 18.97503,2.79418 26.14338,1.43437 4.25016,-0.80627 9.34551,-2.4439 12.31103,-3.95682 1.09231,-0.55723 2.1888,-1.01314 2.43675,-1.01314 0.26339,0 0.18586,1.13231 -0.18663,2.72473 -2.47456,10.57931 -7.94469,22.19369 -14.86449,31.56065 l -1.97729,2.67662 -5.78997,-0.0459 c -3.18448,-0.0253 -7.60255,-0.33248 -9.8179,-0.68276 z m 154.2182,-12.58333 c -7.30385,-7.42286 -16.57313,-14.46046 -23.68852,-17.98529 -10.09385,-5.00031 -17.11385,-4.72072 -22.04189,0.87781 -1.86294,2.1164 -4.38117,7.51651 -4.95962,10.63533 -0.18123,0.97736 -0.46578,1.77623 -0.63224,1.77527 -0.16647,0 -1.00428,-1.35863 -1.86173,-3.01702 -4.48091,-8.66631 -11.42292,-18.19487 -17.57459,-24.12272 l -4.31566,-4.15868 0.46075,-3.18631 c 1.32823,-9.1836 -0.47734,-19.73583 -4.47612,-26.16046 -0.88925,-1.42869 -1.53556,-2.67886 -1.43628,-2.77816 0.28919,-0.28923 4.7924,0.85396 10.41994,2.64523 30.07514,9.57299 53.42822,28.19111 66.72747,53.19793 2.53201,4.76106 6.72084,14.61285 6.3647,14.96908 -0.0936,0.0935 -1.43733,-1.11789 -2.98621,-2.69201 z m -242.59533,-7.28102 c -0.26062,-0.10566 -2.0167,-0.43878 -3.90237,-0.74023 -3.40135,-0.54377 -3.4321,-0.56186 -3.8777,-2.28351 -1.35385,-5.23052 -1.03082,-10.28681 0.93741,-14.67203 l 0.99965,-2.22724 0.82634,2.60628 c 1.03796,3.27377 2.04027,5.20464 3.28774,6.33358 0.95209,0.8616 1.08629,0.85407 5.85346,-0.3285 2.68348,-0.66571 5.75577,-1.34332 6.82732,-1.50585 l 1.94829,-0.29552 0.27827,-2.98012 c 0.36003,-3.85546 1.26954,-7.44302 1.80332,-7.11313 0.23052,0.14245 0.4191,0.55831 0.4191,0.92409 0,2.59836 4.29484,9.87834 5.2501,8.89923 0.86778,-0.88947 1.97865,-7.44599 2.19199,-12.93734 0.2583,-6.65021 -0.34716,-10.51408 -2.49768,-15.93872 -2.73174,-6.89079 -7.93446,-13.1626 -14.51537,-17.49813 -4.91311,-3.23674 -5.22721,-3.33281 -7.33959,-2.24474 -2.66332,1.37189 -3.36603,3.80581 -2.14394,7.42585 0.49516,1.46665 0.8641,2.66666 0.81989,2.66666 -0.0442,0 -1.61947,-0.52347 -3.50059,-1.1633 -4.23951,-1.44195 -10.79795,-2.50734 -11.44593,-1.85937 -0.57301,0.57298 0.53897,5.06653 1.95355,7.89431 0.55017,1.09972 1.77731,2.81664 2.72705,3.81532 l 1.72677,1.81587 -2.36938,-0.31429 c -5.9683,-0.79166 -12.9007,-3.38077 -16.70832,-6.24032 -1.43316,-1.0763 -1.56651,-1.09812 -1.85112,-0.30315 -0.85495,2.38845 -4.28478,7.55507 -6.56737,9.89301 l -2.57546,2.63796 0.98478,1.33198 c 2.221,3.00405 7.31969,6.24242 15.58152,9.89636 2.87536,1.27168 -12.82895,-0.98784 -19.85706,-2.85702 -7.54132,-2.00565 -7.56609,-2.00408 -8.89181,0.56783 -2.16697,4.20393 -2.22369,9.57221 -0.13893,13.14994 1.07175,1.83928 0.87262,1.86733 -2.97548,0.41891 -10.79472,-4.06311 -21.11099,-11.95826 -26.90415,-20.59 l -2.44361,-3.64097 0.27376,-3.55404 c 0.31518,-4.09137 1.35481,-9.24401 2.43676,-12.07709 0.64701,-1.69417 1.02068,-2.03141 2.76899,-2.49902 2.87916,-0.77005 5.73302,-3.6876 6.65977,-6.80836 0.79099,-2.6635 0.93265,-7.48218 0.31393,-10.67677 l -0.38167,-1.97035 4.31172,-2.9957 c 5.40506,-3.75526 16.39522,-14.63642 19.3955,-19.20307 2.4772,-3.77048 4.62732,-8.45759 5.79095,-12.62377 0.92817,-3.32324 1.32328,-3.15098 3.47379,1.51462 2.54128,5.51335 3.48644,12.20116 2.46824,17.46452 -0.21427,1.10768 -0.2443,2.01397 -0.0667,2.01397 0.17756,0 3.081,-1.25565 6.45208,-2.79032 3.37111,-1.53467 8.19192,-3.5578 10.71297,-4.49586 4.49874,-1.67392 13.13225,-4.07393 14.68575,-4.08245 0.45506,-0.004 2.78854,-2.65938 5.51825,-6.28311 5.59171,-7.42305 12.24594,-14.61784 17.06252,-18.44863 1.90663,-1.51644 3.28624,-2.75715 3.06579,-2.75715 -0.22047,0 -2.10673,0.71944 -4.19168,1.59878 -15.30124,6.45324 -29.89096,14.89512 -40.24693,23.28763 -4.76479,3.86139 -5.06934,4.03625 -4.04162,2.32089 4.74948,-7.92735 13.66969,-17.62814 21.80826,-23.71663 11.59992,-8.6779 21.04627,-13.6645 41.93767,-22.13833 75.94601,-30.80464 117.77282,-54.66824 149.19902,-85.12298 8.90515,-8.62988 15.94294,-17.0157 22.67474,-27.01802 5.17698,-7.69193 5.76289,-8.38256 3.41759,-4.02789 -13.89733,25.80417 -37.66612,52.407 -65.82689,73.67601 -13.8402,10.45304 -25.15288,17.3961 -72.9763,44.78872 -28.28524,16.20137 -34.55111,20.35089 -42.21339,27.95539 -4.1053,4.07443 -10.47448,11.92303 -10.03342,12.36404 0.11469,0.1147 2.95966,-0.11326 6.32215,-0.50659 3.36251,-0.39335 8.61178,-0.71517 11.66517,-0.71517 5.58471,0 12.69828,0.77993 12.69828,1.39222 0,0.18108 -1.33272,1.19177 -2.96164,2.24594 -7.5486,4.88513 -14.92116,12.8455 -18.33784,19.79998 -1.97699,4.02378 -4.20664,10.92155 -3.6956,11.43259 0.16654,0.16651 2.08609,-0.46324 4.26576,-1.39944 13.95211,-5.99253 30.3329,-8.96339 43.24124,-7.84234 3.09395,0.26872 5.82209,0.61019 6.06266,0.75887 0.24049,0.14862 -1.0532,0.85019 -2.8749,1.55897 -9.92267,3.86064 -20.55959,11.36009 -27.41608,19.32949 -8.27527,9.61848 -12.27504,18.15546 -17.03655,36.36212 -3.1787,12.15442 -6.78452,17.80872 -12.87251,20.18552 -2.31457,0.90365 -3.81239,1.08764 -9.83833,1.20855 -3.90944,0.0785 -7.32133,0.0562 -7.58194,-0.0494 z m -36.69261,-59.77346 c 5.60241,-1.64552 7.98522,-4.5244 8.38647,-10.13235 0.24409,-3.41134 -0.20848,-8.54394 -0.75261,-8.53527 -0.1767,0.004 -1.06767,1.30341 -1.97984,2.89014 -2.73641,4.75982 -7.88958,9.49558 -13.92879,12.80048 l -2.31886,1.26897 1.605,0.83 c 3.4616,1.79007 5.27914,1.96759 8.98863,0.87803 z m 127.20216,41.44394 c -3.60118,-0.45492 -10.27622,-2.06443 -11.68206,-2.81683 -0.58477,-0.31293 -0.87555,-0.99733 -0.87555,-2.06052 0,-3.12663 -2.81503,-10.60088 -5.34056,-14.17994 -1.17767,-1.66895 -0.80038,-1.97445 2.96445,-2.4004 4.3127,-0.4879 13.49988,-2.96716 18.6459,-5.03174 5.76373,-2.31243 12.08605,-6.0354 17.13484,-10.09006 l 3.78766,-3.04187 1.12456,1.65502 c 1.79622,2.64334 3.66349,7.14841 4.76447,11.49457 1.246,4.91887 2.23544,16.29848 1.56569,18.00711 -1.07298,2.73757 -12.81248,7.54995 -20.71647,8.49238 -4.81712,0.57437 -6.64194,0.56993 -11.37293,-0.0277 z m -27.35377,-30.10897 c -1.23123,-1.26158 -4.14867,-3.78477 -6.48316,-5.6071 -2.33457,-1.8223 -4.25921,-3.43807 -4.27717,-3.59054 -0.0175,-0.1525 1.83327,-1.77993 4.11374,-3.61659 10.34918,-8.3348 22.95952,-14.8241 28.80694,-14.8241 3.1195,0 10.59538,2.62071 14.96171,5.24497 4.20314,2.52618 9.43095,6.59363 9.39869,7.31261 -0.0342,0.76689 -4.88422,4.54804 -9.19365,7.16782 -8.90636,5.41429 -19.87036,8.83321 -31.77146,9.90735 l -3.31709,0.29935 z m 180.65131,-4.91918 c -16.59048,-7.75882 -30.248,-11.45204 -34.75524,-9.39841 -2.14634,0.97797 -2.73149,3.90194 -1.44943,7.2431 0.18336,0.47769 -2.14886,-0.4241 -6.51466,-2.51914 -13.81067,-6.62722 -27.22352,-10.46278 -36.58843,-10.46278 h -3.06974 l -0.80731,-2.48782 c -3.24261,-9.99363 -10.97335,-18.7715 -26.30247,-29.86547 -1.13118,-0.81864 -1.01805,-0.83357 4.28774,-0.56563 35.36526,1.78601 69.30741,12.52522 90.50951,28.63695 5.68384,4.31922 13.19921,11.7537 16.98625,16.80349 3.12681,4.16921 4.07791,5.53937 3.77366,5.43577 -0.0806,-0.0274 -2.81198,-1.29644 -6.06988,-2.82006 z M 507.46125,286.74327 c -7.30081,-4.56012 -16.17773,-8.79209 -21.79812,-10.39215 l -2.84325,-0.80944 3.791,-1.90414 c 8.11359,-4.07535 20.9508,-8.56939 30.76771,-10.77116 24.33127,-5.45705 48.59216,-5.28798 72.41825,0.50468 6.91637,1.68152 8.41464,2.55788 4.3731,2.55788 -5.96009,0 -24.23061,3.00813 -30.7496,5.06272 -12.58591,3.9667 -15.28925,9.03625 -8.2793,15.52621 3.24808,3.00718 3.5286,2.86882 -4.32053,2.13143 -6.46886,-0.6077 -28.4689,-0.59779 -33.6449,0.0153 -5.66543,0.67094 -5.51745,0.70022 -9.71436,-1.9212 z m -32.93414,-14.22376 c -7.72823,-1.92917 -16.49986,-2.97377 -25.11521,-2.9909 -4.73024,-0.009 -9.49775,0.23115 -11.09775,0.56001 -1.54271,0.31709 -2.8908,0.49074 -2.99565,0.38586 -0.41053,-0.41049 10.87887,-7.50873 16.93665,-10.64893 21.50544,-11.148 43.06946,-16.48862 64.92046,-16.07845 l 7.81885,0.14679 -8.05577,2.07709 c -20.30182,5.23446 -32.81819,10.42299 -32.37152,13.4192 0.22406,1.50307 2.1557,2.65714 5.83472,3.48608 6.83549,1.54015 6.55642,1.29197 2.838,2.52404 -5.13134,1.7003 -10.11005,4.23279 -12.31255,6.263 -1.10242,1.01618 -2.19382,1.82415 -2.42533,1.79551 -0.23144,-0.0288 -2.02013,-0.45133 -3.9749,-0.9393 z M 385.4392,259.39974 c 0,-0.67317 4.98689,-8.47031 7.94719,-12.42567 5.8911,-7.87125 11.19423,-12.48243 21.3039,-18.52415 13.67822,-8.1744 27.51803,-17.92921 39.22345,-27.64609 7.38762,-6.13261 20.30623,-19.0697 25.34825,-25.38441 7.52175,-9.42059 14.26336,-20.98742 17.26174,-29.61702 1.7104,-4.92234 1.46146,-2.80062 -0.66229,5.64662 -9.32192,37.07685 -30.12276,68.45276 -56.60319,85.3799 l -1.38705,0.88666 0.33552,-1.17568 c 1.30093,-4.55801 3.14705,-12.25454 3.14812,-13.12421 0,-0.9463 -0.70886,-0.63887 -7.22527,3.12848 -19.9981,11.5615 -36.17105,22.37115 -45.02764,30.09539 -2.01451,1.75694 -3.66273,2.99901 -3.66273,2.76018 z"
     id="path817"
     inkscape:connector-curvature="0" />
</svg>
