  0
SECTION
  2
HEADER
  9
$ACADVER
  1
AC1014
  9
$HANDSEED
  5
FFFF
  9
$MEASUREMENT
 70
     1
  0
ENDSEC
  0
SECTION
  2
TABLES
  0
TABLE
  2
VPORT
  5
8
330
0
100
AcDbSymbolTable
 70
     4
  0
VPORT
  5
2E
330
8
100
AcDbSymbolTableRecord
100
AcDbViewportTableRecord
  2
*ACTIVE
 70
     0
 10
0.0
 20
0.0
 11
1.0
 21
1.0
 12
210.0
 22
148.5
 13
0.0
 23
0.0
 14
10.0
 24
10.0
 15
10.0
 25
10.0
 16
0.0
 26
0.0
 36
1.0
 17
0.0
 27
0.0
 37
0.0
 40
341.0
 41
1.24
 42
50.0
 43
0.0
 44
0.0
 50
0.0
 51
0.0
 71
     0
 72
   100
 73
     1
 74
     3
 75
     0
 76
     0
 77
     0
 78
     0
  0
ENDTAB
  0
TABLE
  2
LTYPE
  5
5
330
0
100
AcDbSymbolTable
 70
     1
  0
LTYPE
  5
14
330
5
100
AcDbSymbolTableRecord
100
AcDbLinetypeTableRecord
  2
BYBLOCK
 70
     0
  3

 72
    65
 73
     0
 40
0.0
  0
LTYPE
  5
15
330
5
100
AcDbSymbolTableRecord
100
AcDbLinetypeTableRecord
  2
BYLAYER
 70
     0
  3

 72
    65
 73
     0
 40
0.0
  0
LTYPE
  5
16
330
5
100
AcDbSymbolTableRecord
100
AcDbLinetypeTableRecord
  2
CONTINUOUS
 70
     0
  3
Solid line
 72
    65
 73
     0
 40
0.0
  0
ENDTAB
  0
TABLE
  2
LAYER
  5
2
100
AcDbSymbolTable
 70
1
  0
LAYER
  5
50
100
AcDbSymbolTableRecord
100
AcDbLayerTableRecord
  2
0
 70
0
  6
CONTINUOUS
  0
ENDTAB
  0
TABLE
  2
STYLE
  5
3
330
0
100
AcDbSymbolTable
 70
     1
  0
STYLE
  5
11
330
3
100
AcDbSymbolTableRecord
100
AcDbTextStyleTableRecord
  2
STANDARD
 70
     0
 40
0.0
 41
1.0
 50
0.0
 71
     0
 42
2.5
  3
txt
  4

  0
ENDTAB
  0
TABLE
  2
VIEW
  5
6
330
0
100
AcDbSymbolTable
 70
     0
  0
ENDTAB
  0
TABLE
  2
UCS
  5
7
330
0
100
AcDbSymbolTable
 70
     0
  0
ENDTAB
  0
TABLE
  2
APPID
  5
9
330
0
100
AcDbSymbolTable
 70
     2
  0
APPID
  5
12
330
9
100
AcDbSymbolTableRecord
100
AcDbRegAppTableRecord
  2
ACAD
 70
     0
  0
ENDTAB
  0
TABLE
  2
DIMSTYLE
  5
A
330
0
100
AcDbSymbolTable
 70
     1
  0
DIMSTYLE
105
27
330
A
100
AcDbSymbolTableRecord
100
AcDbDimStyleTableRecord
  2
ISO-25
 70
     0
  3

  4

  5

  6

  7

 40
1.0
 41
2.5
 42
0.625
 43
3.75
 44
1.25
 45
0.0
 46
0.0
 47
0.0
 48
0.0
140
2.5
141
2.5
142
0.0
143
0.03937007874016
144
1.0
145
0.0
146
1.0
147
0.625
 71
     0
 72
     0
 73
     0
 74
     0
 75
     0
 76
     0
 77
     1
 78
     8
170
     0
171
     3
172
     1
173
     0
174
     0
175
     0
176
     0
177
     0
178
     0
270
     2
271
     2
272
     2
273
     2
274
     3
340
11
275
     0
280
     0
281
     0
282
     0
283
     0
284
     8
285
     0
286
     0
287
     3
288
     0
  0
ENDTAB
  0
TABLE
  2
BLOCK_RECORD
  5
1
330
0
100
AcDbSymbolTable
 70
     1
  0
BLOCK_RECORD
  5
1F
330
1
100
AcDbSymbolTableRecord
100
AcDbBlockTableRecord
  2
*MODEL_SPACE
  0
BLOCK_RECORD
  5
1B
330
1
100
AcDbSymbolTableRecord
100
AcDbBlockTableRecord
  2
*PAPER_SPACE
  0
ENDTAB
  0
ENDSEC
  0
SECTION
  2
BLOCKS
  0
BLOCK
  5
20
330
1F
100
AcDbEntity
  8
0
100
AcDbBlockBegin
  2
*MODEL_SPACE
 70
     0
 10
0.0
 20
0.0
 30
0.0
  3
*MODEL_SPACE
  1

  0
ENDBLK
  5
21
330
1F
100
AcDbEntity
  8
0
100
AcDbBlockEnd
  0
BLOCK
  5
1C
330
1B
100
AcDbEntity
 67
     1
  8
0
100
AcDbBlockBegin
  2
*PAPER_SPACE
  1

  0
ENDBLK
  5
1D
330
1B
100
AcDbEntity
 67
     1
  8
0
100
AcDbBlockEnd
  0
ENDSEC
  0
SECTION
  2
ENTITIES
  0
SPLINE
  5
100
100
AcDbEntity
  8
0
 62
7
100
AcDbSpline
 70
8
 71
3
 72
8
 73
4
 74
0
 40
0
 40
0
 40
0
 40
0
 40
1
 40
1
 40
1
 40
1
 10
125.805519
 20
34.678471
 30
0.0
 10
125.795253
 20
35.741818
 30
0.0
 10
125.503407
 20
38.887280
 30
0.0
 10
125.303075
 20
40.093248
 30
0.0
  0
SPLINE
  5
101
100
AcDbEntity
  8
0
 62
7
100
AcDbSpline
 70
8
 71
3
 72
8
 73
4
 74
0
 40
0
 40
0
 40
0
 40
0
 40
1
 40
1
 40
1
 40
1
 10
125.303075
 20
40.093248
 30
0.0
 10
124.867944
 20
42.712477
 30
0.0
 10
123.940799
 20
45.202807
 30
0.0
 10
123.110317
 20
45.983008
 30
0.0
  0
LINE
  5
102
100
AcDbEntity
  8
0
 62
7
100
AcDbLine
 10
123.110317
 20
45.983008
 30
0.0
 11
122.810258
 21
46.264884
 31
0.0
  0
LINE
  5
103
100
AcDbEntity
  8
0
 62
7
100
AcDbLine
 10
122.810258
 20
46.264884
 30
0.0
 11
122.732275
 21
45.843358
 31
0.0
  0
SPLINE
  5
104
100
AcDbEntity
  8
0
 62
7
100
AcDbSpline
 70
8
 71
3
 72
8
 73
4
 74
0
 40
0
 40
0
 40
0
 40
0
 40
1
 40
1
 40
1
 40
1
 10
122.732275
 20
45.843358
 30
0.0
 10
122.689378
 20
45.611517
 30
0.0
 10
122.614435
 20
45.139786
 30
0.0
 10
122.565720
 20
44.795068
 30
0.0
  0
LINE
  5
105
100
AcDbEntity
  8
0
 62
7
100
AcDbLine
 10
122.565720
 20
44.795068
 30
0.0
 11
122.477127
 21
44.168302
 31
0.0
  0
LINE
  5
106
100
AcDbEntity
  8
0
 62
7
100
AcDbLine
 10
122.477127
 20
44.168302
 30
0.0
 11
121.565359
 21
45.233895
 31
0.0
  0
SPLINE
  5
107
100
AcDbEntity
  8
0
 62
7
100
AcDbSpline
 70
8
 71
3
 72
8
 73
4
 74
0
 40
0
 40
0
 40
0
 40
0
 40
1
 40
1
 40
1
 40
1
 10
121.565359
 20
45.233895
 30
0.0
 10
119.762298
 20
47.341140
 30
0.0
 10
117.968354
 20
50.441017
 30
0.0
 10
117.455544
 20
52.335452
 30
0.0
  0
SPLINE
  5
108
100
AcDbEntity
  8
0
 62
7
100
AcDbSpline
 70
8
 71
3
 72
8
 73
4
 74
0
 40
0
 40
0
 40
0
 40
0
 40
1
 40
1
 40
1
 40
1
 10
117.455544
 20
52.335452
 30
0.0
 10
117.336857
 20
52.773896
 30
0.0
 10
117.197438
 20
53.132615
 30
0.0
 10
117.145722
 20
53.132615
 30
0.0
  0
SPLINE
  5
109
100
AcDbEntity
  8
0
 62
7
100
AcDbSpline
 70
8
 71
3
 72
8
 73
4
 74
0
 40
0
 40
0
 40
0
 40
0
 40
1
 40
1
 40
1
 40
1
 10
117.145722
 20
53.132615
 30
0.0
 10
116.996741
 20
53.132615
 30
0.0
 10
116.867404
 20
51.449389
 30
0.0
 10
116.962983
 20
50.754461
 30
0.0
  0
SPLINE
  5
10a
100
AcDbEntity
  8
0
 62
7
100
AcDbSpline
 70
8
 71
3
 72
8
 73
4
 74
0
 40
0
 40
0
 40
0
 40
0
 40
1
 40
1
 40
1
 40
1
 10
116.962983
 20
50.754461
 30
0.0
 10
117.015883
 20
50.369749
 30
0.0
 10
117.002157
 20
50.123528
 30
0.0
 10
116.927796
 20
50.123528
 30
0.0
  0
SPLINE
  5
10b
100
AcDbEntity
  8
0
 62
7
100
AcDbSpline
 70
8
 71
3
 72
8
 73
4
 74
0
 40
0
 40
0
 40
0
 40
0
 40
1
 40
1
 40
1
 40
1
 10
116.927796
 20
50.123528
 30
0.0
 10
116.758161
 20
50.123528
 30
0.0
 10
115.277097
 20
51.711453
 30
0.0
 10
114.631046
 20
52.585997
 30
0.0
  0
SPLINE
  5
10c
100
AcDbEntity
  8
0
 62
7
100
AcDbSpline
 70
8
 71
3
 72
8
 73
4
 74
0
 40
0
 40
0
 40
0
 40
0
 40
1
 40
1
 40
1
 40
1
 10
114.631046
 20
52.585997
 30
0.0
 10
113.895636
 20
53.581457
 30
0.0
 10
112.979360
 20
55.373221
 30
0.0
 10
112.576479
 20
56.603578
 30
0.0
  0
SPLINE
  5
10d
100
AcDbEntity
  8
0
 62
7
100
AcDbSpline
 70
8
 71
3
 72
8
 73
4
 74
0
 40
0
 40
0
 40
0
 40
0
 40
1
 40
1
 40
1
 40
1
 10
112.576479
 20
56.603578
 30
0.0
 10
112.243409
 20
57.620782
 30
0.0
 10
112.233907
 20
57.633588
 30
0.0
 10
111.476800
 20
58.084586
 30
0.0
  0
SPLINE
  5
10e
100
AcDbEntity
  8
0
 62
7
100
AcDbSpline
 70
8
 71
3
 72
8
 73
4
 74
0
 40
0
 40
0
 40
0
 40
0
 40
1
 40
1
 40
1
 40
1
 10
111.476800
 20
58.084586
 30
0.0
 10
109.146270
 20
59.472865
 30
0.0
 10
105.774106
 20
62.576925
 30
0.0
 10
104.259633
 20
64.727934
 30
0.0
  0
SPLINE
  5
10f
100
AcDbEntity
  8
0
 62
7
100
AcDbSpline
 70
8
 71
3
 72
8
 73
4
 74
0
 40
0
 40
0
 40
0
 40
0
 40
1
 40
1
 40
1
 40
1
 10
104.259633
 20
64.727934
 30
0.0
 10
102.694014
 20
66.951572
 30
0.0
 10
101.695562
 20
69.150585
 30
0.0
 10
101.240796
 20
71.376670
 30
0.0
  0
SPLINE
  5
110
100
AcDbEntity
  8
0
 62
7
100
AcDbSpline
 70
8
 71
3
 72
8
 73
4
 74
0
 40
0
 40
0
 40
0
 40
0
 40
1
 40
1
 40
1
 40
1
 10
101.240796
 20
71.376670
 30
0.0
 10
101.101371
 20
72.059197
 30
0.0
 10
101.000943
 20
72.631271
 30
0.0
 10
101.017636
 20
72.647972
 30
0.0
  0
SPLINE
  5
111
100
AcDbEntity
  8
0
 62
7
100
AcDbSpline
 70
8
 71
3
 72
8
 73
4
 74
0
 40
0
 40
0
 40
0
 40
0
 40
1
 40
1
 40
1
 40
1
 10
101.017636
 20
72.647972
 30
0.0
 10
101.042665
 20
72.673028
 30
0.0
 10
102.472323
 20
72.135918
 30
0.0
 10
103.563554
 20
71.691495
 30
0.0
  0
SPLINE
  5
112
100
AcDbEntity
  8
0
 62
7
100
AcDbSpline
 70
8
 71
3
 72
8
 73
4
 74
0
 40
0
 40
0
 40
0
 40
0
 40
1
 40
1
 40
1
 40
1
 10
103.563554
 20
71.691495
 30
0.0
 10
103.740735
 20
71.619343
 30
0.0
 10
103.859763
 20
71.422398
 30
0.0
 10
103.919220
 20
71.102993
 30
0.0
  0
SPLINE
  5
113
100
AcDbEntity
  8
0
 62
7
100
AcDbSpline
 70
8
 71
3
 72
8
 73
4
 74
0
 40
0
 40
0
 40
0
 40
0
 40
1
 40
1
 40
1
 40
1
 10
103.919220
 20
71.102993
 30
0.0
 10
104.312780
 20
68.988999
 30
0.0
 10
105.806163
 20
66.398352
 30
0.0
 10
107.872386
 20
64.245247
 30
0.0
  0
SPLINE
  5
114
100
AcDbEntity
  8
0
 62
7
100
AcDbSpline
 70
8
 71
3
 72
8
 73
4
 74
0
 40
0
 40
0
 40
0
 40
0
 40
1
 40
1
 40
1
 40
1
 10
107.872386
 20
64.245247
 30
0.0
 10
109.953181
 20
62.076966
 30
0.0
 10
111.252348
 20
61.137830
 30
0.0
 10
115.521675
 20
58.715815
 30
0.0
  0
SPLINE
  5
115
100
AcDbEntity
  8
0
 62
7
100
AcDbSpline
 70
8
 71
3
 72
8
 73
4
 74
0
 40
0
 40
0
 40
0
 40
0
 40
1
 40
1
 40
1
 40
1
 10
115.521675
 20
58.715815
 30
0.0
 10
119.892015
 20
56.236519
 30
0.0
 10
122.011862
 20
54.758567
 30
0.0
 10
122.900402
 20
53.571443
 30
0.0
  0
LINE
  5
116
100
AcDbEntity
  8
0
 62
7
100
AcDbLine
 10
122.900402
 20
53.571443
 30
0.0
 11
123.181918
 21
53.195308
 31
0.0
  0
LINE
  5
117
100
AcDbEntity
  8
0
 62
7
100
AcDbLine
 10
123.181918
 20
53.195308
 30
0.0
 11
122.974358
 21
53.622496
 31
0.0
  0
SPLINE
  5
118
100
AcDbEntity
  8
0
 62
7
100
AcDbSpline
 70
8
 71
3
 72
8
 73
4
 74
0
 40
0
 40
0
 40
0
 40
0
 40
1
 40
1
 40
1
 40
1
 10
122.974358
 20
53.622496
 30
0.0
 10
122.460016
 20
54.681158
 30
0.0
 10
120.163205
 20
56.554051
 30
0.0
 10
115.858371
 20
59.425132
 30
0.0
  0
SPLINE
  5
119
100
AcDbEntity
  8
0
 62
7
100
AcDbSpline
 70
8
 71
3
 72
8
 73
4
 74
0
 40
0
 40
0
 40
0
 40
0
 40
1
 40
1
 40
1
 40
1
 10
115.858371
 20
59.425132
 30
0.0
 10
114.604333
 20
60.261498
 30
0.0
 10
113.239782
 20
61.200946
 30
0.0
 10
112.826050
 20
61.512789
 30
0.0
  0
SPLINE
  5
11a
100
AcDbEntity
  8
0
 62
7
100
AcDbSpline
 70
8
 71
3
 72
8
 73
4
 74
0
 40
0
 40
0
 40
0
 40
0
 40
1
 40
1
 40
1
 40
1
 10
112.826050
 20
61.512789
 30
0.0
 10
109.495928
 20
64.022746
 30
0.0
 10
107.211444
 20
67.017633
 30
0.0
 10
106.248244
 20
70.136100
 30
0.0
  0
SPLINE
  5
11b
100
AcDbEntity
  8
0
 62
7
100
AcDbSpline
 70
8
 71
3
 72
8
 73
4
 74
0
 40
0
 40
0
 40
0
 40
0
 40
1
 40
1
 40
1
 40
1
 10
106.248244
 20
70.136100
 30
0.0
 10
106.107806
 20
70.590791
 30
0.0
 10
105.992895
 20
70.999170
 30
0.0
 10
105.992876
 20
71.043620
 30
0.0
  0
SPLINE
  5
11c
100
AcDbEntity
  8
0
 62
7
100
AcDbSpline
 70
8
 71
3
 72
8
 73
4
 74
0
 40
0
 40
0
 40
0
 40
0
 40
1
 40
1
 40
1
 40
1
 10
105.992876
 20
71.043620
 30
0.0
 10
105.992858
 20
71.088078
 30
0.0
 10
106.975129
 20
71.124453
 30
0.0
 10
108.175705
 20
71.124453
 30
0.0
  0
LINE
  5
11d
100
AcDbEntity
  8
0
 62
7
100
AcDbLine
 10
108.175705
 20
71.124453
 30
0.0
 11
110.358559
 21
71.124453
 31
0.0
  0
LINE
  5
11e
100
AcDbEntity
  8
0
 62
7
100
AcDbLine
 10
110.358559
 20
71.124453
 30
0.0
 11
110.445237
 21
70.309489
 31
0.0
  0
SPLINE
  5
11f
100
AcDbEntity
  8
0
 62
7
100
AcDbSpline
 70
8
 71
3
 72
8
 73
4
 74
0
 40
0
 40
0
 40
0
 40
0
 40
1
 40
1
 40
1
 40
1
 10
110.445237
 20
70.309489
 30
0.0
 10
110.686717
 20
68.039425
 30
0.0
 10
111.804716
 20
65.211953
 30
0.0
 10
112.806868
 20
64.336864
 30
0.0
  0
SPLINE
  5
120
100
AcDbEntity
  8
0
 62
7
100
AcDbSpline
 70
8
 71
3
 72
8
 73
4
 74
0
 40
0
 40
0
 40
0
 40
0
 40
1
 40
1
 40
1
 40
1
 10
112.806868
 20
64.336864
 30
0.0
 10
113.523756
 20
63.710852
 30
0.0
 10
115.170449
 20
62.955009
 30
0.0
 10
116.616505
 20
62.588172
 30
0.0
  0
SPLINE
  5
121
100
AcDbEntity
  8
0
 62
7
100
AcDbSpline
 70
8
 71
3
 72
8
 73
4
 74
0
 40
0
 40
0
 40
0
 40
0
 40
1
 40
1
 40
1
 40
1
 10
116.616505
 20
62.588172
 30
0.0
 10
119.750984
 20
61.793049
 30
0.0
 10
123.097352
 20
62.023263
 30
0.0
 10
125.126092
 20
63.173600
 30
0.0
  0
SPLINE
  5
122
100
AcDbEntity
  8
0
 62
7
100
AcDbSpline
 70
8
 71
3
 72
8
 73
4
 74
0
 40
0
 40
0
 40
0
 40
0
 40
1
 40
1
 40
1
 40
1
 10
125.126092
 20
63.173600
 30
0.0
 10
125.896345
 20
63.610350
 30
0.0
 10
126.872628
 20
64.623207
 30
0.0
 10
127.142612
 20
65.265658
 30
0.0
  0
SPLINE
  5
123
100
AcDbEntity
  8
0
 62
7
100
AcDbSpline
 70
8
 71
3
 72
8
 73
4
 74
0
 40
0
 40
0
 40
0
 40
0
 40
1
 40
1
 40
1
 40
1
 10
127.142612
 20
65.265658
 30
0.0
 10
127.338940
 20
65.732864
 30
0.0
 10
127.339141
 20
65.732967
 30
0.0
 10
127.459437
 20
65.419722
 30
0.0
  0
SPLINE
  5
124
100
AcDbEntity
  8
0
 62
7
100
AcDbSpline
 70
8
 71
3
 72
8
 73
4
 74
0
 40
0
 40
0
 40
0
 40
0
 40
1
 40
1
 40
1
 40
1
 10
127.459437
 20
65.419722
 30
0.0
 10
127.525646
 20
65.247330
 30
0.0
 10
127.553949
 20
64.401023
 30
0.0
 10
127.522305
 20
63.539042
 30
0.0
  0
SPLINE
  5
125
100
AcDbEntity
  8
0
 62
7
100
AcDbSpline
 70
8
 71
3
 72
8
 73
4
 74
0
 40
0
 40
0
 40
0
 40
0
 40
1
 40
1
 40
1
 40
1
 10
127.522305
 20
63.539042
 30
0.0
 10
127.457828
 20
61.782638
 30
0.0
 10
127.262426
 20
61.062037
 30
0.0
 10
126.676765
 20
60.420830
 30
0.0
  0
SPLINE
  5
126
100
AcDbEntity
  8
0
 62
7
100
AcDbSpline
 70
8
 71
3
 72
8
 73
4
 74
0
 40
0
 40
0
 40
0
 40
0
 40
1
 40
1
 40
1
 40
1
 10
126.676765
 20
60.420830
 30
0.0
 10
126.240467
 20
59.943138
 30
0.0
 10
126.229336
 20
59.903062
 30
0.0
 10
126.533035
 20
59.903062
 30
0.0
  0
SPLINE
  5
127
100
AcDbEntity
  8
0
 62
7
100
AcDbSpline
 70
8
 71
3
 72
8
 73
4
 74
0
 40
0
 40
0
 40
0
 40
0
 40
1
 40
1
 40
1
 40
1
 10
126.533035
 20
59.903062
 30
0.0
 10
126.884304
 20
59.903062
 30
0.0
 10
128.524877
 20
59.317933
 30
0.0
 10
129.041150
 20
59.008516
 30
0.0
  0
SPLINE
  5
128
100
AcDbEntity
  8
0
 62
7
100
AcDbSpline
 70
8
 71
3
 72
8
 73
4
 74
0
 40
0
 40
0
 40
0
 40
0
 40
1
 40
1
 40
1
 40
1
 10
129.041150
 20
59.008516
 30
0.0
 10
129.872760
 20
58.510099
 30
0.0
 10
130.594884
 20
57.861912
 30
0.0
 10
130.960081
 20
57.286076
 30
0.0
  0
SPLINE
  5
129
100
AcDbEntity
  8
0
 62
7
100
AcDbSpline
 70
8
 71
3
 72
8
 73
4
 74
0
 40
0
 40
0
 40
0
 40
0
 40
1
 40
1
 40
1
 40
1
 10
130.960081
 20
57.286076
 30
0.0
 10
131.157698
 20
56.974458
 30
0.0
 10
131.319382
 20
56.680207
 30
0.0
 10
131.319382
 20
56.632174
 30
0.0
  0
SPLINE
  5
12a
100
AcDbEntity
  8
0
 62
7
100
AcDbSpline
 70
8
 71
3
 72
8
 73
4
 74
0
 40
0
 40
0
 40
0
 40
0
 40
1
 40
1
 40
1
 40
1
 10
131.319382
 20
56.632174
 30
0.0
 10
131.319382
 20
56.584150
 30
0.0
 10
130.734627
 20
56.574701
 30
0.0
 10
130.019889
 20
56.611166
 30
0.0
  0
SPLINE
  5
12b
100
AcDbEntity
  8
0
 62
7
100
AcDbSpline
 70
8
 71
3
 72
8
 73
4
 74
0
 40
0
 40
0
 40
0
 40
0
 40
1
 40
1
 40
1
 40
1
 10
130.019889
 20
56.611166
 30
0.0
 10
129.305154
 20
56.647652
 30
0.0
 10
128.512457
 20
56.638474
 30
0.0
 10
128.258275
 20
56.590793
 30
0.0
  0
LINE
  5
12c
100
AcDbEntity
  8
0
 62
7
100
AcDbLine
 10
128.258275
 20
56.590793
 30
0.0
 11
127.796172
 21
56.504095
 31
0.0
  0
LINE
  5
12d
100
AcDbEntity
  8
0
 62
7
100
AcDbLine
 10
127.796172
 20
56.504095
 30
0.0
 11
128.450939
 21
55.790027
 31
0.0
  0
SPLINE
  5
12e
100
AcDbEntity
  8
0
 62
7
100
AcDbSpline
 70
8
 71
3
 72
8
 73
4
 74
0
 40
0
 40
0
 40
0
 40
0
 40
1
 40
1
 40
1
 40
1
 10
128.450939
 20
55.790027
 30
0.0
 10
129.754094
 20
54.368875
 30
0.0
 10
130.939671
 20
52.249761
 30
0.0
 10
131.487588
 20
50.362351
 30
0.0
  0
SPLINE
  5
12f
100
AcDbEntity
  8
0
 62
7
100
AcDbSpline
 70
8
 71
3
 72
8
 73
4
 74
0
 40
0
 40
0
 40
0
 40
0
 40
1
 40
1
 40
1
 40
1
 10
131.487588
 20
50.362351
 30
0.0
 10
131.669622
 20
49.735323
 30
0.0
 10
132.065679
 20
47.989639
 30
0.0
 10
132.024997
 20
47.993671
 30
0.0
  0
SPLINE
  5
130
100
AcDbEntity
  8
0
 62
7
100
AcDbSpline
 70
8
 71
3
 72
8
 73
4
 74
0
 40
0
 40
0
 40
0
 40
0
 40
1
 40
1
 40
1
 40
1
 10
132.024997
 20
47.993671
 30
0.0
 10
132.016345
 20
47.994994
 30
0.0
 10
131.684679
 20
48.159727
 30
0.0
 10
131.288320
 20
48.360744
 30
0.0
  0
SPLINE
  5
131
100
AcDbEntity
  8
0
 62
7
100
AcDbSpline
 70
8
 71
3
 72
8
 73
4
 74
0
 40
0
 40
0
 40
0
 40
0
 40
1
 40
1
 40
1
 40
1
 10
131.288320
 20
48.360744
 30
0.0
 10
130.617670
 20
48.700892
 30
0.0
 10
129.241546
 20
49.100577
 30
0.0
 10
129.142888
 20
48.983888
 30
0.0
  0
SPLINE
  5
132
100
AcDbEntity
  8
0
 62
7
100
AcDbSpline
 70
8
 71
3
 72
8
 73
4
 74
0
 40
0
 40
0
 40
0
 40
0
 40
1
 40
1
 40
1
 40
1
 10
129.142888
 20
48.983888
 30
0.0
 10
129.118943
 20
48.955575
 30
0.0
 10
129.148921
 20
48.481060
 30
0.0
 10
129.209619
 20
47.929391
 30
0.0
  0
SPLINE
  5
133
100
AcDbEntity
  8
0
 62
7
100
AcDbSpline
 70
8
 71
3
 72
8
 73
4
 74
0
 40
0
 40
0
 40
0
 40
0
 40
1
 40
1
 40
1
 40
1
 10
129.209619
 20
47.929391
 30
0.0
 10
129.413033
 20
46.078990
 30
0.0
 10
129.129744
 20
42.947435
 30
0.0
 10
128.555495
 20
40.698321
 30
0.0
  0
SPLINE
  5
134
100
AcDbEntity
  8
0
 62
7
100
AcDbSpline
 70
8
 71
3
 72
8
 73
4
 74
0
 40
0
 40
0
 40
0
 40
0
 40
1
 40
1
 40
1
 40
1
 10
128.555495
 20
40.698321
 30
0.0
 10
128.041256
 20
38.684283
 30
0.0
 10
126.767247
 20
35.636172
 30
0.0
 10
126.049213
 20
34.701944
 30
0.0
  0
LINE
  5
135
100
AcDbEntity
  8
0
 62
7
100
AcDbLine
 10
126.049213
 20
34.701944
 30
0.0
 11
125.808297
 21
34.388503
 31
0.0
  0
LINE
  5
136
100
AcDbEntity
  8
0
 62
7
100
AcDbLine
 10
125.808297
 20
34.388503
 30
0.0
 11
125.805492
 21
34.678455
 31
0.0
  0
LINE
  5
137
100
AcDbEntity
  8
0
 62
7
100
AcDbLine
 10
125.805492
 20
34.678455
 30
0.0
 11
125.805519
 21
34.678471
 31
0.0
  0
SPLINE
  5
138
100
AcDbEntity
  8
0
 62
7
100
AcDbSpline
 70
8
 71
3
 72
8
 73
4
 74
0
 40
0
 40
0
 40
0
 40
0
 40
1
 40
1
 40
1
 40
1
 10
114.017141
 20
72.014408
 30
0.0
 10
113.775783
 20
72.041068
 30
0.0
 10
113.108837
 20
72.096913
 30
0.0
 10
112.535032
 20
72.138514
 30
0.0
  0
SPLINE
  5
139
100
AcDbEntity
  8
0
 62
7
100
AcDbSpline
 70
8
 71
3
 72
8
 73
4
 74
0
 40
0
 40
0
 40
0
 40
0
 40
1
 40
1
 40
1
 40
1
 10
112.535032
 20
72.138514
 30
0.0
 10
111.961246
 20
72.180125
 30
0.0
 10
111.510677
 20
72.233076
 30
0.0
 10
111.533786
 20
72.256179
 30
0.0
  0
SPLINE
  5
13a
100
AcDbEntity
  8
0
 62
7
100
AcDbSpline
 70
8
 71
3
 72
8
 73
4
 74
0
 40
0
 40
0
 40
0
 40
0
 40
1
 40
1
 40
1
 40
1
 10
111.533786
 20
72.256179
 30
0.0
 10
111.556910
 20
72.279277
 30
0.0
 10
112.680974
 20
72.442113
 30
0.0
 10
114.031756
 20
72.618013
 30
0.0
  0
SPLINE
  5
13b
100
AcDbEntity
  8
0
 62
7
100
AcDbSpline
 70
8
 71
3
 72
8
 73
4
 74
0
 40
0
 40
0
 40
0
 40
0
 40
1
 40
1
 40
1
 40
1
 10
114.031756
 20
72.618013
 30
0.0
 10
120.618627
 20
73.475752
 30
0.0
 10
127.304698
 20
75.120069
 30
0.0
 10
131.739374
 20
76.972875
 30
0.0
  0
SPLINE
  5
13c
100
AcDbEntity
  8
0
 62
7
100
AcDbSpline
 70
8
 71
3
 72
8
 73
4
 74
0
 40
0
 40
0
 40
0
 40
0
 40
1
 40
1
 40
1
 40
1
 10
131.739374
 20
76.972875
 30
0.0
 10
135.430787
 20
78.515162
 30
0.0
 10
137.662619
 20
79.890316
 30
0.0
 10
139.706033
 20
81.881655
 30
0.0
  0
SPLINE
  5
13d
100
AcDbEntity
  8
0
 62
7
100
AcDbSpline
 70
8
 71
3
 72
8
 73
4
 74
0
 40
0
 40
0
 40
0
 40
0
 40
1
 40
1
 40
1
 40
1
 10
139.706033
 20
81.881655
 30
0.0
 10
140.542937
 20
82.697222
 30
0.0
 10
140.623939
 20
82.748443
 30
0.0
 10
140.542596
 20
82.410559
 30
0.0
  0
SPLINE
  5
13e
100
AcDbEntity
  8
0
 62
7
100
AcDbSpline
 70
8
 71
3
 72
8
 73
4
 74
0
 40
0
 40
0
 40
0
 40
0
 40
1
 40
1
 40
1
 40
1
 10
140.542596
 20
82.410559
 30
0.0
 10
140.371008
 20
81.697817
 30
0.0
 10
139.595520
 20
80.183919
 30
0.0
 10
138.969317
 20
79.339239
 30
0.0
  0
SPLINE
  5
13f
100
AcDbEntity
  8
0
 62
7
100
AcDbSpline
 70
8
 71
3
 72
8
 73
4
 74
0
 40
0
 40
0
 40
0
 40
0
 40
1
 40
1
 40
1
 40
1
 10
138.969317
 20
79.339239
 30
0.0
 10
136.172780
 20
75.566900
 30
0.0
 10
131.171528
 20
73.187981
 30
0.0
 10
124.047426
 20
72.241397
 30
0.0
  0
SPLINE
  5
140
100
AcDbEntity
  8
0
 62
7
100
AcDbSpline
 70
8
 71
3
 72
8
 73
4
 74
0
 40
0
 40
0
 40
0
 40
0
 40
1
 40
1
 40
1
 40
1
 10
124.047426
 20
72.241397
 30
0.0
 10
122.570350
 20
72.045140
 30
0.0
 10
115.241085
 20
71.879283
 30
0.0
 10
114.017141
 20
72.014408
 30
0.0
  0
LINE
  5
141
100
AcDbEntity
  8
0
 62
7
100
AcDbLine
 10
114.017141
 20
72.014408
 30
0.0
 11
114.017141
 21
72.014408
 31
0.0
  0
SPLINE
  5
142
100
AcDbEntity
  8
0
 62
7
100
AcDbSpline
 70
8
 71
3
 72
8
 73
4
 74
0
 40
0
 40
0
 40
0
 40
0
 40
1
 40
1
 40
1
 40
1
 10
105.177941
 20
73.516130
 30
0.0
 10
103.458642
 20
73.693065
 30
0.0
 10
100.760572
 20
74.188474
 30
0.0
 10
99.535339
 20
74.552196
 30
0.0
  0
LINE
  5
143
100
AcDbEntity
  8
0
 62
7
100
AcDbLine
 10
99.535339
 20
74.552196
 30
0.0
 11
98.805542
 21
74.768850
 31
0.0
  0
LINE
  5
144
100
AcDbEntity
  8
0
 62
7
100
AcDbLine
 10
98.805542
 20
74.768850
 30
0.0
 11
100.111062
 21
75.093708
 31
0.0
  0
SPLINE
  5
145
100
AcDbEntity
  8
0
 62
7
100
AcDbSpline
 70
8
 71
3
 72
8
 73
4
 74
0
 40
0
 40
0
 40
0
 40
0
 40
1
 40
1
 40
1
 40
1
 10
100.111062
 20
75.093708
 30
0.0
 10
100.829096
 20
75.272376
 30
0.0
 10
101.956592
 20
75.621682
 30
0.0
 10
102.616597
 20
75.869951
 30
0.0
  0
LINE
  5
146
100
AcDbEntity
  8
0
 62
7
100
AcDbLine
 10
102.616597
 20
75.869951
 30
0.0
 11
103.816602
 21
76.321343
 31
0.0
  0
LINE
  5
147
100
AcDbEntity
  8
0
 62
7
100
AcDbLine
 10
103.816602
 20
76.321343
 30
0.0
 11
104.873411
 21
75.906831
 31
0.0
  0
SPLINE
  5
148
100
AcDbEntity
  8
0
 62
7
100
AcDbSpline
 70
8
 71
3
 72
8
 73
4
 74
0
 40
0
 40
0
 40
0
 40
0
 40
1
 40
1
 40
1
 40
1
 10
104.873411
 20
75.906831
 30
0.0
 10
106.882099
 20
75.118950
 30
0.0
 10
110.498381
 20
74.093679
 30
0.0
 10
112.951420
 20
73.616587
 30
0.0
  0
SPLINE
  5
149
100
AcDbEntity
  8
0
 62
7
100
AcDbSpline
 70
8
 71
3
 72
8
 73
4
 74
0
 40
0
 40
0
 40
0
 40
0
 40
1
 40
1
 40
1
 40
1
 10
112.951420
 20
73.616587
 30
0.0
 10
113.450059
 20
73.519610
 30
0.0
 10
113.448250
 20
73.518557
 30
0.0
 10
112.637977
 20
73.433456
 30
0.0
  0
SPLINE
  5
14a
100
AcDbEntity
  8
0
 62
7
100
AcDbSpline
 70
8
 71
3
 72
8
 73
4
 74
0
 40
0
 40
0
 40
0
 40
0
 40
1
 40
1
 40
1
 40
1
 10
112.637977
 20
73.433456
 30
0.0
 10
111.271734
 20
73.289988
 30
0.0
 10
106.905109
 20
73.338389
 30
0.0
 10
105.177941
 20
73.516130
 30
0.0
  0
LINE
  5
14b
100
AcDbEntity
  8
0
 62
7
100
AcDbLine
 10
105.177941
 20
73.516130
 30
0.0
 11
105.177941
 21
73.516130
 31
0.0
  0
SPLINE
  5
14c
100
AcDbEntity
  8
0
 62
7
100
AcDbSpline
 70
8
 71
3
 72
8
 73
4
 74
0
 40
0
 40
0
 40
0
 40
0
 40
1
 40
1
 40
1
 40
1
 10
112.670285
 20
75.765120
 30
0.0
 10
103.402664
 20
76.939907
 30
0.0
 10
94.770215
 20
82.659223
 30
0.0
 10
91.089736
 20
90.063013
 30
0.0
  0
SPLINE
  5
14d
100
AcDbEntity
  8
0
 62
7
100
AcDbSpline
 70
8
 71
3
 72
8
 73
4
 74
0
 40
0
 40
0
 40
0
 40
0
 40
1
 40
1
 40
1
 40
1
 10
91.089736
 20
90.063013
 30
0.0
 10
88.590265
 20
95.091046
 30
0.0
 10
88.278901
 20
100.811329
 30
0.0
 10
90.191891
 20
106.557989
 30
0.0
  0
SPLINE
  5
14e
100
AcDbEntity
  8
0
 62
7
100
AcDbSpline
 70
8
 71
3
 72
8
 73
4
 74
0
 40
0
 40
0
 40
0
 40
0
 40
1
 40
1
 40
1
 40
1
 10
90.191891
 20
106.557989
 30
0.0
 10
91.753579
 20
111.249314
 30
0.0
 10
94.754165
 20
114.805266
 30
0.0
 10
100.370520
 20
118.620531
 30
0.0
  0
SPLINE
  5
14f
100
AcDbEntity
  8
0
 62
7
100
AcDbSpline
 70
8
 71
3
 72
8
 73
4
 74
0
 40
0
 40
0
 40
0
 40
0
 40
1
 40
1
 40
1
 40
1
 10
100.370520
 20
118.620531
 30
0.0
 10
102.939839
 20
120.365905
 30
0.0
 10
104.438955
 20
121.225610
 30
0.0
 10
112.763347
 20
125.727488
 30
0.0
  0
SPLINE
  5
150
100
AcDbEntity
  8
0
 62
7
100
AcDbSpline
 70
8
 71
3
 72
8
 73
4
 74
0
 40
0
 40
0
 40
0
 40
0
 40
1
 40
1
 40
1
 40
1
 10
112.763347
 20
125.727488
 30
0.0
 10
121.117568
 20
130.245478
 30
0.0
 10
125.319902
 20
133.124960
 30
0.0
 10
129.128878
 20
136.941222
 30
0.0
  0
SPLINE
  5
151
100
AcDbEntity
  8
0
 62
7
100
AcDbSpline
 70
8
 71
3
 72
8
 73
4
 74
0
 40
0
 40
0
 40
0
 40
0
 40
1
 40
1
 40
1
 40
1
 10
129.128878
 20
136.941222
 30
0.0
 10
133.063240
 20
140.883135
 30
0.0
 10
135.640382
 20
145.292866
 30
0.0
 10
136.895587
 20
150.230732
 30
0.0
  0
SPLINE
  5
152
100
AcDbEntity
  8
0
 62
7
100
AcDbSpline
 70
8
 71
3
 72
8
 73
4
 74
0
 40
0
 40
0
 40
0
 40
0
 40
1
 40
1
 40
1
 40
1
 10
136.895587
 20
150.230732
 30
0.0
 10
138.746114
 20
157.510443
 30
0.0
 10
136.866258
 20
163.331305
 30
0.0
 10
131.521990
 20
166.869819
 30
0.0
  0
SPLINE
  5
153
100
AcDbEntity
  8
0
 62
7
100
AcDbSpline
 70
8
 71
3
 72
8
 73
4
 74
0
 40
0
 40
0
 40
0
 40
0
 40
1
 40
1
 40
1
 40
1
 10
131.521990
 20
166.869819
 30
0.0
 10
128.452228
 20
168.902364
 30
0.0
 10
124.978156
 20
169.890950
 30
0.0
 10
120.912968
 20
169.888752
 30
0.0
  0
SPLINE
  5
154
100
AcDbEntity
  8
0
 62
7
100
AcDbSpline
 70
8
 71
3
 72
8
 73
4
 74
0
 40
0
 40
0
 40
0
 40
0
 40
1
 40
1
 40
1
 40
1
 10
120.912968
 20
169.888752
 30
0.0
 10
117.177348
 20
169.886635
 30
0.0
 10
114.404544
 20
168.993661
 30
0.0
 10
112.606613
 20
167.213420
 30
0.0
  0
SPLINE
  5
155
100
AcDbEntity
  8
0
 62
7
100
AcDbSpline
 70
8
 71
3
 72
8
 73
4
 74
0
 40
0
 40
0
 40
0
 40
0
 40
1
 40
1
 40
1
 40
1
 10
112.606613
 20
167.213420
 30
0.0
 10
112.141147
 20
166.752532
 30
0.0
 10
111.760309
 20
166.403073
 30
0.0
 10
111.760309
 20
166.436850
 30
0.0
  0
SPLINE
  5
156
100
AcDbEntity
  8
0
 62
7
100
AcDbSpline
 70
8
 71
3
 72
8
 73
4
 74
0
 40
0
 40
0
 40
0
 40
0
 40
1
 40
1
 40
1
 40
1
 10
111.760309
 20
166.436850
 30
0.0
 10
111.760309
 20
166.470626
 30
0.0
 10
111.991803
 20
166.958468
 30
0.0
 10
112.274712
 20
167.520937
 30
0.0
  0
SPLINE
  5
157
100
AcDbEntity
  8
0
 62
7
100
AcDbSpline
 70
8
 71
3
 72
8
 73
4
 74
0
 40
0
 40
0
 40
0
 40
0
 40
1
 40
1
 40
1
 40
1
 10
112.274712
 20
167.520937
 30
0.0
 10
113.253913
 20
169.467667
 30
0.0
 10
114.453217
 20
170.886366
 30
0.0
 10
116.236733
 20
172.207743
 30
0.0
  0
SPLINE
  5
158
100
AcDbEntity
  8
0
 62
7
100
AcDbSpline
 70
8
 71
3
 72
8
 73
4
 74
0
 40
0
 40
0
 40
0
 40
0
 40
1
 40
1
 40
1
 40
1
 10
116.236733
 20
172.207743
 30
0.0
 10
116.802407
 20
172.626851
 30
0.0
 10
117.338387
 20
172.999246
 30
0.0
 10
117.427824
 20
173.035296
 30
0.0
  0
SPLINE
  5
159
100
AcDbEntity
  8
0
 62
7
100
AcDbSpline
 70
8
 71
3
 72
8
 73
4
 74
0
 40
0
 40
0
 40
0
 40
0
 40
1
 40
1
 40
1
 40
1
 10
117.427824
 20
173.035296
 30
0.0
 10
117.750750
 20
173.165487
 30
0.0
 10
117.239107
 20
173.350631
 30
0.0
 10
115.779642
 20
173.631735
 30
0.0
  0
SPLINE
  5
15a
100
AcDbEntity
  8
0
 62
7
100
AcDbSpline
 70
8
 71
3
 72
8
 73
4
 74
0
 40
0
 40
0
 40
0
 40
0
 40
1
 40
1
 40
1
 40
1
 10
115.779642
 20
173.631735
 30
0.0
 10
114.128157
 20
173.949825
 30
0.0
 10
111.224609
 20
174.017641
 30
0.0
 10
109.952456
 20
173.767840
 30
0.0
  0
SPLINE
  5
15b
100
AcDbEntity
  8
0
 62
7
100
AcDbSpline
 70
8
 71
3
 72
8
 73
4
 74
0
 40
0
 40
0
 40
0
 40
0
 40
1
 40
1
 40
1
 40
1
 10
109.952456
 20
173.767840
 30
0.0
 10
109.544262
 20
173.687695
 30
0.0
 10
109.187498
 20
173.644912
 30
0.0
 10
109.159637
 20
173.672772
 30
0.0
  0
SPLINE
  5
15c
100
AcDbEntity
  8
0
 62
7
100
AcDbSpline
 70
8
 71
3
 72
8
 73
4
 74
0
 40
0
 40
0
 40
0
 40
0
 40
1
 40
1
 40
1
 40
1
 10
109.159637
 20
173.672772
 30
0.0
 10
109.067964
 20
173.764437
 30
0.0
 10
111.425809
 20
175.752794
 30
0.0
 10
112.471159
 20
176.465375
 30
0.0
  0
LINE
  5
15d
100
AcDbEntity
  8
0
 62
7
100
AcDbLine
 10
112.471159
 20
176.465375
 30
0.0
 11
113.495454
 21
177.163584
 31
0.0
  0
LINE
  5
15e
100
AcDbEntity
  8
0
 62
7
100
AcDbLine
 10
113.495454
 20
177.163584
 30
0.0
 11
116.859414
 21
177.097488
 31
0.0
  0
SPLINE
  5
15f
100
AcDbEntity
  8
0
 62
7
100
AcDbSpline
 70
8
 71
3
 72
8
 73
4
 74
0
 40
0
 40
0
 40
0
 40
0
 40
1
 40
1
 40
1
 40
1
 10
116.859414
 20
177.097488
 30
0.0
 10
120.714486
 20
177.021754
 30
0.0
 10
122.521857
 20
176.796964
 30
0.0
 10
125.602970
 20
176.010051
 30
0.0
  0
SPLINE
  5
160
100
AcDbEntity
  8
0
 62
7
100
AcDbSpline
 70
8
 71
3
 72
8
 73
4
 74
0
 40
0
 40
0
 40
0
 40
0
 40
1
 40
1
 40
1
 40
1
 10
125.602970
 20
176.010051
 30
0.0
 10
129.651674
 20
174.976006
 30
0.0
 10
132.977608
 20
173.444212
 30
0.0
 10
135.929731
 20
171.253946
 30
0.0
  0
SPLINE
  5
161
100
AcDbEntity
  8
0
 62
7
100
AcDbSpline
 70
8
 71
3
 72
8
 73
4
 74
0
 40
0
 40
0
 40
0
 40
0
 40
1
 40
1
 40
1
 40
1
 10
135.929731
 20
171.253946
 30
0.0
 10
137.398533
 20
170.164196
 30
0.0
 10
139.839717
 20
167.679970
 30
0.0
 10
140.876209
 20
166.220251
 30
0.0
  0
SPLINE
  5
162
100
AcDbEntity
  8
0
 62
7
100
AcDbSpline
 70
8
 71
3
 72
8
 73
4
 74
0
 40
0
 40
0
 40
0
 40
0
 40
1
 40
1
 40
1
 40
1
 10
140.876209
 20
166.220251
 30
0.0
 10
141.837477
 20
164.866476
 30
0.0
 10
143.058338
 20
162.493971
 30
0.0
 10
143.548603
 20
161.026946
 30
0.0
  0
SPLINE
  5
163
100
AcDbEntity
  8
0
 62
7
100
AcDbSpline
 70
8
 71
3
 72
8
 73
4
 74
0
 40
0
 40
0
 40
0
 40
0
 40
1
 40
1
 40
1
 40
1
 10
143.548603
 20
161.026946
 30
0.0
 10
145.592221
 20
154.912116
 30
0.0
 10
144.905588
 20
148.059818
 30
0.0
 10
141.581844
 20
141.399158
 30
0.0
  0
SPLINE
  5
164
100
AcDbEntity
  8
0
 62
7
100
AcDbSpline
 70
8
 71
3
 72
8
 73
4
 74
0
 40
0
 40
0
 40
0
 40
0
 40
1
 40
1
 40
1
 40
1
 10
141.581844
 20
141.399158
 30
0.0
 10
139.899703
 20
138.028189
 30
0.0
 10
137.810513
 20
135.125569
 30
0.0
 10
134.960411
 20
132.199638
 30
0.0
  0
SPLINE
  5
165
100
AcDbEntity
  8
0
 62
7
100
AcDbSpline
 70
8
 71
3
 72
8
 73
4
 74
0
 40
0
 40
0
 40
0
 40
0
 40
1
 40
1
 40
1
 40
1
 10
134.960411
 20
132.199638
 30
0.0
 10
130.179520
 20
127.291553
 30
0.0
 10
124.562332
 20
123.629204
 30
0.0
 10
117.276971
 20
120.670255
 30
0.0
  0
SPLINE
  5
166
100
AcDbEntity
  8
0
 62
7
100
AcDbSpline
 70
8
 71
3
 72
8
 73
4
 74
0
 40
0
 40
0
 40
0
 40
0
 40
1
 40
1
 40
1
 40
1
 10
117.276971
 20
120.670255
 30
0.0
 10
113.003176
 20
118.934446
 30
0.0
 10
110.522678
 20
117.728967
 30
0.0
 10
107.900144
 20
116.113305
 30
0.0
  0
SPLINE
  5
167
100
AcDbEntity
  8
0
 62
7
100
AcDbSpline
 70
8
 71
3
 72
8
 73
4
 74
0
 40
0
 40
0
 40
0
 40
0
 40
1
 40
1
 40
1
 40
1
 10
107.900144
 20
116.113305
 30
0.0
 10
101.187937
 20
111.978084
 30
0.0
 10
97.438882
 20
107.182993
 30
0.0
 10
96.512488
 20
101.548318
 30
0.0
  0
SPLINE
  5
168
100
AcDbEntity
  8
0
 62
7
100
AcDbSpline
 70
8
 71
3
 72
8
 73
4
 74
0
 40
0
 40
0
 40
0
 40
0
 40
1
 40
1
 40
1
 40
1
 10
96.512488
 20
101.548318
 30
0.0
 10
96.227214
 20
99.813215
 30
0.0
 10
96.338816
 20
96.915313
 30
0.0
 10
96.759487
 20
95.134451
 30
0.0
  0
SPLINE
  5
169
100
AcDbEntity
  8
0
 62
7
100
AcDbSpline
 70
8
 71
3
 72
8
 73
4
 74
0
 40
0
 40
0
 40
0
 40
0
 40
1
 40
1
 40
1
 40
1
 10
96.759487
 20
95.134451
 30
0.0
 10
97.427071
 20
92.308328
 30
0.0
 10
98.766526
 20
89.214603
 30
0.0
 10
100.053092
 20
87.527291
 30
0.0
  0
SPLINE
  5
16a
100
AcDbEntity
  8
0
 62
7
100
AcDbSpline
 70
8
 71
3
 72
8
 73
4
 74
0
 40
0
 40
0
 40
0
 40
0
 40
1
 40
1
 40
1
 40
1
 10
100.053092
 20
87.527291
 30
0.0
 10
102.826981
 20
83.889345
 30
0.0
 10
108.745382
 20
80.468078
 30
0.0
 10
115.209258
 20
78.765916
 30
0.0
  0
SPLINE
  5
16b
100
AcDbEntity
  8
0
 62
7
100
AcDbSpline
 70
8
 71
3
 72
8
 73
4
 74
0
 40
0
 40
0
 40
0
 40
0
 40
1
 40
1
 40
1
 40
1
 10
115.209258
 20
78.765916
 30
0.0
 10
118.188273
 20
77.981426
 30
0.0
 10
120.276095
 20
77.686575
 30
0.0
 10
123.361155
 20
77.614619
 30
0.0
  0
SPLINE
  5
16c
100
AcDbEntity
  8
0
 62
7
100
AcDbSpline
 70
8
 71
3
 72
8
 73
4
 74
0
 40
0
 40
0
 40
0
 40
0
 40
1
 40
1
 40
1
 40
1
 10
123.361155
 20
77.614619
 30
0.0
 10
126.531829
 20
77.540670
 30
0.0
 10
128.519945
 20
77.732115
 30
0.0
 10
130.943253
 20
78.344689
 30
0.0
  0
SPLINE
  5
16d
100
AcDbEntity
  8
0
 62
7
100
AcDbSpline
 70
8
 71
3
 72
8
 73
4
 74
0
 40
0
 40
0
 40
0
 40
0
 40
1
 40
1
 40
1
 40
1
 10
130.943253
 20
78.344689
 30
0.0
 10
131.736273
 20
78.545161
 30
0.0
 10
132.413305
 20
78.706581
 30
0.0
 10
132.447788
 20
78.703419
 30
0.0
  0
SPLINE
  5
16e
100
AcDbEntity
  8
0
 62
7
100
AcDbSpline
 70
8
 71
3
 72
8
 73
4
 74
0
 40
0
 40
0
 40
0
 40
0
 40
1
 40
1
 40
1
 40
1
 10
132.447788
 20
78.703419
 30
0.0
 10
132.618711
 20
78.687729
 30
0.0
 10
130.292995
 20
77.882692
 30
0.0
 10
128.686421
 20
77.401455
 30
0.0
  0
SPLINE
  5
16f
100
AcDbEntity
  8
0
 62
7
100
AcDbSpline
 70
8
 71
3
 72
8
 73
4
 74
0
 40
0
 40
0
 40
0
 40
0
 40
1
 40
1
 40
1
 40
1
 10
128.686421
 20
77.401455
 30
0.0
 10
126.582857
 20
76.771341
 30
0.0
 10
123.878577
 20
76.181768
 30
0.0
 10
121.727909
 20
75.884395
 30
0.0
  0
SPLINE
  5
170
100
AcDbEntity
  8
0
 62
7
100
AcDbSpline
 70
8
 71
3
 72
8
 73
4
 74
0
 40
0
 40
0
 40
0
 40
0
 40
1
 40
1
 40
1
 40
1
 10
121.727909
 20
75.884395
 30
0.0
 10
119.635478
 20
75.595089
 30
0.0
 10
114.540963
 20
75.527996
 30
0.0
 10
112.670285
 20
75.765120
 30
0.0
  0
LINE
  5
171
100
AcDbEntity
  8
0
 62
7
100
AcDbLine
 10
112.670285
 20
75.765120
 30
0.0
 11
112.670285
 21
75.765120
 31
0.0
  0
SPLINE
  5
172
100
AcDbEntity
  8
0
 62
7
100
AcDbSpline
 70
8
 71
3
 72
8
 73
4
 74
0
 40
0
 40
0
 40
0
 40
0
 40
1
 40
1
 40
1
 40
1
 10
93.391095
 20
76.877421
 30
0.0
 10
91.279226
 20
77.998870
 30
0.0
 10
88.822466
 20
79.695233
 30
0.0
 10
87.955689
 20
80.630496
 30
0.0
  0
LINE
  5
173
100
AcDbEntity
  8
0
 62
7
100
AcDbLine
 10
87.955689
 20
80.630496
 30
0.0
 11
87.659546
 21
80.950030
 31
0.0
  0
LINE
  5
174
100
AcDbEntity
  8
0
 62
7
100
AcDbLine
 10
87.659546
 20
80.950030
 30
0.0
 11
88.081064
 21
81.014829
 31
0.0
  0
SPLINE
  5
175
100
AcDbEntity
  8
0
 62
7
100
AcDbSpline
 70
8
 71
3
 72
8
 73
4
 74
0
 40
0
 40
0
 40
0
 40
0
 40
1
 40
1
 40
1
 40
1
 10
88.081064
 20
81.014829
 30
0.0
 10
88.312905
 20
81.050461
 30
0.0
 10
88.951657
 20
81.114037
 30
0.0
 10
89.500525
 20
81.156127
 30
0.0
  0
SPLINE
  5
176
100
AcDbEntity
  8
0
 62
7
100
AcDbSpline
 70
8
 71
3
 72
8
 73
4
 74
0
 40
0
 40
0
 40
0
 40
0
 40
1
 40
1
 40
1
 40
1
 10
89.500525
 20
81.156127
 30
0.0
 10
90.801391
 20
81.255867
 30
0.0
 10
92.256303
 20
81.535826
 30
0.0
 10
93.475773
 20
81.921056
 30
0.0
  0
LINE
  5
177
100
AcDbEntity
  8
0
 62
7
100
AcDbLine
 10
93.475773
 20
81.921056
 30
0.0
 11
94.455382
 21
82.230510
 31
0.0
  0
LINE
  5
178
100
AcDbEntity
  8
0
 62
7
100
AcDbLine
 10
94.455382
 20
82.230510
 30
0.0
 11
95.369681
 21
81.467518
 31
0.0
  0
SPLINE
  5
179
100
AcDbEntity
  8
0
 62
7
100
AcDbSpline
 70
8
 71
3
 72
8
 73
4
 74
0
 40
0
 40
0
 40
0
 40
0
 40
1
 40
1
 40
1
 40
1
 10
95.369681
 20
81.467518
 30
0.0
 10
96.731537
 20
80.331024
 30
0.0
 10
98.368029
 20
79.190101
 30
0.0
 10
99.878977
 20
78.323747
 30
0.0
  0
SPLINE
  5
17a
100
AcDbEntity
  8
0
 62
7
100
AcDbSpline
 70
8
 71
3
 72
8
 73
4
 74
0
 40
0
 40
0
 40
0
 40
0
 40
1
 40
1
 40
1
 40
1
 10
99.878977
 20
78.323747
 30
0.0
 10
100.619324
 20
77.899242
 30
0.0
 10
101.197296
 20
77.506989
 30
0.0
 10
101.163350
 20
77.452072
 30
0.0
  0
SPLINE
  5
17b
100
AcDbEntity
  8
0
 62
7
100
AcDbSpline
 70
8
 71
3
 72
8
 73
4
 74
0
 40
0
 40
0
 40
0
 40
0
 40
1
 40
1
 40
1
 40
1
 10
101.163350
 20
77.452072
 30
0.0
 10
100.979795
 20
77.155056
 30
0.0
 10
97.028063
 20
76.456524
 30
0.0
 10
95.517522
 20
76.454072
 30
0.0
  0
SPLINE
  5
17c
100
AcDbEntity
  8
0
 62
7
100
AcDbSpline
 70
8
 71
3
 72
8
 73
4
 74
0
 40
0
 40
0
 40
0
 40
0
 40
1
 40
1
 40
1
 40
1
 10
95.517522
 20
76.454072
 30
0.0
 10
95.169286
 20
76.454072
 30
0.0
 10
94.830191
 20
76.398874
 30
0.0
 10
94.763992
 20
76.332662
 30
0.0
  0
SPLINE
  5
17d
100
AcDbEntity
  8
0
 62
7
100
AcDbSpline
 70
8
 71
3
 72
8
 73
4
 74
0
 40
0
 40
0
 40
0
 40
0
 40
1
 40
1
 40
1
 40
1
 10
94.763992
 20
76.332662
 30
0.0
 10
94.687080
 20
76.255753
 30
0.0
 10
94.191373
 20
76.452452
 30
0.0
 10
93.391095
 20
76.877421
 30
0.0
  0
LINE
  5
17e
100
AcDbEntity
  8
0
 62
7
100
AcDbLine
 10
93.391095
 20
76.877421
 30
0.0
 11
93.391095
 21
76.877421
 31
0.0
  0
SPLINE
  5
17f
100
AcDbEntity
  8
0
 62
7
100
AcDbSpline
 70
8
 71
3
 72
8
 73
4
 74
0
 40
0
 40
0
 40
0
 40
0
 40
1
 40
1
 40
1
 40
1
 10
128.435440
 20
79.672373
 30
0.0
 10
127.883053
 20
80.410907
 30
0.0
 10
126.977969
 20
81.034972
 30
0.0
 10
126.081199
 20
81.295674
 30
0.0
  0
SPLINE
  5
180
100
AcDbEntity
  8
0
 62
7
100
AcDbSpline
 70
8
 71
3
 72
8
 73
4
 74
0
 40
0
 40
0
 40
0
 40
0
 40
1
 40
1
 40
1
 40
1
 10
126.081199
 20
81.295674
 30
0.0
 10
125.549968
 20
81.450103
 30
0.0
 10
125.044323
 20
81.483158
 30
0.0
 10
123.933290
 20
81.436064
 30
0.0
  0
SPLINE
  5
181
100
AcDbEntity
  8
0
 62
7
100
AcDbSpline
 70
8
 71
3
 72
8
 73
4
 74
0
 40
0
 40
0
 40
0
 40
0
 40
1
 40
1
 40
1
 40
1
 10
123.933290
 20
81.436064
 30
0.0
 10
122.256504
 20
81.364974
 30
0.0
 10
121.302522
 20
81.092887
 30
0.0
 10
119.144469
 20
80.070240
 30
0.0
  0
LINE
  5
182
100
AcDbEntity
  8
0
 62
7
100
AcDbLine
 10
119.144469
 20
80.070240
 30
0.0
 11
117.814803
 21
79.440148
 31
0.0
  0
LINE
  5
183
100
AcDbEntity
  8
0
 62
7
100
AcDbLine
 10
117.814803
 20
79.440148
 30
0.0
 11
116.751861
 21
79.639321
 31
0.0
  0
SPLINE
  5
184
100
AcDbEntity
  8
0
 62
7
100
AcDbSpline
 70
8
 71
3
 72
8
 73
4
 74
0
 40
0
 40
0
 40
0
 40
0
 40
1
 40
1
 40
1
 40
1
 10
116.751861
 20
79.639321
 30
0.0
 10
115.287866
 20
79.913655
 30
0.0
 10
112.755354
 20
80.619182
 30
0.0
 10
111.508142
 20
81.100147
 30
0.0
  0
SPLINE
  5
185
100
AcDbEntity
  8
0
 62
7
100
AcDbSpline
 70
8
 71
3
 72
8
 73
4
 74
0
 40
0
 40
0
 40
0
 40
0
 40
1
 40
1
 40
1
 40
1
 10
111.508142
 20
81.100147
 30
0.0
 10
110.662198
 20
81.426370
 30
0.0
 10
110.510843
 20
81.523308
 30
0.0
 10
110.690421
 20
81.623813
 30
0.0
  0
SPLINE
  5
186
100
AcDbEntity
  8
0
 62
7
100
AcDbSpline
 70
8
 71
3
 72
8
 73
4
 74
0
 40
0
 40
0
 40
0
 40
0
 40
1
 40
1
 40
1
 40
1
 10
110.690421
 20
81.623813
 30
0.0
 10
111.073937
 20
81.838435
 30
0.0
 10
115.995557
 20
83.456158
 30
0.0
 10
117.640901
 20
83.908426
 30
0.0
  0
SPLINE
  5
187
100
AcDbEntity
  8
0
 62
7
100
AcDbSpline
 70
8
 71
3
 72
8
 73
4
 74
0
 40
0
 40
0
 40
0
 40
0
 40
1
 40
1
 40
1
 40
1
 10
117.640901
 20
83.908426
 30
0.0
 10
119.652348
 20
84.461308
 30
0.0
 10
122.156658
 20
85.018703
 30
0.0
 10
124.235500
 20
85.376202
 30
0.0
  0
SPLINE
  5
188
100
AcDbEntity
  8
0
 62
7
100
AcDbSpline
 70
8
 71
3
 72
8
 73
4
 74
0
 40
0
 40
0
 40
0
 40
0
 40
1
 40
1
 40
1
 40
1
 10
124.235500
 20
85.376202
 30
0.0
 10
126.427536
 20
85.753144
 30
0.0
 10
130.323692
 20
85.786463
 30
0.0
 10
131.558124
 20
85.438800
 30
0.0
  0
SPLINE
  5
189
100
AcDbEntity
  8
0
 62
7
100
AcDbSpline
 70
8
 71
3
 72
8
 73
4
 74
0
 40
0
 40
0
 40
0
 40
0
 40
1
 40
1
 40
1
 40
1
 10
131.558124
 20
85.438800
 30
0.0
 10
133.883639
 20
84.783835
 30
0.0
 10
134.920554
 20
83.690145
 30
0.0
 10
135.161772
 20
81.637767
 30
0.0
  0
LINE
  5
18a
100
AcDbEntity
  8
0
 62
7
100
AcDbLine
 10
135.161772
 20
81.637767
 30
0.0
 11
135.238123
 21
80.988098
 31
0.0
  0
LINE
  5
18b
100
AcDbEntity
  8
0
 62
7
100
AcDbLine
 10
135.238123
 20
80.988098
 30
0.0
 11
134.747517
 21
80.737808
 31
0.0
  0
SPLINE
  5
18c
100
AcDbEntity
  8
0
 62
7
100
AcDbSpline
 70
8
 71
3
 72
8
 73
4
 74
0
 40
0
 40
0
 40
0
 40
0
 40
1
 40
1
 40
1
 40
1
 10
134.747517
 20
80.737808
 30
0.0
 10
133.534746
 20
80.119101
 30
0.0
 10
130.087104
 20
79.096481
 30
0.0
 10
129.187698
 20
79.088694
 30
0.0
  0
SPLINE
  5
18d
100
AcDbEntity
  8
0
 62
7
100
AcDbSpline
 70
8
 71
3
 72
8
 73
4
 74
0
 40
0
 40
0
 40
0
 40
0
 40
1
 40
1
 40
1
 40
1
 10
129.187698
 20
79.088694
 30
0.0
 10
128.958677
 20
79.086578
 30
0.0
 10
128.755668
 20
79.244227
 30
0.0
 10
128.435440
 20
79.672373
 30
0.0
  0
LINE
  5
18e
100
AcDbEntity
  8
0
 62
7
100
AcDbLine
 10
128.435440
 20
79.672373
 30
0.0
 11
128.435440
 21
79.672373
 31
0.0
  0
SPLINE
  5
18f
100
AcDbEntity
  8
0
 62
7
100
AcDbSpline
 70
8
 71
3
 72
8
 73
4
 74
0
 40
0
 40
0
 40
0
 40
0
 40
1
 40
1
 40
1
 40
1
 10
137.034522
 20
82.001040
 30
0.0
 10
137.925073
 20
84.227501
 30
0.0
 10
138.203110
 20
87.014592
 30
0.0
 10
137.722225
 20
88.894811
 30
0.0
  0
SPLINE
  5
190
100
AcDbEntity
  8
0
 62
7
100
AcDbSpline
 70
8
 71
3
 72
8
 73
4
 74
0
 40
0
 40
0
 40
0
 40
0
 40
1
 40
1
 40
1
 40
1
 10
137.722225
 20
88.894811
 30
0.0
 10
137.341828
 20
90.382203
 30
0.0
 10
136.808483
 20
91.307864
 30
0.0
 10
135.701618
 20
92.401779
 30
0.0
  0
LINE
  5
191
100
AcDbEntity
  8
0
 62
7
100
AcDbLine
 10
135.701618
 20
92.401779
 30
0.0
 11
134.724186
 21
93.367780
 31
0.0
  0
LINE
  5
192
100
AcDbEntity
  8
0
 62
7
100
AcDbLine
 10
134.724186
 20
93.367780
 30
0.0
 11
135.372632
 21
93.112788
 31
0.0
  0
SPLINE
  5
193
100
AcDbEntity
  8
0
 62
7
100
AcDbSpline
 70
8
 71
3
 72
8
 73
4
 74
0
 40
0
 40
0
 40
0
 40
0
 40
1
 40
1
 40
1
 40
1
 10
135.372632
 20
93.112788
 30
0.0
 10
137.523581
 20
92.266981
 30
0.0
 10
139.304965
 20
90.555667
 30
0.0
 10
139.899965
 20
88.763578
 30
0.0
  0
SPLINE
  5
194
100
AcDbEntity
  8
0
 62
7
100
AcDbSpline
 70
8
 71
3
 72
8
 73
4
 74
0
 40
0
 40
0
 40
0
 40
0
 40
1
 40
1
 40
1
 40
1
 10
139.899965
 20
88.763578
 30
0.0
 10
140.219769
 20
87.800254
 30
0.0
 10
140.344415
 20
86.402431
 30
0.0
 10
140.209485
 20
85.292229
 30
0.0
  0
SPLINE
  5
195
100
AcDbEntity
  8
0
 62
7
100
AcDbSpline
 70
8
 71
3
 72
8
 73
4
 74
0
 40
0
 40
0
 40
0
 40
0
 40
1
 40
1
 40
1
 40
1
 10
140.209485
 20
85.292229
 30
0.0
 10
139.997837
 20
83.550665
 30
0.0
 10
139.814031
 20
83.100823
 30
0.0
 10
138.994881
 20
82.319495
 30
0.0
  0
SPLINE
  5
196
100
AcDbEntity
  8
0
 62
7
100
AcDbSpline
 70
8
 71
3
 72
8
 73
4
 74
0
 40
0
 40
0
 40
0
 40
0
 40
1
 40
1
 40
1
 40
1
 10
138.994881
 20
82.319495
 30
0.0
 10
138.303194
 20
81.659735
 30
0.0
 10
137.176320
 20
80.966667
 30
0.0
 10
136.795278
 20
80.966667
 30
0.0
  0
SPLINE
  5
197
100
AcDbEntity
  8
0
 62
7
100
AcDbSpline
 70
8
 71
3
 72
8
 73
4
 74
0
 40
0
 40
0
 40
0
 40
0
 40
1
 40
1
 40
1
 40
1
 10
136.795278
 20
80.966667
 30
0.0
 10
136.665561
 20
80.966667
 30
0.0
 10
136.726936
 20
81.232031
 30
0.0
 10
137.034522
 20
82.001040
 30
0.0
  0
LINE
  5
198
100
AcDbEntity
  8
0
 62
7
100
AcDbLine
 10
137.034522
 20
82.001040
 30
0.0
 11
137.034522
 21
82.001040
 31
0.0
  0
SPLINE
  5
199
100
AcDbEntity
  8
0
 62
7
100
AcDbSpline
 70
8
 71
3
 72
8
 73
4
 74
0
 40
0
 40
0
 40
0
 40
0
 40
1
 40
1
 40
1
 40
1
 10
109.306103
 20
83.447837
 30
0.0
 10
108.741437
 20
83.987055
 30
0.0
 10
107.810426
 20
84.700999
 30
0.0
 10
107.200855
 20
85.062240
 30
0.0
  0
SPLINE
  5
19a
100
AcDbEntity
  8
0
 62
7
100
AcDbSpline
 70
8
 71
3
 72
8
 73
4
 74
0
 40
0
 40
0
 40
0
 40
0
 40
1
 40
1
 40
1
 40
1
 10
107.200855
 20
85.062240
 30
0.0
 10
106.567811
 20
85.437379
 30
0.0
 10
106.167422
 20
85.746630
 30
0.0
 10
106.249260
 20
85.797210
 30
0.0
  0
SPLINE
  5
19b
100
AcDbEntity
  8
0
 62
7
100
AcDbSpline
 70
8
 71
3
 72
8
 73
4
 74
0
 40
0
 40
0
 40
0
 40
0
 40
1
 40
1
 40
1
 40
1
 10
106.249260
 20
85.797210
 30
0.0
 10
106.326979
 20
85.845242
 30
0.0
 10
107.448926
 20
85.914489
 30
0.0
 10
108.742484
 20
85.951105
 30
0.0
  0
SPLINE
  5
19c
100
AcDbEntity
  8
0
 62
7
100
AcDbSpline
 70
8
 71
3
 72
8
 73
4
 74
0
 40
0
 40
0
 40
0
 40
0
 40
1
 40
1
 40
1
 40
1
 10
108.742484
 20
85.951105
 30
0.0
 10
111.889605
 20
86.040195
 30
0.0
 10
113.960073
 20
85.768098
 30
0.0
 10
115.705283
 20
85.036062
 30
0.0
  0
LINE
  5
19d
100
AcDbEntity
  8
0
 62
7
100
AcDbLine
 10
115.705283
 20
85.036062
 30
0.0
 11
116.202350
 21
84.827578
 31
0.0
  0
LINE
  5
19e
100
AcDbEntity
  8
0
 62
7
100
AcDbLine
 10
116.202350
 20
84.827578
 30
0.0
 11
114.451507
 21
84.172171
 31
0.0
  0
SPLINE
  5
19f
100
AcDbEntity
  8
0
 62
7
100
AcDbSpline
 70
8
 71
3
 72
8
 73
4
 74
0
 40
0
 40
0
 40
0
 40
0
 40
1
 40
1
 40
1
 40
1
 10
114.451507
 20
84.172171
 30
0.0
 10
113.488548
 20
83.811700
 30
0.0
 10
112.199184
 20
83.281520
 30
0.0
 10
111.586245
 20
82.993992
 30
0.0
  0
SPLINE
  5
1a0
100
AcDbEntity
  8
0
 62
7
100
AcDbSpline
 70
8
 71
3
 72
8
 73
4
 74
0
 40
0
 40
0
 40
0
 40
0
 40
1
 40
1
 40
1
 40
1
 10
111.586245
 20
82.993992
 30
0.0
 10
110.973308
 20
82.706464
 30
0.0
 10
110.437307
 20
82.473430
 30
0.0
 10
110.395135
 20
82.476155
 30
0.0
  0
SPLINE
  5
1a1
100
AcDbEntity
  8
0
 62
7
100
AcDbSpline
 70
8
 71
3
 72
8
 73
4
 74
0
 40
0
 40
0
 40
0
 40
0
 40
1
 40
1
 40
1
 40
1
 10
110.395135
 20
82.476155
 30
0.0
 10
110.352963
 20
82.478880
 30
0.0
 10
109.862897
 20
82.916133
 30
0.0
 10
109.306103
 20
83.447837
 30
0.0
  0
LINE
  5
1a2
100
AcDbEntity
  8
0
 62
7
100
AcDbLine
 10
109.306103
 20
83.447837
 30
0.0
 11
109.306103
 21
83.447837
 31
0.0
  0
SPLINE
  5
1a3
100
AcDbEntity
  8
0
 62
7
100
AcDbSpline
 70
8
 71
3
 72
8
 73
4
 74
0
 40
0
 40
0
 40
0
 40
0
 40
1
 40
1
 40
1
 40
1
 10
85.141403
 20
83.630968
 30
0.0
 10
84.287593
 20
84.635345
 30
0.0
 10
83.014418
 20
86.670652
 30
0.0
 10
82.108881
 20
88.478794
 30
0.0
  0
SPLINE
  5
1a4
100
AcDbEntity
  8
0
 62
7
100
AcDbSpline
 70
8
 71
3
 72
8
 73
4
 74
0
 40
0
 40
0
 40
0
 40
0
 40
1
 40
1
 40
1
 40
1
 10
82.108881
 20
88.478794
 30
0.0
 10
81.660323
 20
89.374459
 30
0.0
 10
81.293317
 20
90.155985
 30
0.0
 10
81.293317
 20
90.215497
 30
0.0
  0
SPLINE
  5
1a5
100
AcDbEntity
  8
0
 62
7
100
AcDbSpline
 70
8
 71
3
 72
8
 73
4
 74
0
 40
0
 40
0
 40
0
 40
0
 40
1
 40
1
 40
1
 40
1
 10
81.293317
 20
90.215497
 30
0.0
 10
81.293317
 20
90.275031
 30
0.0
 10
81.730575
 20
90.245186
 30
0.0
 10
82.265007
 20
90.149185
 30
0.0
  0
SPLINE
  5
1a6
100
AcDbEntity
  8
0
 62
7
100
AcDbSpline
 70
8
 71
3
 72
8
 73
4
 74
0
 40
0
 40
0
 40
0
 40
0
 40
1
 40
1
 40
1
 40
1
 10
82.265007
 20
90.149185
 30
0.0
 10
83.488369
 20
89.929446
 30
0.0
 10
85.932603
 20
90.021026
 30
0.0
 10
87.478351
 20
90.344514
 30
0.0
  0
LINE
  5
1a7
100
AcDbEntity
  8
0
 62
7
100
AcDbLine
 10
87.478351
 20
90.344514
 30
0.0
 11
88.585556
 21
90.576222
 31
0.0
  0
LINE
  5
1a8
100
AcDbEntity
  8
0
 62
7
100
AcDbLine
 10
88.585556
 20
90.576222
 30
0.0
 11
89.281547
 21
89.188007
 31
0.0
  0
SPLINE
  5
1a9
100
AcDbEntity
  8
0
 62
7
100
AcDbSpline
 70
8
 71
3
 72
8
 73
4
 74
0
 40
0
 40
0
 40
0
 40
0
 40
1
 40
1
 40
1
 40
1
 10
89.281547
 20
89.188007
 30
0.0
 10
90.070905
 20
87.613609
 30
0.0
 10
91.008829
 20
86.143602
 30
0.0
 10
92.100609
 20
84.769701
 30
0.0
  0
SPLINE
  5
1aa
100
AcDbEntity
  8
0
 62
7
100
AcDbSpline
 70
8
 71
3
 72
8
 73
4
 74
0
 40
0
 40
0
 40
0
 40
0
 40
1
 40
1
 40
1
 40
1
 10
92.100609
 20
84.769701
 30
0.0
 10
92.511859
 20
84.252194
 30
0.0
 10
92.829695
 20
83.810441
 30
0.0
 10
92.806901
 20
83.788051
 30
0.0
  0
SPLINE
  5
1ab
100
AcDbEntity
  8
0
 62
7
100
AcDbSpline
 70
8
 71
3
 72
8
 73
4
 74
0
 40
0
 40
0
 40
0
 40
0
 40
1
 40
1
 40
1
 40
1
 10
92.806901
 20
83.788051
 30
0.0
 10
92.784094
 20
83.765668
 30
0.0
 10
92.403043
 20
83.653593
 30
0.0
 10
91.960086
 20
83.539023
 30
0.0
  0
SPLINE
  5
1ac
100
AcDbEntity
  8
0
 62
7
100
AcDbSpline
 70
8
 71
3
 72
8
 73
4
 74
0
 40
0
 40
0
 40
0
 40
0
 40
1
 40
1
 40
1
 40
1
 10
91.960086
 20
83.539023
 30
0.0
 10
90.719751
 20
83.218216
 30
0.0
 10
88.648916
 20
82.977884
 30
0.0
 10
87.101775
 20
82.975175
 30
0.0
  0
LINE
  5
1ad
100
AcDbEntity
  8
0
 62
7
100
AcDbLine
 10
87.101775
 20
82.975175
 30
0.0
 11
85.700960
 21
82.972529
 31
0.0
  0
LINE
  5
1ae
100
AcDbEntity
  8
0
 62
7
100
AcDbLine
 10
85.700960
 20
82.972529
 30
0.0
 11
85.141403
 21
83.630765
 31
0.0
  0
LINE
  5
1af
100
AcDbEntity
  8
0
 62
7
100
AcDbLine
 10
85.141403
 20
83.630765
 30
0.0
 11
85.141403
 21
83.630968
 31
0.0
  0
SPLINE
  5
1b0
100
AcDbEntity
  8
0
 62
7
100
AcDbSpline
 70
8
 71
3
 72
8
 73
4
 74
0
 40
0
 40
0
 40
0
 40
0
 40
1
 40
1
 40
1
 40
1
 10
135.716977
 20
84.083686
 30
0.0
 10
135.463882
 20
84.556600
 30
0.0
 10
134.679196
 20
85.367812
 30
0.0
 10
134.154406
 20
85.699094
 30
0.0
  0
SPLINE
  5
1b1
100
AcDbEntity
  8
0
 62
7
100
AcDbSpline
 70
8
 71
3
 72
8
 73
4
 74
0
 40
0
 40
0
 40
0
 40
0
 40
1
 40
1
 40
1
 40
1
 10
134.154406
 20
85.699094
 30
0.0
 10
133.440518
 20
86.149762
 30
0.0
 10
132.435487
 20
86.462632
 30
0.0
 10
131.400384
 20
86.556421
 30
0.0
  0
LINE
  5
1b2
100
AcDbEntity
  8
0
 62
7
100
AcDbLine
 10
131.400384
 20
86.556421
 30
0.0
 11
130.490369
 21
86.638889
 31
0.0
  0
LINE
  5
1b3
100
AcDbEntity
  8
0
 62
7
100
AcDbLine
 10
130.490369
 20
86.638889
 30
0.0
 11
130.121264
 21
87.344454
 31
0.0
  0
SPLINE
  5
1b4
100
AcDbEntity
  8
0
 62
7
100
AcDbSpline
 70
8
 71
3
 72
8
 73
4
 74
0
 40
0
 40
0
 40
0
 40
0
 40
1
 40
1
 40
1
 40
1
 10
130.121264
 20
87.344454
 30
0.0
 10
129.023717
 20
89.442427
 30
0.0
 10
126.959732
 20
91.607200
 30
0.0
 10
124.799705
 20
92.925894
 30
0.0
  0
LINE
  5
1b5
100
AcDbEntity
  8
0
 62
7
100
AcDbLine
 10
124.799705
 20
92.925894
 30
0.0
 11
124.235500
 21
93.270334
 31
0.0
  0
LINE
  5
1b6
100
AcDbEntity
  8
0
 62
7
100
AcDbLine
 10
124.235500
 20
93.270334
 30
0.0
 11
124.674314
 21
93.183813
 31
0.0
  0
SPLINE
  5
1b7
100
AcDbEntity
  8
0
 62
7
100
AcDbSpline
 70
8
 71
3
 72
8
 73
4
 74
0
 40
0
 40
0
 40
0
 40
0
 40
1
 40
1
 40
1
 40
1
 10
124.674314
 20
93.183813
 30
0.0
 10
126.174541
 20
92.887980
 30
0.0
 10
130.331484
 20
91.202705
 30
0.0
 10
132.052355
 20
90.192656
 30
0.0
  0
SPLINE
  5
1b8
100
AcDbEntity
  8
0
 62
7
100
AcDbSpline
 70
8
 71
3
 72
8
 73
4
 74
0
 40
0
 40
0
 40
0
 40
0
 40
1
 40
1
 40
1
 40
1
 10
132.052355
 20
90.192656
 30
0.0
 10
133.964964
 20
89.070079
 30
0.0
 10
135.489649
 20
87.555401
 30
0.0
 10
135.890115
 20
86.380116
 30
0.0
  0
SPLINE
  5
1b9
100
AcDbEntity
  8
0
 62
7
100
AcDbSpline
 70
8
 71
3
 72
8
 73
4
 74
0
 40
0
 40
0
 40
0
 40
0
 40
1
 40
1
 40
1
 40
1
 10
135.890115
 20
86.380116
 30
0.0
 10
136.091979
 20
85.787711
 30
0.0
 10
136.136585
 20
84.469488
 30
0.0
 10
135.969265
 20
84.041239
 30
0.0
  0
SPLINE
  5
1ba
100
AcDbEntity
  8
0
 62
7
100
AcDbSpline
 70
8
 71
3
 72
8
 73
4
 74
0
 40
0
 40
0
 40
0
 40
0
 40
1
 40
1
 40
1
 40
1
 10
135.969265
 20
84.041239
 30
0.0
 10
135.875883
 20
83.802260
 30
0.0
 10
135.866763
 20
83.803784
 30
0.0
 10
135.716977
 20
84.083686
 30
0.0
  0
LINE
  5
1bb
100
AcDbEntity
  8
0
 62
7
100
AcDbLine
 10
135.716977
 20
84.083686
 30
0.0
 11
135.716977
 21
84.083686
 31
0.0
  0
SPLINE
  5
1bc
100
AcDbEntity
  8
0
 62
7
100
AcDbSpline
 70
8
 71
3
 72
8
 73
4
 74
0
 40
0
 40
0
 40
0
 40
0
 40
1
 40
1
 40
1
 40
1
 10
118.809565
 20
86.254376
 30
0.0
 10
118.272297
 20
87.454182
 30
0.0
 10
116.883287
 20
88.922344
 30
0.0
 10
115.716795
 20
89.523400
 30
0.0
  0
SPLINE
  5
1bd
100
AcDbEntity
  8
0
 62
7
100
AcDbSpline
 70
8
 71
3
 72
8
 73
4
 74
0
 40
0
 40
0
 40
0
 40
0
 40
1
 40
1
 40
1
 40
1
 10
115.716795
 20
89.523400
 30
0.0
 10
115.437091
 20
89.667516
 30
0.0
 10
114.841506
 20
89.918426
 30
0.0
 10
114.393270
 20
90.080962
 30
0.0
  0
LINE
  5
1be
100
AcDbEntity
  8
0
 62
7
100
AcDbLine
 10
114.393270
 20
90.080962
 30
0.0
 11
113.578308
 21
90.376494
 31
0.0
  0
LINE
  5
1bf
100
AcDbEntity
  8
0
 62
7
100
AcDbLine
 10
113.578308
 20
90.376494
 30
0.0
 11
115.270917
 21
90.320900
 31
0.0
  0
SPLINE
  5
1c0
100
AcDbEntity
  8
0
 62
7
100
AcDbSpline
 70
8
 71
3
 72
8
 73
4
 74
0
 40
0
 40
0
 40
0
 40
0
 40
1
 40
1
 40
1
 40
1
 10
115.270917
 20
90.320900
 30
0.0
 10
118.028925
 20
90.230327
 30
0.0
 10
120.685821
 20
89.547226
 30
0.0
 10
123.221050
 20
88.276885
 30
0.0
  0
SPLINE
  5
1c1
100
AcDbEntity
  8
0
 62
7
100
AcDbSpline
 70
8
 71
3
 72
8
 73
4
 74
0
 40
0
 40
0
 40
0
 40
0
 40
1
 40
1
 40
1
 40
1
 10
123.221050
 20
88.276885
 30
0.0
 10
124.378483
 20
87.696902
 30
0.0
 10
126.053481
 20
86.671745
 30
0.0
 10
126.053481
 20
86.543324
 30
0.0
  0
SPLINE
  5
1c2
100
AcDbEntity
  8
0
 62
7
100
AcDbSpline
 70
8
 71
3
 72
8
 73
4
 74
0
 40
0
 40
0
 40
0
 40
0
 40
1
 40
1
 40
1
 40
1
 10
126.053481
 20
86.543324
 30
0.0
 10
126.053481
 20
86.504571
 30
0.0
 10
125.644438
 20
86.509423
 30
0.0
 10
125.144492
 20
86.554119
 30
0.0
  0
SPLINE
  5
1c3
100
AcDbEntity
  8
0
 62
7
100
AcDbSpline
 70
8
 71
3
 72
8
 73
4
 74
0
 40
0
 40
0
 40
0
 40
0
 40
1
 40
1
 40
1
 40
1
 10
125.144492
 20
86.554119
 30
0.0
 10
123.920386
 20
86.663501
 30
0.0
 10
120.302344
 20
86.195342
 30
0.0
 10
119.261786
 20
85.792934
 30
0.0
  0
SPLINE
  5
1c4
100
AcDbEntity
  8
0
 62
7
100
AcDbSpline
 70
8
 71
3
 72
8
 73
4
 74
0
 40
0
 40
0
 40
0
 40
0
 40
1
 40
1
 40
1
 40
1
 10
119.261786
 20
85.792934
 30
0.0
 10
119.102700
 20
85.731405
 30
0.0
 10
118.994157
 20
85.842171
 30
0.0
 10
118.809565
 20
86.254386
 30
0.0
  0
LINE
  5
1c5
100
AcDbEntity
  8
0
 62
7
100
AcDbLine
 10
118.809565
 20
86.254386
 30
0.0
 11
118.809565
 21
86.254376
 31
0.0
  0
SPLINE
  5
1c6
100
AcDbEntity
  8
0
 62
7
100
AcDbSpline
 70
8
 71
3
 72
8
 73
4
 74
0
 40
0
 40
0
 40
0
 40
0
 40
1
 40
1
 40
1
 40
1
 10
100.564148
 20
89.059962
 30
0.0
 10
100.028951
 20
89.864311
 30
0.0
 10
99.341508
 20
91.038230
 30
0.0
 10
99.036489
 20
91.668690
 30
0.0
  0
SPLINE
  5
1c7
100
AcDbEntity
  8
0
 62
7
100
AcDbSpline
 70
8
 71
3
 72
8
 73
4
 74
0
 40
0
 40
0
 40
0
 40
0
 40
1
 40
1
 40
1
 40
1
 10
99.036489
 20
91.668690
 30
0.0
 10
98.449323
 20
92.882312
 30
0.0
 10
97.843292
 20
94.784497
 30
0.0
 10
97.843292
 20
95.413856
 30
0.0
  0
SPLINE
  5
1c8
100
AcDbEntity
  8
0
 62
7
100
AcDbSpline
 70
8
 71
3
 72
8
 73
4
 74
0
 40
0
 40
0
 40
0
 40
0
 40
1
 40
1
 40
1
 40
1
 10
97.843292
 20
95.413856
 30
0.0
 10
97.843292
 20
95.743633
 30
0.0
 10
97.878460
 20
95.781058
 30
0.0
 10
98.125393
 20
95.714087
 30
0.0
  0
SPLINE
  5
1c9
100
AcDbEntity
  8
0
 62
7
100
AcDbSpline
 70
8
 71
3
 72
8
 73
4
 74
0
 40
0
 40
0
 40
0
 40
0
 40
1
 40
1
 40
1
 40
1
 10
98.125393
 20
95.714087
 30
0.0
 10
99.592981
 20
95.316116
 30
0.0
 10
100.680213
 20
95.205616
 30
0.0
 10
103.109193
 20
95.207582
 30
0.0
  0
SPLINE
  5
1ca
100
AcDbEntity
  8
0
 62
7
100
AcDbSpline
 70
8
 71
3
 72
8
 73
4
 74
0
 40
0
 40
0
 40
0
 40
0
 40
1
 40
1
 40
1
 40
1
 10
103.109193
 20
95.207582
 30
0.0
 10
106.273438
 20
95.210227
 30
0.0
 10
108.354539
 20
95.555763
 30
0.0
 10
110.953703
 20
96.510348
 30
0.0
  0
SPLINE
  5
1cb
100
AcDbEntity
  8
0
 62
7
100
AcDbSpline
 70
8
 71
3
 72
8
 73
4
 74
0
 40
0
 40
0
 40
0
 40
0
 40
1
 40
1
 40
1
 40
1
 10
110.953703
 20
96.510348
 30
0.0
 10
111.537995
 20
96.724933
 30
0.0
 10
111.668678
 20
96.729796
 30
0.0
 10
112.583626
 20
96.570990
 30
0.0
  0
SPLINE
  5
1cc
100
AcDbEntity
  8
0
 62
7
100
AcDbSpline
 70
8
 71
3
 72
8
 73
4
 74
0
 40
0
 40
0
 40
0
 40
0
 40
1
 40
1
 40
1
 40
1
 10
112.583626
 20
96.570990
 30
0.0
 10
113.752595
 20
96.368092
 30
0.0
 10
115.502694
 20
95.874678
 30
0.0
 10
116.649901
 20
95.424556
 30
0.0
  0
SPLINE
  5
1cd
100
AcDbEntity
  8
0
 62
7
100
AcDbSpline
 70
8
 71
3
 72
8
 73
4
 74
0
 40
0
 40
0
 40
0
 40
0
 40
1
 40
1
 40
1
 40
1
 10
116.649901
 20
95.424556
 30
0.0
 10
117.615577
 20
95.045646
 30
0.0
 10
119.408412
 20
94.118969
 30
0.0
 10
119.408412
 20
93.998737
 30
0.0
  0
SPLINE
  5
1ce
100
AcDbEntity
  8
0
 62
7
100
AcDbSpline
 70
8
 71
3
 72
8
 73
4
 74
0
 40
0
 40
0
 40
0
 40
0
 40
1
 40
1
 40
1
 40
1
 10
119.408412
 20
93.998737
 30
0.0
 10
119.408412
 20
93.952322
 30
0.0
 10
119.168623
 20
93.963418
 30
0.0
 10
118.875552
 20
94.023397
 30
0.0
  0
SPLINE
  5
1cf
100
AcDbEntity
  8
0
 62
7
100
AcDbSpline
 70
8
 71
3
 72
8
 73
4
 74
0
 40
0
 40
0
 40
0
 40
0
 40
1
 40
1
 40
1
 40
1
 10
118.875552
 20
94.023397
 30
0.0
 10
118.582479
 20
94.083380
 30
0.0
 10
117.378042
 20
94.168698
 30
0.0
 10
116.199009
 20
94.212989
 30
0.0
  0
SPLINE
  5
1d0
100
AcDbEntity
  8
0
 62
7
100
AcDbSpline
 70
8
 71
3
 72
8
 73
4
 74
0
 40
0
 40
0
 40
0
 40
0
 40
1
 40
1
 40
1
 40
1
 10
116.199009
 20
94.212989
 30
0.0
 10
111.284900
 20
94.397576
 30
0.0
 10
108.100256
 20
93.555634
 30
0.0
 10
104.326464
 20
91.074192
 30
0.0
  0
SPLINE
  5
1d1
100
AcDbEntity
  8
0
 62
7
100
AcDbSpline
 70
8
 71
3
 72
8
 73
4
 74
0
 40
0
 40
0
 40
0
 40
0
 40
1
 40
1
 40
1
 40
1
 10
104.326464
 20
91.074192
 30
0.0
 10
102.711514
 20
90.012284
 30
0.0
 10
101.953620
 20
89.211002
 30
0.0
 10
101.726010
 20
88.324862
 30
0.0
  0
SPLINE
  5
1d2
100
AcDbEntity
  8
0
 62
7
100
AcDbSpline
 70
8
 71
3
 72
8
 73
4
 74
0
 40
0
 40
0
 40
0
 40
0
 40
1
 40
1
 40
1
 40
1
 10
101.726010
 20
88.324862
 30
0.0
 10
101.651837
 20
88.036088
 30
0.0
 10
101.579018
 20
87.754296
 30
0.0
 10
101.564188
 20
87.698654
 30
0.0
  0
SPLINE
  5
1d3
100
AcDbEntity
  8
0
 62
7
100
AcDbSpline
 70
8
 71
3
 72
8
 73
4
 74
0
 40
0
 40
0
 40
0
 40
0
 40
1
 40
1
 40
1
 40
1
 10
101.564188
 20
87.698654
 30
0.0
 10
101.549345
 20
87.643025
 30
0.0
 10
101.099339
 20
88.255607
 30
0.0
 10
100.564148
 20
89.059964
 30
0.0
  0
LINE
  5
1d4
100
AcDbEntity
  8
0
 62
7
100
AcDbLine
 10
100.564148
 20
89.059964
 30
0.0
 11
100.564148
 21
89.059962
 31
0.0
  0
SPLINE
  5
1d5
100
AcDbEntity
  8
0
 62
7
100
AcDbSpline
 70
8
 71
3
 72
8
 73
4
 74
0
 40
0
 40
0
 40
0
 40
0
 40
1
 40
1
 40
1
 40
1
 10
83.161706
 20
92.004851
 30
0.0
 10
82.163264
 20
92.096441
 30
0.0
 10
80.644614
 20
92.535004
 30
0.0
 10
80.440599
 20
92.790666
 30
0.0
  0
SPLINE
  5
1d6
100
AcDbEntity
  8
0
 62
7
100
AcDbSpline
 70
8
 71
3
 72
8
 73
4
 74
0
 40
0
 40
0
 40
0
 40
0
 40
1
 40
1
 40
1
 40
1
 10
80.440599
 20
92.790666
 30
0.0
 10
80.108547
 20
93.206784
 30
0.0
 10
79.359961
 20
97.204778
 30
0.0
 10
79.205492
 20
99.387072
 30
0.0
  0
SPLINE
  5
1d7
100
AcDbEntity
  8
0
 62
7
100
AcDbSpline
 70
8
 71
3
 72
8
 73
4
 74
0
 40
0
 40
0
 40
0
 40
0
 40
1
 40
1
 40
1
 40
1
 10
79.205492
 20
99.387072
 30
0.0
 10
79.125543
 20
100.516496
 30
0.0
 10
79.132332
 20
100.563558
 30
0.0
 10
79.361305
 20
100.468284
 30
0.0
  0
SPLINE
  5
1d8
100
AcDbEntity
  8
0
 62
7
100
AcDbSpline
 70
8
 71
3
 72
8
 73
4
 74
0
 40
0
 40
0
 40
0
 40
0
 40
1
 40
1
 40
1
 40
1
 10
79.361305
 20
100.468284
 30
0.0
 10
81.045960
 20
99.767326
 30
0.0
 10
83.178735
 20
99.460587
 30
0.0
 10
85.033612
 20
99.652491
 30
0.0
  0
SPLINE
  5
1d9
100
AcDbEntity
  8
0
 62
7
100
AcDbSpline
 70
8
 71
3
 72
8
 73
4
 74
0
 40
0
 40
0
 40
0
 40
0
 40
1
 40
1
 40
1
 40
1
 10
85.033612
 20
99.652491
 30
0.0
 10
85.676004
 20
99.718944
 30
0.0
 10
86.338481
 20
99.807685
 30
0.0
 10
86.505788
 20
99.849680
 30
0.0
  0
SPLINE
  5
1da
100
AcDbEntity
  8
0
 62
7
100
AcDbSpline
 70
8
 71
3
 72
8
 73
4
 74
0
 40
0
 40
0
 40
0
 40
0
 40
1
 40
1
 40
1
 40
1
 10
86.505788
 20
99.849680
 30
0.0
 10
86.796568
 20
99.922660
 30
0.0
 10
86.809979
 20
99.899125
 30
0.0
 10
86.809979
 20
99.316113
 30
0.0
  0
SPLINE
  5
1db
100
AcDbEntity
  8
0
 62
7
100
AcDbSpline
 70
8
 71
3
 72
8
 73
4
 74
0
 40
0
 40
0
 40
0
 40
0
 40
1
 40
1
 40
1
 40
1
 10
86.809979
 20
99.316113
 30
0.0
 10
86.809979
 20
97.872354
 30
0.0
 10
87.480582
 20
93.720811
 30
0.0
 10
87.873247
 20
92.733606
 30
0.0
  0
SPLINE
  5
1dc
100
AcDbEntity
  8
0
 62
7
100
AcDbSpline
 70
8
 71
3
 72
8
 73
4
 74
0
 40
0
 40
0
 40
0
 40
0
 40
1
 40
1
 40
1
 40
1
 10
87.873247
 20
92.733606
 30
0.0
 10
87.982121
 20
92.459892
 30
0.0
 10
87.911371
 20
92.426837
 30
0.0
 10
86.742942
 20
92.205569
 30
0.0
  0
SPLINE
  5
1dd
100
AcDbEntity
  8
0
 62
7
100
AcDbSpline
 70
8
 71
3
 72
8
 73
4
 74
0
 40
0
 40
0
 40
0
 40
0
 40
1
 40
1
 40
1
 40
1
 10
86.742942
 20
92.205569
 30
0.0
 10
85.439716
 20
91.958773
 30
0.0
 10
84.337467
 20
91.897004
 30
0.0
 10
83.161706
 20
92.004851
 30
0.0
  0
LINE
  5
1de
100
AcDbEntity
  8
0
 62
7
100
AcDbLine
 10
83.161706
 20
92.004851
 30
0.0
 11
83.161706
 21
92.004851
 31
0.0
  0
SPLINE
  5
1df
100
AcDbEntity
  8
0
 62
7
100
AcDbSpline
 70
8
 71
3
 72
8
 73
4
 74
0
 40
0
 40
0
 40
0
 40
0
 40
1
 40
1
 40
1
 40
1
 10
100.609217
 20
96.139383
 30
0.0
 10
99.502653
 20
96.294916
 30
0.0
 10
98.132108
 20
96.726324
 30
0.0
 10
97.850758
 20
97.007674
 30
0.0
  0
SPLINE
  5
1e0
100
AcDbEntity
  8
0
 62
7
100
AcDbSpline
 70
8
 71
3
 72
8
 73
4
 74
0
 40
0
 40
0
 40
0
 40
0
 40
1
 40
1
 40
1
 40
1
 10
97.850758
 20
97.007674
 30
0.0
 10
97.420742
 20
97.437680
 30
0.0
 10
97.352463
 20
100.271611
 30
0.0
 10
97.729746
 20
102.030799
 30
0.0
  0
LINE
  5
1e1
100
AcDbEntity
  8
0
 62
7
100
AcDbLine
 10
97.729746
 20
102.030799
 30
0.0
 11
97.865879
 21
102.665603
 31
0.0
  0
LINE
  5
1e2
100
AcDbEntity
  8
0
 62
7
100
AcDbLine
 10
97.865879
 20
102.665603
 30
0.0
 11
98.928377
 21
101.536923
 31
0.0
  0
SPLINE
  5
1e3
100
AcDbEntity
  8
0
 62
7
100
AcDbSpline
 70
8
 71
3
 72
8
 73
4
 74
0
 40
0
 40
0
 40
0
 40
0
 40
1
 40
1
 40
1
 40
1
 10
98.928377
 20
101.536923
 30
0.0
 10
99.512752
 20
100.916147
 30
0.0
 10
100.368076
 20
100.121571
 30
0.0
 10
100.829104
 20
99.771218
 30
0.0
  0
SPLINE
  5
1e4
100
AcDbEntity
  8
0
 62
7
100
AcDbSpline
 70
8
 71
3
 72
8
 73
4
 74
0
 40
0
 40
0
 40
0
 40
0
 40
1
 40
1
 40
1
 40
1
 10
100.829104
 20
99.771218
 30
0.0
 10
101.912028
 20
98.948242
 30
0.0
 10
104.156636
 20
97.847509
 30
0.0
 10
105.409330
 20
97.525133
 30
0.0
  0
SPLINE
  5
1e5
100
AcDbEntity
  8
0
 62
7
100
AcDbSpline
 70
8
 71
3
 72
8
 73
4
 74
0
 40
0
 40
0
 40
0
 40
0
 40
1
 40
1
 40
1
 40
1
 10
105.409330
 20
97.525133
 30
0.0
 10
106.542503
 20
97.233507
 30
0.0
 10
108.856499
 20
96.970474
 30
0.0
 10
109.204508
 20
97.093735
 30
0.0
  0
SPLINE
  5
1e6
100
AcDbEntity
  8
0
 62
7
100
AcDbSpline
 70
8
 71
3
 72
8
 73
4
 74
0
 40
0
 40
0
 40
0
 40
0
 40
1
 40
1
 40
1
 40
1
 10
109.204508
 20
97.093735
 30
0.0
 10
109.362004
 20
97.149496
 30
0.0
 10
109.399003
 20
97.135616
 30
0.0
 10
109.315442
 20
97.052095
 30
0.0
  0
SPLINE
  5
1e7
100
AcDbEntity
  8
0
 62
7
100
AcDbSpline
 70
8
 71
3
 72
8
 73
4
 74
0
 40
0
 40
0
 40
0
 40
0
 40
1
 40
1
 40
1
 40
1
 10
109.315442
 20
97.052095
 30
0.0
 10
109.168091
 20
96.904802
 30
0.0
 10
107.695568
 20
96.588103
 30
0.0
 10
105.930212
 20
96.324028
 30
0.0
  0
SPLINE
  5
1e8
100
AcDbEntity
  8
0
 62
7
100
AcDbSpline
 70
8
 71
3
 72
8
 73
4
 74
0
 40
0
 40
0
 40
0
 40
0
 40
1
 40
1
 40
1
 40
1
 10
105.930212
 20
96.324028
 30
0.0
 10
104.335161
 20
96.085435
 30
0.0
 10
101.654866
 20
95.992428
 30
0.0
 10
100.609217
 20
96.139383
 30
0.0
  0
LINE
  5
1e9
100
AcDbEntity
  8
0
 62
7
100
AcDbLine
 10
100.609217
 20
96.139383
 30
0.0
 11
100.609217
 21
96.139383
 31
0.0
  0
SPLINE
  5
1ea
100
AcDbEntity
  8
0
 62
7
100
AcDbSpline
 70
8
 71
3
 72
8
 73
4
 74
0
 40
0
 40
0
 40
0
 40
0
 40
1
 40
1
 40
1
 40
1
 10
82.108281
 20
101.705348
 30
0.0
 10
81.177149
 20
101.887030
 30
0.0
 10
79.617200
 20
102.435371
 30
0.0
 10
79.312831
 20
102.687974
 30
0.0
  0
SPLINE
  5
1eb
100
AcDbEntity
  8
0
 62
7
100
AcDbSpline
 70
8
 71
3
 72
8
 73
4
 74
0
 40
0
 40
0
 40
0
 40
0
 40
1
 40
1
 40
1
 40
1
 10
79.312831
 20
102.687974
 30
0.0
 10
78.883716
 20
103.044108
 30
0.0
 10
79.684970
 20
108.123926
 30
0.0
 10
80.623090
 20
110.994848
 30
0.0
  0
SPLINE
  5
1ec
100
AcDbEntity
  8
0
 62
7
100
AcDbSpline
 70
8
 71
3
 72
8
 73
4
 74
0
 40
0
 40
0
 40
0
 40
0
 40
1
 40
1
 40
1
 40
1
 10
80.623090
 20
110.994848
 30
0.0
 10
80.803353
 20
111.546507
 30
0.0
 10
80.973967
 20
112.038822
 30
0.0
 10
81.002217
 20
112.088860
 30
0.0
  0
SPLINE
  5
1ed
100
AcDbEntity
  8
0
 62
7
100
AcDbSpline
 70
8
 71
3
 72
8
 73
4
 74
0
 40
0
 40
0
 40
0
 40
0
 40
1
 40
1
 40
1
 40
1
 10
81.002217
 20
112.088860
 30
0.0
 10
81.030472
 20
112.138904
 30
0.0
 10
81.357608
 20
111.932216
 30
0.0
 10
81.729191
 20
111.629559
 30
0.0
  0
SPLINE
  5
1ee
100
AcDbEntity
  8
0
 62
7
100
AcDbSpline
 70
8
 71
3
 72
8
 73
4
 74
0
 40
0
 40
0
 40
0
 40
0
 40
1
 40
1
 40
1
 40
1
 10
81.729191
 20
111.629559
 30
0.0
 10
83.204849
 20
110.427616
 30
0.0
 10
85.155310
 20
109.612596
 30
0.0
 10
87.469440
 20
109.230932
 30
0.0
  0
SPLINE
  5
1ef
100
AcDbEntity
  8
0
 62
7
100
AcDbSpline
 70
8
 71
3
 72
8
 73
4
 74
0
 40
0
 40
0
 40
0
 40
0
 40
1
 40
1
 40
1
 40
1
 10
87.469440
 20
109.230932
 30
0.0
 10
88.175587
 20
109.114470
 30
0.0
 10
88.770013
 20
109.005070
 30
0.0
 10
88.790380
 20
108.987843
 30
0.0
  0
SPLINE
  5
1f0
100
AcDbEntity
  8
0
 62
7
100
AcDbSpline
 70
8
 71
3
 72
8
 73
4
 74
0
 40
0
 40
0
 40
0
 40
0
 40
1
 40
1
 40
1
 40
1
 10
88.790380
 20
108.987843
 30
0.0
 10
88.810753
 20
108.970619
 30
0.0
 10
88.628011
 20
108.474813
 30
0.0
 10
88.384303
 20
107.886068
 30
0.0
  0
SPLINE
  5
1f1
100
AcDbEntity
  8
0
 62
7
100
AcDbSpline
 70
8
 71
3
 72
8
 73
4
 74
0
 40
0
 40
0
 40
0
 40
0
 40
1
 40
1
 40
1
 40
1
 10
88.384303
 20
107.886068
 30
0.0
 10
87.800230
 20
106.475124
 30
0.0
 10
87.325480
 20
104.795020
 30
0.0
 10
87.070491
 20
103.236709
 30
0.0
  0
LINE
  5
1f2
100
AcDbEntity
  8
0
 62
7
100
AcDbLine
 10
87.070491
 20
103.236709
 30
0.0
 11
86.863457
 21
101.971408
 31
0.0
  0
LINE
  5
1f3
100
AcDbEntity
  8
0
 62
7
100
AcDbLine
 10
86.863457
 20
101.971408
 30
0.0
 11
86.178482
 21
101.811465
 31
0.0
  0
SPLINE
  5
1f4
100
AcDbEntity
  8
0
 62
7
100
AcDbSpline
 70
8
 71
3
 72
8
 73
4
 74
0
 40
0
 40
0
 40
0
 40
0
 40
1
 40
1
 40
1
 40
1
 10
86.178482
 20
101.811465
 30
0.0
 10
85.110071
 20
101.561984
 30
0.0
 10
83.110239
 20
101.509840
 30
0.0
 10
82.108281
 20
101.705348
 30
0.0
  0
LINE
  5
1f5
100
AcDbEntity
  8
0
 62
7
100
AcDbLine
 10
82.108281
 20
101.705348
 30
0.0
 11
82.108281
 21
101.705348
 31
0.0
  0
SPLINE
  5
1f6
100
AcDbEntity
  8
0
 62
7
100
AcDbSpline
 70
8
 71
3
 72
8
 73
4
 74
0
 40
0
 40
0
 40
0
 40
0
 40
1
 40
1
 40
1
 40
1
 10
88.475703
 20
111.070000
 30
0.0
 10
86.242334
 20
111.329996
 30
0.0
 10
84.044197
 20
112.180411
 30
0.0
 10
82.827715
 20
113.255096
 30
0.0
  0
SPLINE
  5
1f7
100
AcDbEntity
  8
0
 62
7
100
AcDbSpline
 70
8
 71
3
 72
8
 73
4
 74
0
 40
0
 40
0
 40
0
 40
0
 40
1
 40
1
 40
1
 40
1
 10
82.827715
 20
113.255096
 30
0.0
 10
81.809177
 20
114.154896
 30
0.0
 10
81.812130
 20
114.128398
 30
0.0
 10
82.566989
 20
115.597944
 30
0.0
  0
SPLINE
  5
1f8
100
AcDbEntity
  8
0
 62
7
100
AcDbSpline
 70
8
 71
3
 72
8
 73
4
 74
0
 40
0
 40
0
 40
0
 40
0
 40
1
 40
1
 40
1
 40
1
 10
82.566989
 20
115.597944
 30
0.0
 10
82.928182
 20
116.301109
 30
0.0
 10
83.597816
 20
117.443151
 30
0.0
 10
84.055074
 20
118.135825
 30
0.0
  0
SPLINE
  5
1f9
100
AcDbEntity
  8
0
 62
7
100
AcDbSpline
 70
8
 71
3
 72
8
 73
4
 74
0
 40
0
 40
0
 40
0
 40
0
 40
1
 40
1
 40
1
 40
1
 10
84.055074
 20
118.135825
 30
0.0
 10
85.087878
 20
119.700335
 30
0.0
 10
86.824264
 20
121.882211
 30
0.0
 10
86.931574
 20
121.750329
 30
0.0
  0
SPLINE
  5
1fa
100
AcDbEntity
  8
0
 62
7
100
AcDbSpline
 70
8
 71
3
 72
8
 73
4
 74
0
 40
0
 40
0
 40
0
 40
0
 40
1
 40
1
 40
1
 40
1
 10
86.931574
 20
121.750329
 30
0.0
 10
86.975572
 20
121.696270
 30
0.0
 10
87.340980
 20
121.240985
 30
0.0
 10
87.743585
 20
120.738600
 30
0.0
  0
SPLINE
  5
1fb
100
AcDbEntity
  8
0
 62
7
100
AcDbSpline
 70
8
 71
3
 72
8
 73
4
 74
0
 40
0
 40
0
 40
0
 40
0
 40
1
 40
1
 40
1
 40
1
 10
87.743585
 20
120.738600
 30
0.0
 10
89.358589
 20
118.723359
 30
0.0
 10
91.540912
 20
117.235175
 30
0.0
 10
93.763272
 20
116.633613
 30
0.0
  0
LINE
  5
1fc
100
AcDbEntity
  8
0
 62
7
100
AcDbLine
 10
93.763272
 20
116.633613
 30
0.0
 11
94.578744
 21
116.412869
 31
0.0
  0
LINE
  5
1fd
100
AcDbEntity
  8
0
 62
7
100
AcDbLine
 10
94.578744
 20
116.412869
 30
0.0
 11
93.481443
 21
115.265082
 31
0.0
  0
SPLINE
  5
1fe
100
AcDbEntity
  8
0
 62
7
100
AcDbSpline
 70
8
 71
3
 72
8
 73
4
 74
0
 40
0
 40
0
 40
0
 40
0
 40
1
 40
1
 40
1
 40
1
 10
93.481443
 20
115.265082
 30
0.0
 10
92.361141
 20
114.093230
 30
0.0
 10
91.247875
 20
112.766260
 30
0.0
 10
90.398539
 20
111.590393
 30
0.0
  0
SPLINE
  5
1ff
100
AcDbEntity
  8
0
 62
7
100
AcDbSpline
 70
8
 71
3
 72
8
 73
4
 74
0
 40
0
 40
0
 40
0
 40
0
 40
1
 40
1
 40
1
 40
1
 10
90.398539
 20
111.590393
 30
0.0
 10
89.879950
 20
110.872436
 30
0.0
 10
89.967996
 20
110.896261
 30
0.0
 10
88.475703
 20
111.070000
 30
0.0
  0
LINE
  5
200
100
AcDbEntity
  8
0
 62
7
100
AcDbLine
 10
88.475703
 20
111.070000
 30
0.0
 11
88.475703
 21
111.070000
 31
0.0
  0
SPLINE
  5
201
100
AcDbEntity
  8
0
 62
7
100
AcDbSpline
 70
8
 71
3
 72
8
 73
4
 74
0
 40
0
 40
0
 40
0
 40
0
 40
1
 40
1
 40
1
 40
1
 10
119.784563
 20
115.678057
 30
0.0
 10
119.784563
 20
115.739652
 30
0.0
 10
119.903831
 20
116.059687
 30
0.0
 10
120.049614
 20
116.389257
 30
0.0
  0
SPLINE
  5
202
100
AcDbEntity
  8
0
 62
7
100
AcDbSpline
 70
8
 71
3
 72
8
 73
4
 74
0
 40
0
 40
0
 40
0
 40
0
 40
1
 40
1
 40
1
 40
1
 10
120.049614
 20
116.389257
 30
0.0
 10
120.894127
 20
118.298409
 30
0.0
 10
121.016777
 20
120.093159
 30
0.0
 10
120.330446
 20
120.498504
 30
0.0
  0
SPLINE
  5
203
100
AcDbEntity
  8
0
 62
7
100
AcDbSpline
 70
8
 71
3
 72
8
 73
4
 74
0
 40
0
 40
0
 40
0
 40
0
 40
1
 40
1
 40
1
 40
1
 10
120.330446
 20
120.498504
 30
0.0
 10
120.036247
 20
120.672261
 30
0.0
 10
120.140258
 20
120.782637
 30
0.0
 10
120.881604
 20
121.083376
 30
0.0
  0
SPLINE
  5
204
100
AcDbEntity
  8
0
 62
7
100
AcDbSpline
 70
8
 71
3
 72
8
 73
4
 74
0
 40
0
 40
0
 40
0
 40
0
 40
1
 40
1
 40
1
 40
1
 10
120.881604
 20
121.083376
 30
0.0
 10
122.118230
 20
121.585010
 30
0.0
 10
125.224647
 20
123.190279
 30
0.0
 10
126.234530
 20
123.849536
 30
0.0
  0
SPLINE
  5
205
100
AcDbEntity
  8
0
 62
7
100
AcDbSpline
 70
8
 71
3
 72
8
 73
4
 74
0
 40
0
 40
0
 40
0
 40
0
 40
1
 40
1
 40
1
 40
1
 10
126.234530
 20
123.849536
 30
0.0
 10
126.765276
 20
124.196021
 30
0.0
 10
127.477675
 20
124.739661
 30
0.0
 10
127.817611
 20
125.057637
 30
0.0
  0
SPLINE
  5
206
100
AcDbEntity
  8
0
 62
7
100
AcDbSpline
 70
8
 71
3
 72
8
 73
4
 74
0
 40
0
 40
0
 40
0
 40
0
 40
1
 40
1
 40
1
 40
1
 10
127.817611
 20
125.057637
 30
0.0
 10
128.157545
 20
125.375610
 30
0.0
 10
128.435681
 20
125.592256
 30
0.0
 10
128.435681
 20
125.539081
 30
0.0
  0
SPLINE
  5
207
100
AcDbEntity
  8
0
 62
7
100
AcDbSpline
 70
8
 71
3
 72
8
 73
4
 74
0
 40
0
 40
0
 40
0
 40
0
 40
1
 40
1
 40
1
 40
1
 10
128.435681
 20
125.539081
 30
0.0
 10
128.435681
 20
125.485902
 30
0.0
 10
128.185424
 20
124.914111
 30
0.0
 10
127.879571
 20
124.268427
 30
0.0
  0
SPLINE
  5
208
100
AcDbEntity
  8
0
 62
7
100
AcDbSpline
 70
8
 71
3
 72
8
 73
4
 74
0
 40
0
 40
0
 40
0
 40
0
 40
1
 40
1
 40
1
 40
1
 10
127.879571
 20
124.268427
 30
0.0
 10
126.479772
 20
121.313420
 30
0.0
 10
124.113776
 20
118.440963
 30
0.0
 10
121.645618
 20
116.700040
 30
0.0
  0
SPLINE
  5
209
100
AcDbEntity
  8
0
 62
7
100
AcDbSpline
 70
8
 71
3
 72
8
 73
4
 74
0
 40
0
 40
0
 40
0
 40
0
 40
1
 40
1
 40
1
 40
1
 10
121.645618
 20
116.700040
 30
0.0
 10
120.594772
 20
115.958825
 30
0.0
 10
119.784563
 20
115.513894
 30
0.0
 10
119.784563
 20
115.678057
 30
0.0
  0
LINE
  5
20a
100
AcDbEntity
  8
0
 62
7
100
AcDbLine
 10
119.784563
 20
115.678057
 30
0.0
 11
119.784563
 21
115.678057
 31
0.0
  0
SPLINE
  5
20b
100
AcDbEntity
  8
0
 62
7
100
AcDbSpline
 70
8
 71
3
 72
8
 73
4
 74
0
 40
0
 40
0
 40
0
 40
0
 40
1
 40
1
 40
1
 40
1
 10
129.298833
 20
117.046779
 30
0.0
 10
131.817820
 20
122.071840
 30
0.0
 10
132.278031
 20
124.823869
 30
0.0
 10
130.553294
 20
124.548065
 30
0.0
  0
LINE
  5
20c
100
AcDbEntity
  8
0
 62
7
100
AcDbLine
 10
130.553294
 20
124.548065
 30
0.0
 11
130.065607
 21
124.470085
 31
0.0
  0
LINE
  5
20d
100
AcDbEntity
  8
0
 62
7
100
AcDbLine
 10
130.065607
 20
124.470085
 30
0.0
 11
130.065607
 21
125.775922
 31
0.0
  0
LINE
  5
20e
100
AcDbEntity
  8
0
 62
7
100
AcDbLine
 10
130.065607
 20
125.775922
 30
0.0
 11
130.065607
 21
127.081763
 31
0.0
  0
LINE
  5
20f
100
AcDbEntity
  8
0
 62
7
100
AcDbLine
 10
130.065607
 20
127.081763
 30
0.0
 11
130.960927
 21
127.536613
 31
0.0
  0
SPLINE
  5
210
100
AcDbEntity
  8
0
 62
7
100
AcDbSpline
 70
8
 71
3
 72
8
 73
4
 74
0
 40
0
 40
0
 40
0
 40
0
 40
1
 40
1
 40
1
 40
1
 10
130.960927
 20
127.536613
 30
0.0
 10
132.931814
 20
128.537879
 30
0.0
 10
134.581486
 20
129.859647
 30
0.0
 10
135.544402
 20
131.209056
 30
0.0
  0
SPLINE
  5
211
100
AcDbEntity
  8
0
 62
7
100
AcDbSpline
 70
8
 71
3
 72
8
 73
4
 74
0
 40
0
 40
0
 40
0
 40
0
 40
1
 40
1
 40
1
 40
1
 10
135.544402
 20
131.209056
 30
0.0
 10
136.232827
 20
132.173806
 30
0.0
 10
136.257687
 20
132.150880
 30
0.0
 10
136.460014
 20
130.364818
 30
0.0
  0
SPLINE
  5
212
100
AcDbEntity
  8
0
 62
7
100
AcDbSpline
 70
8
 71
3
 72
8
 73
4
 74
0
 40
0
 40
0
 40
0
 40
0
 40
1
 40
1
 40
1
 40
1
 10
136.460014
 20
130.364818
 30
0.0
 10
136.829420
 20
127.103982
 30
0.0
 10
135.652178
 20
123.368053
 30
0.0
 10
133.248758
 20
120.173992
 30
0.0
  0
SPLINE
  5
213
100
AcDbEntity
  8
0
 62
7
100
AcDbSpline
 70
8
 71
3
 72
8
 73
4
 74
0
 40
0
 40
0
 40
0
 40
0
 40
1
 40
1
 40
1
 40
1
 10
133.248758
 20
120.173992
 30
0.0
 10
132.475143
 20
119.145843
 30
0.0
 10
129.746585
 20
116.384180
 30
0.0
 10
128.960371
 20
115.833572
 30
0.0
  0
LINE
  5
214
100
AcDbEntity
  8
0
 62
7
100
AcDbLine
 10
128.960371
 20
115.833572
 30
0.0
 11
128.544745
 21
115.542464
 31
0.0
  0
LINE
  5
215
100
AcDbEntity
  8
0
 62
7
100
AcDbLine
 10
128.544745
 20
115.542464
 30
0.0
 11
129.298833
 21
117.046779
 31
0.0
  0
SPLINE
  5
216
100
AcDbEntity
  8
0
 62
7
100
AcDbSpline
 70
8
 71
3
 72
8
 73
4
 74
0
 40
0
 40
0
 40
0
 40
0
 40
1
 40
1
 40
1
 40
1
 10
94.712057
 20
118.400003
 30
0.0
 10
92.525003
 20
118.874102
 30
0.0
 10
90.143041
 20
120.568557
 30
0.0
 10
88.739535
 20
122.648682
 30
0.0
  0
SPLINE
  5
217
100
AcDbEntity
  8
0
 62
7
100
AcDbSpline
 70
8
 71
3
 72
8
 73
4
 74
0
 40
0
 40
0
 40
0
 40
0
 40
1
 40
1
 40
1
 40
1
 10
88.739535
 20
122.648682
 30
0.0
 10
88.339525
 20
123.241521
 30
0.0
 10
88.330497
 20
123.279999
 30
0.0
 10
88.537100
 20
123.511314
 30
0.0
  0
SPLINE
  5
218
100
AcDbEntity
  8
0
 62
7
100
AcDbSpline
 70
8
 71
3
 72
8
 73
4
 74
0
 40
0
 40
0
 40
0
 40
0
 40
1
 40
1
 40
1
 40
1
 10
88.537100
 20
123.511314
 30
0.0
 10
88.993316
 20
124.022105
 30
0.0
 10
91.318503
 20
125.855750
 30
0.0
 10
92.577391
 20
126.697485
 30
0.0
  0
SPLINE
  5
219
100
AcDbEntity
  8
0
 62
7
100
AcDbSpline
 70
8
 71
3
 72
8
 73
4
 74
0
 40
0
 40
0
 40
0
 40
0
 40
1
 40
1
 40
1
 40
1
 10
92.577391
 20
126.697485
 30
0.0
 10
94.211230
 20
127.789933
 30
0.0
 10
98.322254
 20
130.102397
 30
0.0
 10
98.389450
 20
129.966793
 30
0.0
  0
SPLINE
  5
21a
100
AcDbEntity
  8
0
 62
7
100
AcDbSpline
 70
8
 71
3
 72
8
 73
4
 74
0
 40
0
 40
0
 40
0
 40
0
 40
1
 40
1
 40
1
 40
1
 10
98.389450
 20
129.966793
 30
0.0
 10
98.400298
 20
129.944911
 30
0.0
 10
98.626802
 20
129.475652
 30
0.0
 10
98.892804
 20
128.923982
 30
0.0
  0
SPLINE
  5
21b
100
AcDbEntity
  8
0
 62
7
100
AcDbSpline
 70
8
 71
3
 72
8
 73
4
 74
0
 40
0
 40
0
 40
0
 40
0
 40
1
 40
1
 40
1
 40
1
 10
98.892804
 20
128.923982
 30
0.0
 10
100.076531
 20
126.469067
 30
0.0
 10
101.615578
 20
124.805841
 30
0.0
 10
103.774335
 20
123.648567
 30
0.0
  0
LINE
  5
21c
100
AcDbEntity
  8
0
 62
7
100
AcDbLine
 10
103.774335
 20
123.648567
 30
0.0
 11
104.502166
 21
123.258391
 31
0.0
  0
LINE
  5
21d
100
AcDbEntity
  8
0
 62
7
100
AcDbLine
 10
104.502166
 20
123.258391
 30
0.0
 11
103.272822
 21
122.529241
 31
0.0
  0
SPLINE
  5
21e
100
AcDbEntity
  8
0
 62
7
100
AcDbSpline
 70
8
 71
3
 72
8
 73
4
 74
0
 40
0
 40
0
 40
0
 40
0
 40
1
 40
1
 40
1
 40
1
 10
103.272822
 20
122.529241
 30
0.0
 10
101.617901
 20
121.547659
 30
0.0
 10
99.143319
 20
119.927170
 30
0.0
 10
97.852433
 20
118.979647
 30
0.0
  0
SPLINE
  5
21f
100
AcDbEntity
  8
0
 62
7
100
AcDbSpline
 70
8
 71
3
 72
8
 73
4
 74
0
 40
0
 40
0
 40
0
 40
0
 40
1
 40
1
 40
1
 40
1
 10
97.852433
 20
118.979647
 30
0.0
 10
96.874584
 20
118.261907
 30
0.0
 10
96.748465
 20
118.204855
 30
0.0
 10
96.159822
 20
118.214078
 30
0.0
  0
SPLINE
  5
220
100
AcDbEntity
  8
0
 62
7
100
AcDbSpline
 70
8
 71
3
 72
8
 73
4
 74
0
 40
0
 40
0
 40
0
 40
0
 40
1
 40
1
 40
1
 40
1
 10
96.159822
 20
118.214078
 30
0.0
 10
95.810006
 20
118.219634
 30
0.0
 10
95.158512
 20
118.303224
 30
0.0
 10
94.712057
 20
118.400003
 30
0.0
  0
LINE
  5
221
100
AcDbEntity
  8
0
 62
7
100
AcDbLine
 10
94.712057
 20
118.400003
 30
0.0
 11
94.712057
 21
118.400003
 31
0.0
  0
SPLINE
  5
222
100
AcDbEntity
  8
0
 62
7
100
AcDbSpline
 70
8
 71
3
 72
8
 73
4
 74
0
 40
0
 40
0
 40
0
 40
0
 40
1
 40
1
 40
1
 40
1
 10
139.343612
 20
122.426670
 30
0.0
 10
139.343612
 20
122.497693
 30
0.0
 10
139.463125
 20
123.311593
 30
0.0
 10
139.609188
 20
124.235346
 30
0.0
  0
SPLINE
  5
223
100
AcDbEntity
  8
0
 62
7
100
AcDbSpline
 70
8
 71
3
 72
8
 73
4
 74
0
 40
0
 40
0
 40
0
 40
0
 40
1
 40
1
 40
1
 40
1
 10
139.609188
 20
124.235346
 30
0.0
 10
139.970683
 20
126.521555
 30
0.0
 10
140.004822
 20
129.286623
 30
0.0
 10
139.677749
 20
129.786876
 30
0.0
  0
SPLINE
  5
224
100
AcDbEntity
  8
0
 62
7
100
AcDbSpline
 70
8
 71
3
 72
8
 73
4
 74
0
 40
0
 40
0
 40
0
 40
0
 40
1
 40
1
 40
1
 40
1
 10
139.677749
 20
129.786876
 30
0.0
 10
139.454248
 20
130.128747
 30
0.0
 10
139.343713
 20
130.148061
 30
0.0
 10
138.829675
 20
129.935093
 30
0.0
  0
SPLINE
  5
225
100
AcDbEntity
  8
0
 62
7
100
AcDbSpline
 70
8
 71
3
 72
8
 73
4
 74
0
 40
0
 40
0
 40
0
 40
0
 40
1
 40
1
 40
1
 40
1
 10
138.829675
 20
129.935093
 30
0.0
 10
138.657664
 20
129.863814
 30
0.0
 10
138.616961
 20
130.017476
 30
0.0
 10
138.542803
 20
131.017932
 30
0.0
  0
SPLINE
  5
226
100
AcDbEntity
  8
0
 62
7
100
AcDbSpline
 70
8
 71
3
 72
8
 73
4
 74
0
 40
0
 40
0
 40
0
 40
0
 40
1
 40
1
 40
1
 40
1
 10
138.542803
 20
131.017932
 30
0.0
 10
138.495276
 20
131.659179
 30
0.0
 10
138.380495
 20
132.576627
 30
0.0
 10
138.287777
 20
133.056726
 30
0.0
  0
LINE
  5
227
100
AcDbEntity
  8
0
 62
7
100
AcDbLine
 10
138.287777
 20
133.056726
 30
0.0
 11
138.119147
 21
133.929618
 31
0.0
  0
LINE
  5
228
100
AcDbEntity
  8
0
 62
7
100
AcDbLine
 10
138.119147
 20
133.929618
 30
0.0
 11
139.519751
 21
135.325044
 31
0.0
  0
SPLINE
  5
229
100
AcDbEntity
  8
0
 62
7
100
AcDbSpline
 70
8
 71
3
 72
8
 73
4
 74
0
 40
0
 40
0
 40
0
 40
0
 40
1
 40
1
 40
1
 40
1
 10
139.519751
 20
135.325044
 30
0.0
 10
141.176045
 20
136.975197
 30
0.0
 10
142.555371
 20
138.742717
 30
0.0
 10
143.294341
 20
140.161953
 30
0.0
  0
LINE
  5
22a
100
AcDbEntity
  8
0
 62
7
100
AcDbLine
 10
143.294341
 20
140.161953
 30
0.0
 11
143.828149
 21
141.187157
 31
0.0
  0
LINE
  5
22b
100
AcDbEntity
  8
0
 62
7
100
AcDbLine
 10
143.828149
 20
141.187157
 30
0.0
 11
143.970529
 21
140.523297
 31
0.0
  0
SPLINE
  5
22c
100
AcDbEntity
  8
0
 62
7
100
AcDbSpline
 70
8
 71
3
 72
8
 73
4
 74
0
 40
0
 40
0
 40
0
 40
0
 40
1
 40
1
 40
1
 40
1
 10
143.970529
 20
140.523297
 30
0.0
 10
144.453306
 20
138.272172
 30
0.0
 10
144.457876
 20
134.627724
 30
0.0
 10
143.981007
 20
132.183829
 30
0.0
  0
SPLINE
  5
22d
100
AcDbEntity
  8
0
 62
7
100
AcDbSpline
 70
8
 71
3
 72
8
 73
4
 74
0
 40
0
 40
0
 40
0
 40
0
 40
1
 40
1
 40
1
 40
1
 10
143.981007
 20
132.183829
 30
0.0
 10
143.479267
 20
129.612547
 30
0.0
 10
142.647356
 20
127.376268
 30
0.0
 10
141.421904
 20
125.304549
 30
0.0
  0
SPLINE
  5
22e
100
AcDbEntity
  8
0
 62
7
100
AcDbSpline
 70
8
 71
3
 72
8
 73
4
 74
0
 40
0
 40
0
 40
0
 40
0
 40
1
 40
1
 40
1
 40
1
 10
141.421904
 20
125.304549
 30
0.0
 10
140.706685
 20
124.095527
 30
0.0
 10
139.343562
 20
122.207955
 30
0.0
 10
139.343562
 20
122.426670
 30
0.0
  0
LINE
  5
22f
100
AcDbEntity
  8
0
 62
7
100
AcDbLine
 10
139.343562
 20
122.426670
 30
0.0
 11
139.343612
 21
122.426670
 31
0.0
  0
SPLINE
  5
230
100
AcDbEntity
  8
0
 62
7
100
AcDbSpline
 70
8
 71
3
 72
8
 73
4
 74
0
 40
0
 40
0
 40
0
 40
0
 40
1
 40
1
 40
1
 40
1
 10
106.055596
 20
124.835641
 30
0.0
 10
105.296133
 20
125.057089
 30
0.0
 10
104.364527
 20
125.500377
 30
0.0
 10
103.673510
 20
125.969116
 30
0.0
  0
SPLINE
  5
231
100
AcDbEntity
  8
0
 62
7
100
AcDbSpline
 70
8
 71
3
 72
8
 73
4
 74
0
 40
0
 40
0
 40
0
 40
0
 40
1
 40
1
 40
1
 40
1
 10
103.673510
 20
125.969116
 30
0.0
 10
102.465571
 20
126.788499
 30
0.0
 10
100.998075
 20
128.722195
 30
0.0
 10
100.365660
 20
130.327843
 30
0.0
  0
LINE
  5
232
100
AcDbEntity
  8
0
 62
7
100
AcDbLine
 10
100.365660
 20
130.327843
 30
0.0
 11
100.109012
 21
130.979424
 31
0.0
  0
LINE
  5
233
100
AcDbEntity
  8
0
 62
7
100
AcDbLine
 10
100.109012
 20
130.979424
 30
0.0
 11
100.762802
 21
131.347775
 31
0.0
  0
SPLINE
  5
234
100
AcDbEntity
  8
0
 62
7
100
AcDbSpline
 70
8
 71
3
 72
8
 73
4
 74
0
 40
0
 40
0
 40
0
 40
0
 40
1
 40
1
 40
1
 40
1
 10
100.762802
 20
131.347775
 30
0.0
 10
101.122379
 20
131.550371
 30
0.0
 10
102.403941
 20
132.252644
 30
0.0
 10
103.610714
 20
132.908372
 30
0.0
  0
SPLINE
  5
235
100
AcDbEntity
  8
0
 62
7
100
AcDbSpline
 70
8
 71
3
 72
8
 73
4
 74
0
 40
0
 40
0
 40
0
 40
0
 40
1
 40
1
 40
1
 40
1
 10
103.610714
 20
132.908372
 30
0.0
 10
104.817481
 20
133.564107
 30
0.0
 10
106.498855
 20
134.493199
 30
0.0
 10
107.347098
 20
134.973027
 30
0.0
  0
LINE
  5
236
100
AcDbEntity
  8
0
 62
7
100
AcDbLine
 10
107.347098
 20
134.973027
 30
0.0
 11
108.889352
 21
135.845434
 31
0.0
  0
LINE
  5
237
100
AcDbEntity
  8
0
 62
7
100
AcDbLine
 10
108.889352
 20
135.845434
 30
0.0
 11
110.356183
 21
134.372949
 31
0.0
  0
SPLINE
  5
238
100
AcDbEntity
  8
0
 62
7
100
AcDbSpline
 70
8
 71
3
 72
8
 73
4
 74
0
 40
0
 40
0
 40
0
 40
0
 40
1
 40
1
 40
1
 40
1
 10
110.356183
 20
134.372949
 30
0.0
 10
112.355976
 20
132.365447
 30
0.0
 10
113.956993
 20
131.330386
 30
0.0
 10
116.263586
 20
130.553789
 30
0.0
  0
LINE
  5
239
100
AcDbEntity
  8
0
 62
7
100
AcDbLine
 10
116.263586
 20
130.553789
 30
0.0
 11
117.444310
 21
130.156250
 31
0.0
  0
LINE
  5
23a
100
AcDbEntity
  8
0
 62
7
100
AcDbLine
 10
117.444310
 20
130.156250
 30
0.0
 11
115.574015
 21
129.148780
 31
0.0
  0
SPLINE
  5
23b
100
AcDbEntity
  8
0
 62
7
100
AcDbSpline
 70
8
 71
3
 72
8
 73
4
 74
0
 40
0
 40
0
 40
0
 40
0
 40
1
 40
1
 40
1
 40
1
 10
115.574015
 20
129.148780
 30
0.0
 10
114.545331
 20
128.594666
 30
0.0
 10
112.744545
 20
127.645206
 30
0.0
 10
111.572256
 20
127.038863
 30
0.0
  0
SPLINE
  5
23c
100
AcDbEntity
  8
0
 62
7
100
AcDbSpline
 70
8
 71
3
 72
8
 73
4
 74
0
 40
0
 40
0
 40
0
 40
0
 40
1
 40
1
 40
1
 40
1
 10
111.572256
 20
127.038863
 30
0.0
 10
110.399967
 20
126.432526
 30
0.0
 10
108.882327
 20
125.635370
 30
0.0
 10
108.199739
 20
125.267425
 30
0.0
  0
SPLINE
  5
23d
100
AcDbEntity
  8
0
 62
7
100
AcDbSpline
 70
8
 71
3
 72
8
 73
4
 74
0
 40
0
 40
0
 40
0
 40
0
 40
1
 40
1
 40
1
 40
1
 10
108.199739
 20
125.267425
 30
0.0
 10
107.517130
 20
124.899472
 30
0.0
 10
106.924718
 20
124.602448
 30
0.0
 10
106.883257
 20
124.607353
 30
0.0
  0
SPLINE
  5
23e
100
AcDbEntity
  8
0
 62
7
100
AcDbSpline
 70
8
 71
3
 72
8
 73
4
 74
0
 40
0
 40
0
 40
0
 40
0
 40
1
 40
1
 40
1
 40
1
 10
106.883257
 20
124.607353
 30
0.0
 10
106.841787
 20
124.612248
 30
0.0
 10
106.469346
 20
124.714996
 30
0.0
 10
106.055596
 20
124.835641
 30
0.0
  0
LINE
  5
23f
100
AcDbEntity
  8
0
 62
7
100
AcDbLine
 10
106.055596
 20
124.835641
 30
0.0
 11
106.055596
 21
124.835641
 31
0.0
  0
SPLINE
  5
240
100
AcDbEntity
  8
0
 62
7
100
AcDbSpline
 70
8
 71
3
 72
8
 73
4
 74
0
 40
0
 40
0
 40
0
 40
0
 40
1
 40
1
 40
1
 40
1
 10
152.597655
 20
127.607508
 30
0.0
 10
152.553308
 20
127.779908
 30
0.0
 10
152.290894
 20
128.854706
 30
0.0
 10
152.014468
 20
129.995960
 30
0.0
  0
SPLINE
  5
241
100
AcDbEntity
  8
0
 62
7
100
AcDbSpline
 70
8
 71
3
 72
8
 73
4
 74
0
 40
0
 40
0
 40
0
 40
0
 40
1
 40
1
 40
1
 40
1
 10
152.014468
 20
129.995960
 30
0.0
 10
150.877548
 20
134.690391
 30
0.0
 10
149.393564
 20
138.039907
 30
0.0
 10
148.238748
 20
138.518239
 30
0.0
  0
SPLINE
  5
242
100
AcDbEntity
  8
0
 62
7
100
AcDbSpline
 70
8
 71
3
 72
8
 73
4
 74
0
 40
0
 40
0
 40
0
 40
0
 40
1
 40
1
 40
1
 40
1
 10
148.238748
 20
138.518239
 30
0.0
 10
147.712007
 20
138.736436
 30
0.0
 10
147.117671
 20
138.449641
 30
0.0
 10
146.658405
 20
137.755663
 30
0.0
  0
LINE
  5
243
100
AcDbEntity
  8
0
 62
7
100
AcDbLine
 10
146.658405
 20
137.755663
 30
0.0
 11
146.315973
 21
137.238220
 31
0.0
  0
LINE
  5
244
100
AcDbEntity
  8
0
 62
7
100
AcDbLine
 10
146.315973
 20
137.238220
 30
0.0
 11
146.040716
 21
138.743394
 31
0.0
  0
SPLINE
  5
245
100
AcDbEntity
  8
0
 62
7
100
AcDbSpline
 70
8
 71
3
 72
8
 73
4
 74
0
 40
0
 40
0
 40
0
 40
0
 40
1
 40
1
 40
1
 40
1
 10
146.040716
 20
138.743394
 30
0.0
 10
145.637613
 20
140.947559
 30
0.0
 10
145.167337
 20
142.242564
 30
0.0
 10
144.307606
 20
143.515739
 30
0.0
  0
LINE
  5
246
100
AcDbEntity
  8
0
 62
7
100
AcDbLine
 10
144.307606
 20
143.515739
 30
0.0
 11
143.852025
 21
144.190461
 31
0.0
  0
LINE
  5
247
100
AcDbEntity
  8
0
 62
7
100
AcDbLine
 10
143.852025
 20
144.190461
 30
0.0
 11
144.341425
 21
144.838685
 31
0.0
  0
SPLINE
  5
248
100
AcDbEntity
  8
0
 62
7
100
AcDbSpline
 70
8
 71
3
 72
8
 73
4
 74
0
 40
0
 40
0
 40
0
 40
0
 40
1
 40
1
 40
1
 40
1
 10
144.341425
 20
144.838685
 30
0.0
 10
145.270705
 20
146.069503
 30
0.0
 10
145.859043
 20
147.479007
 30
0.0
 10
146.120793
 20
149.101506
 30
0.0
  0
SPLINE
  5
249
100
AcDbEntity
  8
0
 62
7
100
AcDbSpline
 70
8
 71
3
 72
8
 73
4
 74
0
 40
0
 40
0
 40
0
 40
0
 40
1
 40
1
 40
1
 40
1
 10
146.120793
 20
149.101506
 30
0.0
 10
146.205761
 20
149.628244
 30
0.0
 10
146.316719
 20
150.043105
 30
0.0
 10
146.367366
 20
150.023404
 30
0.0
  0
SPLINE
  5
24a
100
AcDbEntity
  8
0
 62
7
100
AcDbSpline
 70
8
 71
3
 72
8
 73
4
 74
0
 40
0
 40
0
 40
0
 40
0
 40
1
 40
1
 40
1
 40
1
 10
146.367366
 20
150.023404
 30
0.0
 10
146.568444
 20
149.945204
 30
0.0
 10
147.681652
 20
148.547159
 30
0.0
 10
148.392582
 20
147.480023
 30
0.0
  0
SPLINE
  5
24b
100
AcDbEntity
  8
0
 62
7
100
AcDbSpline
 70
8
 71
3
 72
8
 73
4
 74
0
 40
0
 40
0
 40
0
 40
0
 40
1
 40
1
 40
1
 40
1
 10
148.392582
 20
147.480023
 30
0.0
 10
149.262399
 20
146.174371
 30
0.0
 10
150.699156
 20
143.316537
 30
0.0
 10
151.257723
 20
141.781009
 30
0.0
  0
SPLINE
  5
24c
100
AcDbEntity
  8
0
 62
7
100
AcDbSpline
 70
8
 71
3
 72
8
 73
4
 74
0
 40
0
 40
0
 40
0
 40
0
 40
1
 40
1
 40
1
 40
1
 10
151.257723
 20
141.781009
 30
0.0
 10
152.073952
 20
139.537134
 30
0.0
 10
152.667605
 20
136.671911
 30
0.0
 10
152.897872
 20
133.864893
 30
0.0
  0
SPLINE
  5
24d
100
AcDbEntity
  8
0
 62
7
100
AcDbSpline
 70
8
 71
3
 72
8
 73
4
 74
0
 40
0
 40
0
 40
0
 40
0
 40
1
 40
1
 40
1
 40
1
 10
152.897872
 20
133.864893
 30
0.0
 10
153.081136
 20
131.630815
 30
0.0
 10
152.842455
 20
126.655895
 30
0.0
 10
152.597655
 20
127.607508
 30
0.0
  0
LINE
  5
24e
100
AcDbEntity
  8
0
 62
7
100
AcDbLine
 10
152.597655
 20
127.607508
 30
0.0
 11
152.597655
 21
127.607508
 31
0.0
  0
SPLINE
  5
24f
100
AcDbEntity
  8
0
 62
7
100
AcDbSpline
 70
8
 71
3
 72
8
 73
4
 74
0
 40
0
 40
0
 40
0
 40
0
 40
1
 40
1
 40
1
 40
1
 10
119.232496
 20
131.888223
 30
0.0
 10
117.366911
 20
132.126658
 30
0.0
 10
115.533129
 20
132.807020
 30
0.0
 10
114.006232
 20
133.827288
 30
0.0
  0
SPLINE
  5
250
100
AcDbEntity
  8
0
 62
7
100
AcDbSpline
 70
8
 71
3
 72
8
 73
4
 74
0
 40
0
 40
0
 40
0
 40
0
 40
1
 40
1
 40
1
 40
1
 10
114.006232
 20
133.827288
 30
0.0
 10
113.020768
 20
134.485751
 30
0.0
 10
110.757292
 20
136.566914
 30
0.0
 10
110.757292
 20
136.814524
 30
0.0
  0
SPLINE
  5
251
100
AcDbEntity
  8
0
 62
7
100
AcDbSpline
 70
8
 71
3
 72
8
 73
4
 74
0
 40
0
 40
0
 40
0
 40
0
 40
1
 40
1
 40
1
 40
1
 10
110.757292
 20
136.814524
 30
0.0
 10
110.757292
 20
136.897074
 30
0.0
 10
111.533082
 20
137.468378
 30
0.0
 10
112.481245
 20
138.084085
 30
0.0
  0
SPLINE
  5
252
100
AcDbEntity
  8
0
 62
7
100
AcDbSpline
 70
8
 71
3
 72
8
 73
4
 74
0
 40
0
 40
0
 40
0
 40
0
 40
1
 40
1
 40
1
 40
1
 10
112.481245
 20
138.084085
 30
0.0
 10
113.429427
 20
138.699791
 30
0.0
 10
114.871115
 20
139.699522
 30
0.0
 10
115.685032
 20
140.305711
 30
0.0
  0
LINE
  5
253
100
AcDbEntity
  8
0
 62
7
100
AcDbLine
 10
115.685032
 20
140.305711
 30
0.0
 11
117.164846
 21
141.407873
 31
0.0
  0
LINE
  5
254
100
AcDbEntity
  8
0
 62
7
100
AcDbLine
 10
117.164846
 20
141.407873
 30
0.0
 11
118.169393
 21
140.650921
 31
0.0
  0
SPLINE
  5
255
100
AcDbEntity
  8
0
 62
7
100
AcDbSpline
 70
8
 71
3
 72
8
 73
4
 74
0
 40
0
 40
0
 40
0
 40
0
 40
1
 40
1
 40
1
 40
1
 10
118.169393
 20
140.650921
 30
0.0
 10
119.206631
 20
139.869347
 30
0.0
 10
120.647694
 20
139.121024
 30
0.0
 10
122.006166
 20
138.658548
 30
0.0
  0
SPLINE
  5
256
100
AcDbEntity
  8
0
 62
7
100
AcDbSpline
 70
8
 71
3
 72
8
 73
4
 74
0
 40
0
 40
0
 40
0
 40
0
 40
1
 40
1
 40
1
 40
1
 10
122.006166
 20
138.658548
 30
0.0
 10
122.974660
 20
138.328835
 30
0.0
 10
125.708612
 20
137.768273
 30
0.0
 10
126.445371
 20
137.748344
 30
0.0
  0
SPLINE
  5
257
100
AcDbEntity
  8
0
 62
7
100
AcDbSpline
 70
8
 71
3
 72
8
 73
4
 74
0
 40
0
 40
0
 40
0
 40
0
 40
1
 40
1
 40
1
 40
1
 10
126.445371
 20
137.748344
 30
0.0
 10
126.747017
 20
137.740169
 30
0.0
 10
127.156904
 20
137.697870
 30
0.0
 10
127.356231
 20
137.654311
 30
0.0
  0
LINE
  5
258
100
AcDbEntity
  8
0
 62
7
100
AcDbLine
 10
127.356231
 20
137.654311
 30
0.0
 11
127.718652
 21
137.575106
 31
0.0
  0
LINE
  5
259
100
AcDbEntity
  8
0
 62
7
100
AcDbLine
 10
127.718652
 20
137.575106
 30
0.0
 11
126.786874
 21
136.668770
 31
0.0
  0
SPLINE
  5
25a
100
AcDbEntity
  8
0
 62
7
100
AcDbSpline
 70
8
 71
3
 72
8
 73
4
 74
0
 40
0
 40
0
 40
0
 40
0
 40
1
 40
1
 40
1
 40
1
 10
126.786874
 20
136.668770
 30
0.0
 10
126.274387
 20
136.170277
 30
0.0
 10
125.349634
 20
135.355961
 30
0.0
 10
124.731845
 20
134.859160
 30
0.0
  0
SPLINE
  5
25b
100
AcDbEntity
  8
0
 62
7
100
AcDbSpline
 70
8
 71
3
 72
8
 73
4
 74
0
 40
0
 40
0
 40
0
 40
0
 40
1
 40
1
 40
1
 40
1
 10
124.731845
 20
134.859160
 30
0.0
 10
123.651731
 20
133.990589
 30
0.0
 10
120.592902
 20
131.913284
 30
0.0
 10
120.259408
 20
131.821863
 30
0.0
  0
SPLINE
  5
25c
100
AcDbEntity
  8
0
 62
7
100
AcDbSpline
 70
8
 71
3
 72
8
 73
4
 74
0
 40
0
 40
0
 40
0
 40
0
 40
1
 40
1
 40
1
 40
1
 10
120.259408
 20
131.821863
 30
0.0
 10
120.170635
 20
131.797521
 30
0.0
 10
119.708532
 20
131.827419
 30
0.0
 10
119.232496
 20
131.888223
 30
0.0
  0
LINE
  5
25d
100
AcDbEntity
  8
0
 62
7
100
AcDbLine
 10
119.232496
 20
131.888223
 30
0.0
 11
119.232496
 21
131.888223
 31
0.0
  0
SPLINE
  5
25e
100
AcDbEntity
  8
0
 62
7
100
AcDbSpline
 70
8
 71
3
 72
8
 73
4
 74
0
 40
0
 40
0
 40
0
 40
0
 40
1
 40
1
 40
1
 40
1
 10
125.426593
 20
139.836650
 30
0.0
 10
123.946535
 20
140.070674
 30
0.0
 10
122.286497
 20
140.572205
 30
0.0
 10
121.101021
 20
141.143488
 30
0.0
  0
SPLINE
  5
25f
100
AcDbEntity
  8
0
 62
7
100
AcDbSpline
 70
8
 71
3
 72
8
 73
4
 74
0
 40
0
 40
0
 40
0
 40
0
 40
1
 40
1
 40
1
 40
1
 10
121.101021
 20
141.143488
 30
0.0
 10
120.078237
 20
141.636378
 30
0.0
 10
118.786859
 20
142.502936
 30
0.0
 10
118.783438
 20
142.698680
 30
0.0
  0
SPLINE
  5
260
100
AcDbEntity
  8
0
 62
7
100
AcDbSpline
 70
8
 71
3
 72
8
 73
4
 74
0
 40
0
 40
0
 40
0
 40
0
 40
1
 40
1
 40
1
 40
1
 10
118.783438
 20
142.698680
 30
0.0
 10
118.781321
 20
142.758314
 30
0.0
 10
119.184104
 20
143.266100
 30
0.0
 10
119.676142
 20
143.827085
 30
0.0
  0
SPLINE
  5
261
100
AcDbEntity
  8
0
 62
7
100
AcDbSpline
 70
8
 71
3
 72
8
 73
4
 74
0
 40
0
 40
0
 40
0
 40
0
 40
1
 40
1
 40
1
 40
1
 10
119.676142
 20
143.827085
 30
0.0
 10
120.834159
 20
145.147398
 30
0.0
 10
121.662850
 20
146.412993
 30
0.0
 10
122.167307
 20
147.631672
 30
0.0
  0
SPLINE
  5
262
100
AcDbEntity
  8
0
 62
7
100
AcDbSpline
 70
8
 71
3
 72
8
 73
4
 74
0
 40
0
 40
0
 40
0
 40
0
 40
1
 40
1
 40
1
 40
1
 10
122.167307
 20
147.631672
 30
0.0
 10
122.389682
 20
148.168887
 30
0.0
 10
122.583775
 20
148.622338
 30
0.0
 10
122.598631
 20
148.639351
 30
0.0
  0
SPLINE
  5
263
100
AcDbEntity
  8
0
 62
7
100
AcDbSpline
 70
8
 71
3
 72
8
 73
4
 74
0
 40
0
 40
0
 40
0
 40
0
 40
1
 40
1
 40
1
 40
1
 10
122.598631
 20
148.639351
 30
0.0
 10
122.613527
 20
148.656363
 30
0.0
 10
122.903219
 20
148.588212
 30
0.0
 10
123.242489
 20
148.487924
 30
0.0
  0
SPLINE
  5
264
100
AcDbEntity
  8
0
 62
7
100
AcDbSpline
 70
8
 71
3
 72
8
 73
4
 74
0
 40
0
 40
0
 40
0
 40
0
 40
1
 40
1
 40
1
 40
1
 10
123.242489
 20
148.487924
 30
0.0
 10
125.169352
 20
147.918361
 30
0.0
 10
128.262966
 20
147.748631
 30
0.0
 10
130.159592
 20
148.108414
 30
0.0
  0
SPLINE
  5
265
100
AcDbEntity
  8
0
 62
7
100
AcDbSpline
 70
8
 71
3
 72
8
 73
4
 74
0
 40
0
 40
0
 40
0
 40
0
 40
1
 40
1
 40
1
 40
1
 10
130.159592
 20
148.108414
 30
0.0
 10
131.284113
 20
148.321739
 30
0.0
 10
132.632258
 20
148.755029
 30
0.0
 10
133.416885
 20
149.155322
 30
0.0
  0
SPLINE
  5
266
100
AcDbEntity
  8
0
 62
7
100
AcDbSpline
 70
8
 71
3
 72
8
 73
4
 74
0
 40
0
 40
0
 40
0
 40
0
 40
1
 40
1
 40
1
 40
1
 10
133.416885
 20
149.155322
 30
0.0
 10
133.705892
 20
149.302756
 30
0.0
 10
133.996005
 20
149.423382
 30
0.0
 10
134.061608
 20
149.423382
 30
0.0
  0
SPLINE
  5
267
100
AcDbEntity
  8
0
 62
7
100
AcDbSpline
 70
8
 71
3
 72
8
 73
4
 74
0
 40
0
 40
0
 40
0
 40
0
 40
1
 40
1
 40
1
 40
1
 10
134.061608
 20
149.423382
 30
0.0
 10
134.131297
 20
149.423382
 30
0.0
 10
134.110784
 20
149.123792
 30
0.0
 10
134.012229
 20
148.702464
 30
0.0
  0
SPLINE
  5
268
100
AcDbEntity
  8
0
 62
7
100
AcDbSpline
 70
8
 71
3
 72
8
 73
4
 74
0
 40
0
 40
0
 40
0
 40
0
 40
1
 40
1
 40
1
 40
1
 10
134.012229
 20
148.702464
 30
0.0
 10
133.357502
 20
145.903355
 30
0.0
 10
131.910197
 20
142.830384
 30
0.0
 10
130.079333
 20
140.352043
 30
0.0
  0
LINE
  5
269
100
AcDbEntity
  8
0
 62
7
100
AcDbLine
 10
130.079333
 20
140.352043
 30
0.0
 11
129.556175
 21
139.643854
 31
0.0
  0
LINE
  5
26a
100
AcDbEntity
  8
0
 62
7
100
AcDbLine
 10
129.556175
 20
139.643854
 30
0.0
 11
128.024246
 21
139.655998
 31
0.0
  0
SPLINE
  5
26b
100
AcDbEntity
  8
0
 62
7
100
AcDbSpline
 70
8
 71
3
 72
8
 73
4
 74
0
 40
0
 40
0
 40
0
 40
0
 40
1
 40
1
 40
1
 40
1
 10
128.024246
 20
139.655998
 30
0.0
 10
127.181685
 20
139.662692
 30
0.0
 10
126.012738
 20
139.743967
 30
0.0
 10
125.426593
 20
139.836645
 30
0.0
  0
LINE
  5
26c
100
AcDbEntity
  8
0
 62
7
100
AcDbLine
 10
125.426593
 20
139.836645
 30
0.0
 11
125.426593
 21
139.836650
 31
0.0
  0
SPLINE
  5
26d
100
AcDbEntity
  8
0
 62
7
100
AcDbSpline
 70
8
 71
3
 72
8
 73
4
 74
0
 40
0
 40
0
 40
0
 40
0
 40
1
 40
1
 40
1
 40
1
 10
166.230157
 20
143.165989
 30
0.0
 10
164.297680
 20
145.129954
 30
0.0
 10
161.845183
 20
146.991986
 30
0.0
 10
159.962570
 20
147.924597
 30
0.0
  0
SPLINE
  5
26e
100
AcDbEntity
  8
0
 62
7
100
AcDbSpline
 70
8
 71
3
 72
8
 73
4
 74
0
 40
0
 40
0
 40
0
 40
0
 40
1
 40
1
 40
1
 40
1
 10
159.962570
 20
147.924597
 30
0.0
 10
157.291905
 20
149.247596
 30
0.0
 10
155.434530
 20
149.173621
 30
0.0
 10
154.130653
 20
147.692343
 30
0.0
  0
SPLINE
  5
26f
100
AcDbEntity
  8
0
 62
7
100
AcDbSpline
 70
8
 71
3
 72
8
 73
4
 74
0
 40
0
 40
0
 40
0
 40
0
 40
1
 40
1
 40
1
 40
1
 10
154.130653
 20
147.692343
 30
0.0
 10
153.637750
 20
147.132379
 30
0.0
 10
152.971469
 20
145.703600
 30
0.0
 10
152.818420
 20
144.878412
 30
0.0
  0
SPLINE
  5
270
100
AcDbEntity
  8
0
 62
7
100
AcDbSpline
 70
8
 71
3
 72
8
 73
4
 74
0
 40
0
 40
0
 40
0
 40
0
 40
1
 40
1
 40
1
 40
1
 10
152.818420
 20
144.878412
 30
0.0
 10
152.770470
 20
144.619819
 30
0.0
 10
152.695183
 20
144.408452
 30
0.0
 10
152.651140
 20
144.408706
 30
0.0
  0
SPLINE
  5
271
100
AcDbEntity
  8
0
 62
7
100
AcDbSpline
 70
8
 71
3
 72
8
 73
4
 74
0
 40
0
 40
0
 40
0
 40
0
 40
1
 40
1
 40
1
 40
1
 10
152.651140
 20
144.408706
 30
0.0
 10
152.607095
 20
144.408706
 30
0.0
 10
152.385425
 20
144.768176
 30
0.0
 10
152.158558
 20
145.206959
 30
0.0
  0
SPLINE
  5
272
100
AcDbEntity
  8
0
 62
7
100
AcDbSpline
 70
8
 71
3
 72
8
 73
4
 74
0
 40
0
 40
0
 40
0
 40
0
 40
1
 40
1
 40
1
 40
1
 10
152.158558
 20
145.206959
 30
0.0
 10
150.972983
 20
147.499920
 30
0.0
 10
149.136243
 20
150.021018
 30
0.0
 10
147.508614
 20
151.589428
 30
0.0
  0
LINE
  5
273
100
AcDbEntity
  8
0
 62
7
100
AcDbLine
 10
147.508614
 20
151.589428
 30
0.0
 11
146.366762
 21
152.689746
 31
0.0
  0
LINE
  5
274
100
AcDbEntity
  8
0
 62
7
100
AcDbLine
 10
146.366762
 20
152.689746
 30
0.0
 11
146.488669
 21
153.532790
 31
0.0
  0
SPLINE
  5
275
100
AcDbEntity
  8
0
 62
7
100
AcDbSpline
 70
8
 71
3
 72
8
 73
4
 74
0
 40
0
 40
0
 40
0
 40
0
 40
1
 40
1
 40
1
 40
1
 10
146.488669
 20
153.532790
 30
0.0
 10
146.840097
 20
155.962617
 30
0.0
 10
146.362373
 20
158.754562
 30
0.0
 10
145.304362
 20
160.454412
 30
0.0
  0
SPLINE
  5
276
100
AcDbEntity
  8
0
 62
7
100
AcDbSpline
 70
8
 71
3
 72
8
 73
4
 74
0
 40
0
 40
0
 40
0
 40
0
 40
1
 40
1
 40
1
 40
1
 10
145.304362
 20
160.454412
 30
0.0
 10
145.069082
 20
160.832419
 30
0.0
 10
144.898079
 20
161.163193
 30
0.0
 10
144.924347
 20
161.189466
 30
0.0
  0
SPLINE
  5
277
100
AcDbEntity
  8
0
 62
7
100
AcDbSpline
 70
8
 71
3
 72
8
 73
4
 74
0
 40
0
 40
0
 40
0
 40
0
 40
1
 40
1
 40
1
 40
1
 10
144.924347
 20
161.189466
 30
0.0
 10
145.000862
 20
161.265992
 30
0.0
 10
146.192336
 20
160.963523
 30
0.0
 10
147.681289
 20
160.489583
 30
0.0
  0
SPLINE
  5
278
100
AcDbEntity
  8
0
 62
7
100
AcDbSpline
 70
8
 71
3
 72
8
 73
4
 74
0
 40
0
 40
0
 40
0
 40
0
 40
1
 40
1
 40
1
 40
1
 10
147.681289
 20
160.489583
 30
0.0
 10
155.638670
 20
157.956729
 30
0.0
 10
161.817505
 20
153.030685
 30
0.0
 10
165.336265
 20
146.414297
 30
0.0
  0
SPLINE
  5
279
100
AcDbEntity
  8
0
 62
7
100
AcDbSpline
 70
8
 71
3
 72
8
 73
4
 74
0
 40
0
 40
0
 40
0
 40
0
 40
1
 40
1
 40
1
 40
1
 10
165.336265
 20
146.414297
 30
0.0
 10
166.006193
 20
145.154600
 30
0.0
 10
167.114487
 20
142.547981
 30
0.0
 10
167.020258
 20
142.453728
 30
0.0
  0
SPLINE
  5
27a
100
AcDbEntity
  8
0
 62
7
100
AcDbSpline
 70
8
 71
3
 72
8
 73
4
 74
0
 40
0
 40
0
 40
0
 40
0
 40
1
 40
1
 40
1
 40
1
 10
167.020258
 20
142.453728
 30
0.0
 10
166.995493
 20
142.428990
 30
0.0
 10
166.639965
 20
142.749504
 30
0.0
 10
166.230157
 20
143.165989
 30
0.0
  0
LINE
  5
27b
100
AcDbEntity
  8
0
 62
7
100
AcDbLine
 10
166.230157
 20
143.165989
 30
0.0
 11
166.230157
 21
143.165989
 31
0.0
  0
SPLINE
  5
27c
100
AcDbEntity
  8
0
 62
7
100
AcDbSpline
 70
8
 71
3
 72
8
 73
4
 74
0
 40
0
 40
0
 40
0
 40
0
 40
1
 40
1
 40
1
 40
1
 10
102.043478
 20
145.092426
 30
0.0
 10
101.974522
 20
145.120382
 30
0.0
 10
101.509893
 20
145.208520
 30
0.0
 10
101.010976
 20
145.288278
 30
0.0
  0
SPLINE
  5
27d
100
AcDbEntity
  8
0
 62
7
100
AcDbSpline
 70
8
 71
3
 72
8
 73
4
 74
0
 40
0
 40
0
 40
0
 40
0
 40
1
 40
1
 40
1
 40
1
 10
101.010976
 20
145.288278
 30
0.0
 10
100.111036
 20
145.432151
 30
0.0
 10
100.102900
 20
145.436937
 30
0.0
 10
99.985001
 20
145.892457
 30
0.0
  0
SPLINE
  5
27e
100
AcDbEntity
  8
0
 62
7
100
AcDbSpline
 70
8
 71
3
 72
8
 73
4
 74
0
 40
0
 40
0
 40
0
 40
0
 40
1
 40
1
 40
1
 40
1
 10
99.985001
 20
145.892457
 30
0.0
 10
99.626795
 20
147.276365
 30
0.0
 10
99.712264
 20
148.614175
 30
0.0
 10
100.233024
 20
149.774432
 30
0.0
  0
LINE
  5
27f
100
AcDbEntity
  8
0
 62
7
100
AcDbLine
 10
100.233024
 20
149.774432
 30
0.0
 11
100.497515
 21
150.363722
 31
0.0
  0
LINE
  5
280
100
AcDbEntity
  8
0
 62
7
100
AcDbLine
 10
100.497515
 20
150.363722
 30
0.0
 11
100.716151
 21
149.674144
 31
0.0
  0
SPLINE
  5
281
100
AcDbEntity
  8
0
 62
7
100
AcDbSpline
 70
8
 71
3
 72
8
 73
4
 74
0
 40
0
 40
0
 40
0
 40
0
 40
1
 40
1
 40
1
 40
1
 10
100.716151
 20
149.674144
 30
0.0
 10
100.990778
 20
148.807959
 30
0.0
 10
101.255972
 20
148.297083
 30
0.0
 10
101.586032
 20
147.998384
 30
0.0
  0
SPLINE
  5
282
100
AcDbEntity
  8
0
 62
7
100
AcDbSpline
 70
8
 71
3
 72
8
 73
4
 74
0
 40
0
 40
0
 40
0
 40
0
 40
1
 40
1
 40
1
 40
1
 10
101.586032
 20
147.998384
 30
0.0
 10
101.837939
 20
147.770419
 30
0.0
 10
101.873446
 20
147.772412
 30
0.0
 10
103.134760
 20
148.085300
 30
0.0
  0
SPLINE
  5
283
100
AcDbEntity
  8
0
 62
7
100
AcDbSpline
 70
8
 71
3
 72
8
 73
4
 74
0
 40
0
 40
0
 40
0
 40
0
 40
1
 40
1
 40
1
 40
1
 10
103.134760
 20
148.085300
 30
0.0
 10
103.844764
 20
148.261436
 30
0.0
 10
104.657641
 20
148.440720
 30
0.0
 10
104.941155
 20
148.483723
 30
0.0
  0
LINE
  5
284
100
AcDbEntity
  8
0
 62
7
100
AcDbLine
 10
104.941155
 20
148.483723
 30
0.0
 11
105.456640
 21
148.561912
 31
0.0
  0
LINE
  5
285
100
AcDbEntity
  8
0
 62
7
100
AcDbLine
 10
105.456640
 20
148.561912
 30
0.0
 11
105.530266
 21
149.350402
 31
0.0
  0
SPLINE
  5
286
100
AcDbEntity
  8
0
 62
7
100
AcDbSpline
 70
8
 71
3
 72
8
 73
4
 74
0
 40
0
 40
0
 40
0
 40
0
 40
1
 40
1
 40
1
 40
1
 10
105.530266
 20
149.350402
 30
0.0
 10
105.625524
 20
150.370493
 30
0.0
 10
105.866165
 20
151.319701
 30
0.0
 10
106.007394
 20
151.232418
 30
0.0
  0
SPLINE
  5
287
100
AcDbEntity
  8
0
 62
7
100
AcDbSpline
 70
8
 71
3
 72
8
 73
4
 74
0
 40
0
 40
0
 40
0
 40
0
 40
1
 40
1
 40
1
 40
1
 10
106.007394
 20
151.232418
 30
0.0
 10
106.068386
 20
151.194728
 30
0.0
 10
106.118281
 20
151.084698
 30
0.0
 10
106.118281
 20
150.987919
 30
0.0
  0
SPLINE
  5
288
100
AcDbEntity
  8
0
 62
7
100
AcDbSpline
 70
8
 71
3
 72
8
 73
4
 74
0
 40
0
 40
0
 40
0
 40
0
 40
1
 40
1
 40
1
 40
1
 10
106.118281
 20
150.987919
 30
0.0
 10
106.118281
 20
150.300436
 30
0.0
 10
107.254624
 20
148.374275
 30
0.0
 10
107.507370
 20
148.633331
 30
0.0
  0
SPLINE
  5
289
100
AcDbEntity
  8
0
 62
7
100
AcDbSpline
 70
8
 71
3
 72
8
 73
4
 74
0
 40
0
 40
0
 40
0
 40
0
 40
1
 40
1
 40
1
 40
1
 10
107.507370
 20
148.633331
 30
0.0
 10
107.736970
 20
148.868670
 30
0.0
 10
108.030888
 20
150.603416
 30
0.0
 10
108.087334
 20
152.056336
 30
0.0
  0
SPLINE
  5
28a
100
AcDbEntity
  8
0
 62
7
100
AcDbSpline
 70
8
 71
3
 72
8
 73
4
 74
0
 40
0
 40
0
 40
0
 40
0
 40
1
 40
1
 40
1
 40
1
 10
108.087334
 20
152.056336
 30
0.0
 10
108.155676
 20
153.815870
 30
0.0
 10
107.995481
 20
154.838186
 30
0.0
 10
107.426489
 20
156.273455
 30
0.0
  0
SPLINE
  5
28b
100
AcDbEntity
  8
0
 62
7
100
AcDbSpline
 70
8
 71
3
 72
8
 73
4
 74
0
 40
0
 40
0
 40
0
 40
0
 40
1
 40
1
 40
1
 40
1
 10
107.426489
 20
156.273455
 30
0.0
 10
106.703716
 20
158.096643
 30
0.0
 10
105.327164
 20
159.756060
 30
0.0
 10
103.585964
 20
160.903169
 30
0.0
  0
SPLINE
  5
28c
100
AcDbEntity
  8
0
 62
7
100
AcDbSpline
 70
8
 71
3
 72
8
 73
4
 74
0
 40
0
 40
0
 40
0
 40
0
 40
1
 40
1
 40
1
 40
1
 10
103.585964
 20
160.903169
 30
0.0
 10
102.286037
 20
161.759556
 30
0.0
 10
102.202932
 20
161.784975
 30
0.0
 10
101.644031
 20
161.497089
 30
0.0
  0
SPLINE
  5
28d
100
AcDbEntity
  8
0
 62
7
100
AcDbSpline
 70
8
 71
3
 72
8
 73
4
 74
0
 40
0
 40
0
 40
0
 40
0
 40
1
 40
1
 40
1
 40
1
 10
101.644031
 20
161.497089
 30
0.0
 10
100.939361
 20
161.134110
 30
0.0
 10
100.753436
 20
160.490136
 30
0.0
 10
101.076781
 20
159.532333
 30
0.0
  0
SPLINE
  5
28e
100
AcDbEntity
  8
0
 62
7
100
AcDbSpline
 70
8
 71
3
 72
8
 73
4
 74
0
 40
0
 40
0
 40
0
 40
0
 40
1
 40
1
 40
1
 40
1
 10
101.076781
 20
159.532333
 30
0.0
 10
101.207792
 20
159.144282
 30
0.0
 10
101.305407
 20
158.826780
 30
0.0
 10
101.293710
 20
158.826780
 30
0.0
  0
SPLINE
  5
28f
100
AcDbEntity
  8
0
 62
7
100
AcDbSpline
 70
8
 71
3
 72
8
 73
4
 74
0
 40
0
 40
0
 40
0
 40
0
 40
1
 40
1
 40
1
 40
1
 10
101.293710
 20
158.826780
 30
0.0
 10
101.282015
 20
158.826780
 30
0.0
 10
100.865225
 20
158.965281
 30
0.0
 10
100.367512
 20
159.134569
 30
0.0
  0
SPLINE
  5
290
100
AcDbEntity
  8
0
 62
7
100
AcDbSpline
 70
8
 71
3
 72
8
 73
4
 74
0
 40
0
 40
0
 40
0
 40
0
 40
1
 40
1
 40
1
 40
1
 10
100.367512
 20
159.134569
 30
0.0
 10
99.245808
 20
159.516085
 30
0.0
 10
97.510555
 20
159.797970
 30
0.0
 10
97.339110
 20
159.626528
 30
0.0
  0
SPLINE
  5
291
100
AcDbEntity
  8
0
 62
7
100
AcDbSpline
 70
8
 71
3
 72
8
 73
4
 74
0
 40
0
 40
0
 40
0
 40
0
 40
1
 40
1
 40
1
 40
1
 10
97.339110
 20
159.626528
 30
0.0
 10
97.187501
 20
159.474927
 30
0.0
 10
97.481712
 20
158.286008
 30
0.0
 10
97.855987
 20
157.537825
 30
0.0
  0
SPLINE
  5
292
100
AcDbEntity
  8
0
 62
7
100
AcDbSpline
 70
8
 71
3
 72
8
 73
4
 74
0
 40
0
 40
0
 40
0
 40
0
 40
1
 40
1
 40
1
 40
1
 10
97.855987
 20
157.537825
 30
0.0
 10
98.001552
 20
157.246857
 30
0.0
 10
98.326233
 20
156.792589
 30
0.0
 10
98.577519
 20
156.528355
 30
0.0
  0
LINE
  5
293
100
AcDbEntity
  8
0
 62
7
100
AcDbLine
 10
98.577519
 20
156.528355
 30
0.0
 11
99.034393
 21
156.047906
 31
0.0
  0
LINE
  5
294
100
AcDbEntity
  8
0
 62
7
100
AcDbLine
 10
99.034393
 20
156.047906
 30
0.0
 11
98.407495
 21
156.131062
 31
0.0
  0
SPLINE
  5
295
100
AcDbEntity
  8
0
 62
7
100
AcDbSpline
 70
8
 71
3
 72
8
 73
4
 74
0
 40
0
 40
0
 40
0
 40
0
 40
1
 40
1
 40
1
 40
1
 10
98.407495
 20
156.131062
 30
0.0
 10
96.828382
 20
156.340522
 30
0.0
 10
94.994185
 20
157.025557
 30
0.0
 10
93.986752
 20
157.782146
 30
0.0
  0
SPLINE
  5
296
100
AcDbEntity
  8
0
 62
7
100
AcDbSpline
 70
8
 71
3
 72
8
 73
4
 74
0
 40
0
 40
0
 40
0
 40
0
 40
1
 40
1
 40
1
 40
1
 10
93.986752
 20
157.782146
 30
0.0
 10
93.607562
 20
158.066917
 30
0.0
 10
93.572279
 20
158.072691
 30
0.0
 10
93.496976
 20
157.862355
 30
0.0
  0
SPLINE
  5
297
100
AcDbEntity
  8
0
 62
7
100
AcDbSpline
 70
8
 71
3
 72
8
 73
4
 74
0
 40
0
 40
0
 40
0
 40
0
 40
1
 40
1
 40
1
 40
1
 10
93.496976
 20
157.862355
 30
0.0
 10
93.270771
 20
157.230411
 30
0.0
 10
92.363295
 20
155.863409
 30
0.0
 10
91.759360
 20
155.244829
 30
0.0
  0
LINE
  5
298
100
AcDbEntity
  8
0
 62
7
100
AcDbLine
 10
91.759360
 20
155.244829
 30
0.0
 11
91.077936
 21
154.546869
 31
0.0
  0
LINE
  5
299
100
AcDbEntity
  8
0
 62
7
100
AcDbLine
 10
91.077936
 20
154.546869
 30
0.0
 11
91.338492
 21
154.194449
 31
0.0
  0
SPLINE
  5
29a
100
AcDbEntity
  8
0
 62
7
100
AcDbSpline
 70
8
 71
3
 72
8
 73
4
 74
0
 40
0
 40
0
 40
0
 40
0
 40
1
 40
1
 40
1
 40
1
 10
91.338492
 20
154.194449
 30
0.0
 10
91.926132
 20
153.399628
 30
0.0
 10
93.275160
 20
152.542809
 30
0.0
 10
95.461103
 20
151.576038
 30
0.0
  0
SPLINE
  5
29b
100
AcDbEntity
  8
0
 62
7
100
AcDbSpline
 70
8
 71
3
 72
8
 73
4
 74
0
 40
0
 40
0
 40
0
 40
0
 40
1
 40
1
 40
1
 40
1
 10
95.461103
 20
151.576038
 30
0.0
 10
96.221875
 20
151.239572
 30
0.0
 10
92.066776
 20
151.837404
 30
0.0
 10
90.207256
 20
152.331957
 30
0.0
  0
SPLINE
  5
29c
100
AcDbEntity
  8
0
 62
7
100
AcDbSpline
 70
8
 71
3
 72
8
 73
4
 74
0
 40
0
 40
0
 40
0
 40
0
 40
1
 40
1
 40
1
 40
1
 10
90.207256
 20
152.331957
 30
0.0
 10
88.211948
 20
152.862619
 30
0.0
 10
88.205394
 20
152.862204
 30
0.0
 10
87.854631
 20
152.181719
 30
0.0
  0
SPLINE
  5
29d
100
AcDbEntity
  8
0
 62
7
100
AcDbSpline
 70
8
 71
3
 72
8
 73
4
 74
0
 40
0
 40
0
 40
0
 40
0
 40
1
 40
1
 40
1
 40
1
 10
87.854631
 20
152.181719
 30
0.0
 10
87.281287
 20
151.069429
 30
0.0
 10
87.266280
 20
149.649072
 30
0.0
 10
87.817873
 20
148.702464
 30
0.0
  0
SPLINE
  5
29e
100
AcDbEntity
  8
0
 62
7
100
AcDbSpline
 70
8
 71
3
 72
8
 73
4
 74
0
 40
0
 40
0
 40
0
 40
0
 40
1
 40
1
 40
1
 40
1
 10
87.817873
 20
148.702464
 30
0.0
 10
88.101440
 20
148.215821
 30
0.0
 10
88.048753
 20
148.208400
 30
0.0
 10
87.030610
 20
148.591628
 30
0.0
  0
SPLINE
  5
29f
100
AcDbEntity
  8
0
 62
7
100
AcDbSpline
 70
8
 71
3
 72
8
 73
4
 74
0
 40
0
 40
0
 40
0
 40
0
 40
1
 40
1
 40
1
 40
1
 10
87.030610
 20
148.591628
 30
0.0
 10
84.174507
 20
149.666659
 30
0.0
 10
81.444994
 20
151.755584
 30
0.0
 10
79.912221
 20
154.039398
 30
0.0
  0
LINE
  5
2a0
100
AcDbEntity
  8
0
 62
7
100
AcDbLine
 10
79.912221
 20
154.039398
 30
0.0
 11
79.265682
 21
155.002738
 31
0.0
  0
LINE
  5
2a1
100
AcDbEntity
  8
0
 62
7
100
AcDbLine
 10
79.265682
 20
155.002738
 30
0.0
 11
79.338115
 21
155.943078
 31
0.0
  0
SPLINE
  5
2a2
100
AcDbEntity
  8
0
 62
7
100
AcDbSpline
 70
8
 71
3
 72
8
 73
4
 74
0
 40
0
 40
0
 40
0
 40
0
 40
1
 40
1
 40
1
 40
1
 10
79.338115
 20
155.943078
 30
0.0
 10
79.421506
 20
157.025586
 30
0.0
 10
79.696575
 20
158.388889
 30
0.0
 10
79.982841
 20
159.138475
 30
0.0
  0
SPLINE
  5
2a3
100
AcDbEntity
  8
0
 62
7
100
AcDbSpline
 70
8
 71
3
 72
8
 73
4
 74
0
 40
0
 40
0
 40
0
 40
0
 40
1
 40
1
 40
1
 40
1
 10
79.982841
 20
159.138475
 30
0.0
 10
80.154029
 20
159.586724
 30
0.0
 10
80.252896
 20
159.675952
 30
0.0
 10
80.715469
 20
159.799674
 30
0.0
  0
SPLINE
  5
2a4
100
AcDbEntity
  8
0
 62
7
100
AcDbSpline
 70
8
 71
3
 72
8
 73
4
 74
0
 40
0
 40
0
 40
0
 40
0
 40
1
 40
1
 40
1
 40
1
 10
80.715469
 20
159.799674
 30
0.0
 10
81.477247
 20
160.003416
 30
0.0
 10
82.232331
 20
160.775351
 30
0.0
 10
82.477533
 20
161.601052
 30
0.0
  0
SPLINE
  5
2a5
100
AcDbEntity
  8
0
 62
7
100
AcDbSpline
 70
8
 71
3
 72
8
 73
4
 74
0
 40
0
 40
0
 40
0
 40
0
 40
1
 40
1
 40
1
 40
1
 10
82.477533
 20
161.601052
 30
0.0
 10
82.686816
 20
162.305770
 30
0.0
 10
82.724297
 20
163.580712
 30
0.0
 10
82.560594
 20
164.425947
 30
0.0
  0
LINE
  5
2a6
100
AcDbEntity
  8
0
 62
7
100
AcDbLine
 10
82.560594
 20
164.425947
 30
0.0
 11
82.459610
 21
164.947269
 31
0.0
  0
LINE
  5
2a7
100
AcDbEntity
  8
0
 62
7
100
AcDbLine
 10
82.459610
 20
164.947269
 30
0.0
 11
83.600420
 21
165.739881
 31
0.0
  0
SPLINE
  5
2a8
100
AcDbEntity
  8
0
 62
7
100
AcDbSpline
 70
8
 71
3
 72
8
 73
4
 74
0
 40
0
 40
0
 40
0
 40
0
 40
1
 40
1
 40
1
 40
1
 10
83.600420
 20
165.739881
 30
0.0
 10
85.030508
 20
166.733461
 30
0.0
 10
87.938321
 20
169.612434
 30
0.0
 10
88.732145
 20
170.820694
 30
0.0
  0
SPLINE
  5
2a9
100
AcDbEntity
  8
0
 62
7
100
AcDbSpline
 70
8
 71
3
 72
8
 73
4
 74
0
 40
0
 40
0
 40
0
 40
0
 40
1
 40
1
 40
1
 40
1
 10
88.732145
 20
170.820694
 30
0.0
 10
89.387571
 20
171.818300
 30
0.0
 10
89.956457
 20
173.058431
 30
0.0
 10
90.264334
 20
174.160733
 30
0.0
  0
SPLINE
  5
2aa
100
AcDbEntity
  8
0
 62
7
100
AcDbSpline
 70
8
 71
3
 72
8
 73
4
 74
0
 40
0
 40
0
 40
0
 40
0
 40
1
 40
1
 40
1
 40
1
 10
90.264334
 20
174.160733
 30
0.0
 10
90.509913
 20
175.040007
 30
0.0
 10
90.614452
 20
174.994429
 30
0.0
 10
91.183441
 20
173.759989
 30
0.0
  0
SPLINE
  5
2ab
100
AcDbEntity
  8
0
 62
7
100
AcDbSpline
 70
8
 71
3
 72
8
 73
4
 74
0
 40
0
 40
0
 40
0
 40
0
 40
1
 40
1
 40
1
 40
1
 10
91.183441
 20
173.759989
 30
0.0
 10
91.855822
 20
172.301249
 30
0.0
 10
92.105895
 20
170.531766
 30
0.0
 10
91.836496
 20
169.139169
 30
0.0
  0
SPLINE
  5
2ac
100
AcDbEntity
  8
0
 62
7
100
AcDbSpline
 70
8
 71
3
 72
8
 73
4
 74
0
 40
0
 40
0
 40
0
 40
0
 40
1
 40
1
 40
1
 40
1
 10
91.836496
 20
169.139169
 30
0.0
 10
91.779804
 20
168.846095
 30
0.0
 10
91.771859
 20
168.606306
 30
0.0
 10
91.818849
 20
168.606306
 30
0.0
  0
SPLINE
  5
2ad
100
AcDbEntity
  8
0
 62
7
100
AcDbSpline
 70
8
 71
3
 72
8
 73
4
 74
0
 40
0
 40
0
 40
0
 40
0
 40
1
 40
1
 40
1
 40
1
 10
91.818849
 20
168.606306
 30
0.0
 10
91.865828
 20
168.606306
 30
0.0
 10
92.634030
 20
168.938530
 30
0.0
 10
93.525961
 20
169.344578
 30
0.0
  0
SPLINE
  5
2ae
100
AcDbEntity
  8
0
 62
7
100
AcDbSpline
 70
8
 71
3
 72
8
 73
4
 74
0
 40
0
 40
0
 40
0
 40
0
 40
1
 40
1
 40
1
 40
1
 10
93.525961
 20
169.344578
 30
0.0
 10
94.417901
 20
169.750626
 30
0.0
 10
95.693407
 20
170.285912
 30
0.0
 10
96.360435
 20
170.534108
 30
0.0
  0
SPLINE
  5
2af
100
AcDbEntity
  8
0
 62
7
100
AcDbSpline
 70
8
 71
3
 72
8
 73
4
 74
0
 40
0
 40
0
 40
0
 40
0
 40
1
 40
1
 40
1
 40
1
 10
96.360435
 20
170.534108
 30
0.0
 10
97.550726
 20
170.976999
 30
0.0
 10
99.835009
 20
171.612001
 30
0.0
 10
100.246039
 20
171.614256
 30
0.0
  0
SPLINE
  5
2b0
100
AcDbEntity
  8
0
 62
7
100
AcDbSpline
 70
8
 71
3
 72
8
 73
4
 74
0
 40
0
 40
0
 40
0
 40
0
 40
1
 40
1
 40
1
 40
1
 10
100.246039
 20
171.614256
 30
0.0
 10
100.366440
 20
171.615314
 30
0.0
 10
100.983840
 20
172.317883
 30
0.0
 10
101.706076
 20
173.276662
 30
0.0
  0
SPLINE
  5
2b1
100
AcDbEntity
  8
0
 62
7
100
AcDbSpline
 70
8
 71
3
 72
8
 73
4
 74
0
 40
0
 40
0
 40
0
 40
0
 40
1
 40
1
 40
1
 40
1
 10
101.706076
 20
173.276662
 30
0.0
 10
103.185549
 20
175.240677
 30
0.0
 10
104.946148
 20
177.144299
 30
0.0
 10
106.220534
 20
178.157862
 30
0.0
  0
SPLINE
  5
2b2
100
AcDbEntity
  8
0
 62
7
100
AcDbSpline
 70
8
 71
3
 72
8
 73
4
 74
0
 40
0
 40
0
 40
0
 40
0
 40
1
 40
1
 40
1
 40
1
 10
106.220534
 20
178.157862
 30
0.0
 10
106.724997
 20
178.559086
 30
0.0
 10
107.090019
 20
178.887358
 30
0.0
 10
107.031691
 20
178.887358
 30
0.0
  0
SPLINE
  5
2b3
100
AcDbEntity
  8
0
 62
7
100
AcDbSpline
 70
8
 71
3
 72
8
 73
4
 74
0
 40
0
 40
0
 40
0
 40
0
 40
1
 40
1
 40
1
 40
1
 10
107.031691
 20
178.887358
 30
0.0
 10
106.973359
 20
178.887358
 30
0.0
 10
106.474286
 20
178.697006
 30
0.0
 10
105.922643
 20
178.464347
 30
0.0
  0
SPLINE
  5
2b4
100
AcDbEntity
  8
0
 62
7
100
AcDbSpline
 70
8
 71
3
 72
8
 73
4
 74
0
 40
0
 40
0
 40
0
 40
0
 40
1
 40
1
 40
1
 40
1
 10
105.922643
 20
178.464347
 30
0.0
 10
101.874190
 20
176.756927
 30
0.0
 10
98.013993
 20
174.523347
 30
0.0
 10
95.273976
 20
172.302829
 30
0.0
  0
SPLINE
  5
2b5
100
AcDbEntity
  8
0
 62
7
100
AcDbSpline
 70
8
 71
3
 72
8
 73
4
 74
0
 40
0
 40
0
 40
0
 40
0
 40
1
 40
1
 40
1
 40
1
 10
95.273976
 20
172.302829
 30
0.0
 10
94.013292
 20
171.281169
 30
0.0
 10
93.932713
 20
171.234904
 30
0.0
 10
94.204631
 20
171.688760
 30
0.0
  0
SPLINE
  5
2b6
100
AcDbEntity
  8
0
 62
7
100
AcDbSpline
 70
8
 71
3
 72
8
 73
4
 74
0
 40
0
 40
0
 40
0
 40
0
 40
1
 40
1
 40
1
 40
1
 10
94.204631
 20
171.688760
 30
0.0
 10
95.461264
 20
173.786204
 30
0.0
 10
97.821403
 20
176.352872
 30
0.0
 10
99.974733
 20
177.963785
 30
0.0
  0
SPLINE
  5
2b7
100
AcDbEntity
  8
0
 62
7
100
AcDbSpline
 70
8
 71
3
 72
8
 73
4
 74
0
 40
0
 40
0
 40
0
 40
0
 40
1
 40
1
 40
1
 40
1
 10
99.974733
 20
177.963785
 30
0.0
 10
103.043878
 20
180.259812
 30
0.0
 10
105.543225
 20
181.579183
 30
0.0
 10
111.070741
 20
183.821218
 30
0.0
  0
SPLINE
  5
2b8
100
AcDbEntity
  8
0
 62
7
100
AcDbSpline
 70
8
 71
3
 72
8
 73
4
 74
0
 40
0
 40
0
 40
0
 40
0
 40
1
 40
1
 40
1
 40
1
 10
111.070741
 20
183.821218
 30
0.0
 10
131.164789
 20
191.971612
 30
0.0
 10
142.231465
 20
198.285522
 30
0.0
 10
150.546314
 20
206.343339
 30
0.0
  0
SPLINE
  5
2b9
100
AcDbEntity
  8
0
 62
7
100
AcDbSpline
 70
8
 71
3
 72
8
 73
4
 74
0
 40
0
 40
0
 40
0
 40
0
 40
1
 40
1
 40
1
 40
1
 10
150.546314
 20
206.343339
 30
0.0
 10
152.902468
 20
208.626661
 30
0.0
 10
154.764550
 20
210.845409
 30
0.0
 10
156.545672
 20
213.491856
 30
0.0
  0
SPLINE
  5
2ba
100
AcDbEntity
  8
0
 62
7
100
AcDbSpline
 70
8
 71
3
 72
8
 73
4
 74
0
 40
0
 40
0
 40
0
 40
0
 40
1
 40
1
 40
1
 40
1
 10
156.545672
 20
213.491856
 30
0.0
 10
157.915414
 20
215.527013
 30
0.0
 10
158.070436
 20
215.709742
 30
0.0
 10
157.449909
 20
214.557569
 30
0.0
  0
SPLINE
  5
2bb
100
AcDbEntity
  8
0
 62
7
100
AcDbSpline
 70
8
 71
3
 72
8
 73
4
 74
0
 40
0
 40
0
 40
0
 40
0
 40
1
 40
1
 40
1
 40
1
 10
157.449909
 20
214.557569
 30
0.0
 10
153.772907
 20
207.730216
 30
0.0
 10
147.484082
 20
200.691550
 30
0.0
 10
140.033212
 20
195.064125
 30
0.0
  0
SPLINE
  5
2bc
100
AcDbEntity
  8
0
 62
7
100
AcDbSpline
 70
8
 71
3
 72
8
 73
4
 74
0
 40
0
 40
0
 40
0
 40
0
 40
1
 40
1
 40
1
 40
1
 10
140.033212
 20
195.064125
 30
0.0
 10
136.371326
 20
192.298425
 30
0.0
 10
133.378179
 20
190.461407
 30
0.0
 10
120.724900
 20
183.213777
 30
0.0
  0
SPLINE
  5
2bd
100
AcDbEntity
  8
0
 62
7
100
AcDbSpline
 70
8
 71
3
 72
8
 73
4
 74
0
 40
0
 40
0
 40
0
 40
0
 40
1
 40
1
 40
1
 40
1
 10
120.724900
 20
183.213777
 30
0.0
 10
113.241097
 20
178.927164
 30
0.0
 10
111.583252
 20
177.829270
 30
0.0
 10
109.555941
 20
175.817247
 30
0.0
  0
SPLINE
  5
2be
100
AcDbEntity
  8
0
 62
7
100
AcDbSpline
 70
8
 71
3
 72
8
 73
4
 74
0
 40
0
 40
0
 40
0
 40
0
 40
1
 40
1
 40
1
 40
1
 10
109.555941
 20
175.817247
 30
0.0
 10
108.469747
 20
174.739220
 30
0.0
 10
106.784568
 20
172.662612
 30
0.0
 10
106.901265
 20
172.545928
 30
0.0
  0
SPLINE
  5
2bf
100
AcDbEntity
  8
0
 62
7
100
AcDbSpline
 70
8
 71
3
 72
8
 73
4
 74
0
 40
0
 40
0
 40
0
 40
0
 40
1
 40
1
 40
1
 40
1
 10
106.901265
 20
172.545928
 30
0.0
 10
106.931610
 20
172.515580
 30
0.0
 10
107.684342
 20
172.575894
 30
0.0
 10
108.574000
 20
172.679963
 30
0.0
  0
SPLINE
  5
2c0
100
AcDbEntity
  8
0
 62
7
100
AcDbSpline
 70
8
 71
3
 72
8
 73
4
 74
0
 40
0
 40
0
 40
0
 40
0
 40
1
 40
1
 40
1
 40
1
 10
108.574000
 20
172.679963
 30
0.0
 10
109.463665
 20
172.784037
 30
0.0
 10
110.852534
 20
172.869185
 30
0.0
 10
111.660410
 20
172.869185
 30
0.0
  0
SPLINE
  5
2c1
100
AcDbEntity
  8
0
 62
7
100
AcDbSpline
 70
8
 71
3
 72
8
 73
4
 74
0
 40
0
 40
0
 40
0
 40
0
 40
1
 40
1
 40
1
 40
1
 10
111.660410
 20
172.869185
 30
0.0
 10
113.138031
 20
172.869185
 30
0.0
 10
115.020163
 20
172.662829
 30
0.0
 10
115.020163
 20
172.500827
 30
0.0
  0
SPLINE
  5
2c2
100
AcDbEntity
  8
0
 62
7
100
AcDbSpline
 70
8
 71
3
 72
8
 73
4
 74
0
 40
0
 40
0
 40
0
 40
0
 40
1
 40
1
 40
1
 40
1
 10
115.020163
 20
172.500827
 30
0.0
 10
115.020163
 20
172.452916
 30
0.0
 10
114.667548
 20
172.185504
 30
0.0
 10
114.236562
 20
171.906589
 30
0.0
  0
SPLINE
  5
2c3
100
AcDbEntity
  8
0
 62
7
100
AcDbSpline
 70
8
 71
3
 72
8
 73
4
 74
0
 40
0
 40
0
 40
0
 40
0
 40
1
 40
1
 40
1
 40
1
 10
114.236562
 20
171.906589
 30
0.0
 10
112.239329
 20
170.614065
 30
0.0
 10
110.288672
 20
168.507883
 30
0.0
 10
109.384676
 20
166.667844
 30
0.0
  0
SPLINE
  5
2c4
100
AcDbEntity
  8
0
 62
7
100
AcDbSpline
 70
8
 71
3
 72
8
 73
4
 74
0
 40
0
 40
0
 40
0
 40
0
 40
1
 40
1
 40
1
 40
1
 10
109.384676
 20
166.667844
 30
0.0
 10
108.861597
 20
165.603219
 30
0.0
 10
108.271669
 20
163.778184
 30
0.0
 10
108.406882
 20
163.642971
 30
0.0
  0
SPLINE
  5
2c5
100
AcDbEntity
  8
0
 62
7
100
AcDbSpline
 70
8
 71
3
 72
8
 73
4
 74
0
 40
0
 40
0
 40
0
 40
0
 40
1
 40
1
 40
1
 40
1
 10
108.406882
 20
163.642971
 30
0.0
 10
108.450945
 20
163.598916
 30
0.0
 10
108.958826
 20
163.765537
 30
0.0
 10
109.535531
 20
164.013240
 30
0.0
  0
SPLINE
  5
2c6
100
AcDbEntity
  8
0
 62
7
100
AcDbSpline
 70
8
 71
3
 72
8
 73
4
 74
0
 40
0
 40
0
 40
0
 40
0
 40
1
 40
1
 40
1
 40
1
 10
109.535531
 20
164.013240
 30
0.0
 10
113.227026
 20
165.598763
 30
0.0
 10
117.561110
 20
166.384803
 30
0.0
 10
120.976442
 20
166.088192
 30
0.0
  0
SPLINE
  5
2c7
100
AcDbEntity
  8
0
 62
7
100
AcDbSpline
 70
8
 71
3
 72
8
 73
4
 74
0
 40
0
 40
0
 40
0
 40
0
 40
1
 40
1
 40
1
 40
1
 10
120.976442
 20
166.088192
 30
0.0
 10
121.795049
 20
166.017093
 30
0.0
 10
122.516870
 20
165.926746
 30
0.0
 10
122.580520
 20
165.887408
 30
0.0
  0
SPLINE
  5
2c8
100
AcDbEntity
  8
0
 62
7
100
AcDbSpline
 70
8
 71
3
 72
8
 73
4
 74
0
 40
0
 40
0
 40
0
 40
0
 40
1
 40
1
 40
1
 40
1
 10
122.580520
 20
165.887408
 30
0.0
 10
122.644150
 20
165.848085
 30
0.0
 10
122.301861
 20
165.662462
 30
0.0
 10
121.819870
 20
165.474930
 30
0.0
  0
SPLINE
  5
2c9
100
AcDbEntity
  8
0
 62
7
100
AcDbSpline
 70
8
 71
3
 72
8
 73
4
 74
0
 40
0
 40
0
 40
0
 40
0
 40
1
 40
1
 40
1
 40
1
 10
121.819870
 20
165.474930
 30
0.0
 10
119.194497
 20
164.453469
 30
0.0
 10
116.380145
 20
162.469240
 30
0.0
 10
114.566032
 20
160.360670
 30
0.0
  0
SPLINE
  5
2ca
100
AcDbEntity
  8
0
 62
7
100
AcDbSpline
 70
8
 71
3
 72
8
 73
4
 74
0
 40
0
 40
0
 40
0
 40
0
 40
1
 40
1
 40
1
 40
1
 10
114.566032
 20
160.360670
 30
0.0
 10
112.376534
 20
157.815780
 30
0.0
 10
111.318261
 20
155.557038
 30
0.0
 10
110.058445
 20
150.739859
 30
0.0
  0
SPLINE
  5
2cb
100
AcDbEntity
  8
0
 62
7
100
AcDbSpline
 70
8
 71
3
 72
8
 73
4
 74
0
 40
0
 40
0
 40
0
 40
0
 40
1
 40
1
 40
1
 40
1
 10
110.058445
 20
150.739859
 30
0.0
 10
109.217414
 20
147.524002
 30
0.0
 10
108.263374
 20
146.027969
 30
0.0
 10
106.652594
 20
145.399107
 30
0.0
  0
SPLINE
  5
2cc
100
AcDbEntity
  8
0
 62
7
100
AcDbSpline
 70
8
 71
3
 72
8
 73
4
 74
0
 40
0
 40
0
 40
0
 40
0
 40
1
 40
1
 40
1
 40
1
 10
106.652594
 20
145.399107
 30
0.0
 10
106.040197
 20
145.160016
 30
0.0
 10
105.643899
 20
145.111336
 30
0.0
 10
104.049536
 20
145.079345
 30
0.0
  0
SPLINE
  5
2cd
100
AcDbEntity
  8
0
 62
7
100
AcDbSpline
 70
8
 71
3
 72
8
 73
4
 74
0
 40
0
 40
0
 40
0
 40
0
 40
1
 40
1
 40
1
 40
1
 10
104.049536
 20
145.079345
 30
0.0
 10
103.015163
 20
145.058575
 30
0.0
 10
102.112434
 20
145.064475
 30
0.0
 10
102.043481
 20
145.092415
 30
0.0
  0
LINE
  5
2ce
100
AcDbEntity
  8
0
 62
7
100
AcDbLine
 10
102.043481
 20
145.092415
 30
0.0
 11
102.043478
 21
145.092426
 31
0.0
  0
SPLINE
  5
2cf
100
AcDbEntity
  8
0
 62
7
100
AcDbSpline
 70
8
 71
3
 72
8
 73
4
 74
0
 40
0
 40
0
 40
0
 40
0
 40
1
 40
1
 40
1
 40
1
 10
92.335225
 20
160.907487
 30
0.0
 10
93.817530
 20
161.342864
 30
0.0
 10
94.447981
 20
162.104567
 30
0.0
 10
94.554145
 20
163.588338
 30
0.0
  0
SPLINE
  5
2d0
100
AcDbEntity
  8
0
 62
7
100
AcDbSpline
 70
8
 71
3
 72
8
 73
4
 74
0
 40
0
 40
0
 40
0
 40
0
 40
1
 40
1
 40
1
 40
1
 10
94.554145
 20
163.588338
 30
0.0
 10
94.618728
 20
164.490921
 30
0.0
 10
94.498985
 20
165.848922
 30
0.0
 10
94.355017
 20
165.846628
 30
0.0
  0
SPLINE
  5
2d1
100
AcDbEntity
  8
0
 62
7
100
AcDbSpline
 70
8
 71
3
 72
8
 73
4
 74
0
 40
0
 40
0
 40
0
 40
0
 40
1
 40
1
 40
1
 40
1
 10
94.355017
 20
165.846628
 30
0.0
 10
94.308266
 20
165.845569
 30
0.0
 10
94.072530
 20
165.501767
 30
0.0
 10
93.831185
 20
165.081945
 30
0.0
  0
SPLINE
  5
2d2
100
AcDbEntity
  8
0
 62
7
100
AcDbSpline
 70
8
 71
3
 72
8
 73
4
 74
0
 40
0
 40
0
 40
0
 40
0
 40
1
 40
1
 40
1
 40
1
 10
93.831185
 20
165.081945
 30
0.0
 10
93.107176
 20
163.822576
 30
0.0
 10
91.743733
 20
162.569573
 30
0.0
 10
90.145859
 20
161.695151
 30
0.0
  0
LINE
  5
2d3
100
AcDbEntity
  8
0
 62
7
100
AcDbLine
 10
90.145859
 20
161.695151
 30
0.0
 11
89.532327
 21
161.359403
 31
0.0
  0
LINE
  5
2d4
100
AcDbEntity
  8
0
 62
7
100
AcDbLine
 10
89.532327
 20
161.359403
 30
0.0
 11
89.956984
 21
161.139799
 31
0.0
  0
SPLINE
  5
2d5
100
AcDbEntity
  8
0
 62
7
100
AcDbSpline
 70
8
 71
3
 72
8
 73
4
 74
0
 40
0
 40
0
 40
0
 40
0
 40
1
 40
1
 40
1
 40
1
 10
89.956984
 20
161.139799
 30
0.0
 10
90.872865
 20
160.666176
 30
0.0
 10
91.353756
 20
160.619207
 30
0.0
 10
92.335225
 20
160.907487
 30
0.0
  0
LINE
  5
2d6
100
AcDbEntity
  8
0
 62
7
100
AcDbLine
 10
92.335225
 20
160.907487
 30
0.0
 11
92.335225
 21
160.907487
 31
0.0
  0
SPLINE
  5
2d7
100
AcDbEntity
  8
0
 62
7
100
AcDbSpline
 70
8
 71
3
 72
8
 73
4
 74
0
 40
0
 40
0
 40
0
 40
0
 40
1
 40
1
 40
1
 40
1
 10
125.990796
 20
149.942111
 30
0.0
 10
125.037984
 20
150.062475
 30
0.0
 10
123.271879
 20
150.488325
 30
0.0
 10
122.899917
 20
150.687397
 30
0.0
  0
SPLINE
  5
2d8
100
AcDbEntity
  8
0
 62
7
100
AcDbSpline
 70
8
 71
3
 72
8
 73
4
 74
0
 40
0
 40
0
 40
0
 40
0
 40
1
 40
1
 40
1
 40
1
 10
122.899917
 20
150.687397
 30
0.0
 10
122.745197
 20
150.770194
 30
0.0
 10
122.668262
 20
150.951274
 30
0.0
 10
122.668262
 20
151.232577
 30
0.0
  0
SPLINE
  5
2d9
100
AcDbEntity
  8
0
 62
7
100
AcDbSpline
 70
8
 71
3
 72
8
 73
4
 74
0
 40
0
 40
0
 40
0
 40
0
 40
1
 40
1
 40
1
 40
1
 10
122.668262
 20
151.232577
 30
0.0
 10
122.668262
 20
152.059831
 30
0.0
 10
121.923452
 20
154.037393
 30
0.0
 10
121.255238
 20
154.984352
 30
0.0
  0
SPLINE
  5
2da
100
AcDbEntity
  8
0
 62
7
100
AcDbSpline
 70
8
 71
3
 72
8
 73
4
 74
0
 40
0
 40
0
 40
0
 40
0
 40
1
 40
1
 40
1
 40
1
 10
121.255238
 20
154.984352
 30
0.0
 10
120.943647
 20
155.425929
 30
0.0
 10
121.043471
 20
155.506759
 30
0.0
 10
122.039582
 20
155.619458
 30
0.0
  0
SPLINE
  5
2db
100
AcDbEntity
  8
0
 62
7
100
AcDbSpline
 70
8
 71
3
 72
8
 73
4
 74
0
 40
0
 40
0
 40
0
 40
0
 40
1
 40
1
 40
1
 40
1
 10
122.039582
 20
155.619458
 30
0.0
 10
123.180651
 20
155.748548
 30
0.0
 10
125.611426
 20
156.404519
 30
0.0
 10
126.972977
 20
156.950773
 30
0.0
  0
SPLINE
  5
2dc
100
AcDbEntity
  8
0
 62
7
100
AcDbSpline
 70
8
 71
3
 72
8
 73
4
 74
0
 40
0
 40
0
 40
0
 40
0
 40
1
 40
1
 40
1
 40
1
 10
126.972977
 20
156.950773
 30
0.0
 10
128.497964
 20
157.562603
 30
0.0
 10
130.170744
 20
158.547639
 30
0.0
 10
131.506570
 20
159.620434
 30
0.0
  0
LINE
  5
2dd
100
AcDbEntity
  8
0
 62
7
100
AcDbLine
 10
131.506570
 20
159.620434
 30
0.0
 11
132.508721
 21
160.425262
 31
0.0
  0
LINE
  5
2de
100
AcDbEntity
  8
0
 62
7
100
AcDbLine
 10
132.508721
 20
160.425262
 30
0.0
 11
132.806261
 21
159.987372
 31
0.0
  0
SPLINE
  5
2df
100
AcDbEntity
  8
0
 62
7
100
AcDbSpline
 70
8
 71
3
 72
8
 73
4
 74
0
 40
0
 40
0
 40
0
 40
0
 40
1
 40
1
 40
1
 40
1
 10
132.806261
 20
159.987372
 30
0.0
 10
133.281511
 20
159.287988
 30
0.0
 10
133.775559
 20
158.096022
 30
0.0
 10
134.066860
 20
156.946100
 30
0.0
  0
SPLINE
  5
2e0
100
AcDbEntity
  8
0
 62
7
100
AcDbSpline
 70
8
 71
3
 72
8
 73
4
 74
0
 40
0
 40
0
 40
0
 40
0
 40
1
 40
1
 40
1
 40
1
 10
134.066860
 20
156.946100
 30
0.0
 10
134.396531
 20
155.644649
 30
0.0
 10
134.658321
 20
152.633794
 30
0.0
 10
134.481116
 20
152.181719
 30
0.0
  0
SPLINE
  5
2e1
100
AcDbEntity
  8
0
 62
7
100
AcDbSpline
 70
8
 71
3
 72
8
 73
4
 74
0
 40
0
 40
0
 40
0
 40
0
 40
1
 40
1
 40
1
 40
1
 10
134.481116
 20
152.181719
 30
0.0
 10
134.197223
 20
151.457404
 30
0.0
 10
131.091147
 20
150.184128
 30
0.0
 10
128.999883
 20
149.934777
 30
0.0
  0
SPLINE
  5
2e2
100
AcDbEntity
  8
0
 62
7
100
AcDbSpline
 70
8
 71
3
 72
8
 73
4
 74
0
 40
0
 40
0
 40
0
 40
0
 40
1
 40
1
 40
1
 40
1
 10
128.999883
 20
149.934777
 30
0.0
 10
127.725354
 20
149.782808
 30
0.0
 10
127.242537
 20
149.783983
 30
0.0
 10
125.990796
 20
149.942106
 30
0.0
  0
LINE
  5
2e3
100
AcDbEntity
  8
0
 62
7
100
AcDbLine
 10
125.990796
 20
149.942106
 30
0.0
 11
125.990796
 21
149.942111
 31
0.0
  0
SPLINE
  5
2e4
100
AcDbEntity
  8
0
 62
7
100
AcDbSpline
 70
8
 71
3
 72
8
 73
4
 74
0
 40
0
 40
0
 40
0
 40
0
 40
1
 40
1
 40
1
 40
1
 10
118.753444
 20
157.908443
 30
0.0
 10
118.427681
 20
158.242236
 30
0.0
 10
117.655775
 20
158.909830
 30
0.0
 10
117.038108
 20
159.391988
 30
0.0
  0
SPLINE
  5
2e5
100
AcDbEntity
  8
0
 62
7
100
AcDbSpline
 70
8
 71
3
 72
8
 73
4
 74
0
 40
0
 40
0
 40
0
 40
0
 40
1
 40
1
 40
1
 40
1
 10
117.038108
 20
159.391988
 30
0.0
 10
116.420420
 20
159.874138
 30
0.0
 10
115.911192
 20
160.301644
 30
0.0
 10
115.906440
 20
160.341985
 30
0.0
  0
SPLINE
  5
2e6
100
AcDbEntity
  8
0
 62
7
100
AcDbSpline
 70
8
 71
3
 72
8
 73
4
 74
0
 40
0
 40
0
 40
0
 40
0
 40
1
 40
1
 40
1
 40
1
 10
115.906440
 20
160.341985
 30
0.0
 10
115.901810
 20
160.382334
 30
0.0
 10
116.391493
 20
160.812925
 30
0.0
 10
116.994867
 20
161.298874
 30
0.0
  0
SPLINE
  5
2e7
100
AcDbEntity
  8
0
 62
7
100
AcDbSpline
 70
8
 71
3
 72
8
 73
4
 74
0
 40
0
 40
0
 40
0
 40
0
 40
1
 40
1
 40
1
 40
1
 10
116.994867
 20
161.298874
 30
0.0
 10
119.733088
 20
163.504123
 30
0.0
 10
123.069574
 20
165.221084
 30
0.0
 10
124.616703
 20
165.221084
 30
0.0
  0
SPLINE
  5
2e8
100
AcDbEntity
  8
0
 62
7
100
AcDbSpline
 70
8
 71
3
 72
8
 73
4
 74
0
 40
0
 40
0
 40
0
 40
0
 40
1
 40
1
 40
1
 40
1
 10
124.616703
 20
165.221084
 30
0.0
 10
125.442071
 20
165.221084
 30
0.0
 10
127.420064
 20
164.527688
 30
0.0
 10
128.575322
 20
163.833352
 30
0.0
  0
SPLINE
  5
2e9
100
AcDbEntity
  8
0
 62
7
100
AcDbSpline
 70
8
 71
3
 72
8
 73
4
 74
0
 40
0
 40
0
 40
0
 40
0
 40
1
 40
1
 40
1
 40
1
 10
128.575322
 20
163.833352
 30
0.0
 10
129.687403
 20
163.164967
 30
0.0
 10
131.070595
 20
162.088788
 30
0.0
 10
131.062059
 20
161.898558
 30
0.0
  0
SPLINE
  5
2ea
100
AcDbEntity
  8
0
 62
7
100
AcDbSpline
 70
8
 71
3
 72
8
 73
4
 74
0
 40
0
 40
0
 40
0
 40
0
 40
1
 40
1
 40
1
 40
1
 10
131.062059
 20
161.898558
 30
0.0
 10
131.053010
 20
161.695651
 30
0.0
 10
129.769776
 20
160.695222
 30
0.0
 10
128.629573
 20
160.002072
 30
0.0
  0
SPLINE
  5
2eb
100
AcDbEntity
  8
0
 62
7
100
AcDbSpline
 70
8
 71
3
 72
8
 73
4
 74
0
 40
0
 40
0
 40
0
 40
0
 40
1
 40
1
 40
1
 40
1
 10
128.629573
 20
160.002072
 30
0.0
 10
126.273098
 20
158.569541
 30
0.0
 10
123.372207
 20
157.664952
 30
0.0
 10
120.223374
 20
157.380752
 30
0.0
  0
LINE
  5
2ec
100
AcDbEntity
  8
0
 62
7
100
AcDbLine
 10
120.223374
 20
157.380752
 30
0.0
 11
119.345727
 21
157.301549
 31
0.0
  0
LINE
  5
2ed
100
AcDbEntity
  8
0
 62
7
100
AcDbLine
 10
119.345727
 20
157.301549
 30
0.0
 11
118.753444
 21
157.908443
 31
0.0
  0
SPLINE
  5
2ee
100
AcDbEntity
  8
0
 62
7
100
AcDbSpline
 70
8
 71
3
 72
8
 73
4
 74
0
 40
0
 40
0
 40
0
 40
0
 40
1
 40
1
 40
1
 40
1
 10
166.550769
 20
159.209976
 30
0.0
 10
162.161204
 20
161.262830
 30
0.0
 10
158.547652
 20
162.239994
 30
0.0
 10
157.355112
 20
161.696638
 30
0.0
  0
SPLINE
  5
2ef
100
AcDbEntity
  8
0
 62
7
100
AcDbSpline
 70
8
 71
3
 72
8
 73
4
 74
0
 40
0
 40
0
 40
0
 40
0
 40
1
 40
1
 40
1
 40
1
 10
157.355112
 20
161.696638
 30
0.0
 10
156.787226
 20
161.437884
 30
0.0
 10
156.632405
 20
160.664250
 30
0.0
 10
156.971617
 20
159.780235
 30
0.0
  0
SPLINE
  5
2f0
100
AcDbEntity
  8
0
 62
7
100
AcDbSpline
 70
8
 71
3
 72
8
 73
4
 74
0
 40
0
 40
0
 40
0
 40
0
 40
1
 40
1
 40
1
 40
1
 10
156.971617
 20
159.780235
 30
0.0
 10
157.020131
 20
159.653846
 30
0.0
 10
156.403064
 20
159.892444
 30
0.0
 10
155.247946
 20
160.446757
 30
0.0
  0
SPLINE
  5
2f1
100
AcDbEntity
  8
0
 62
7
100
AcDbSpline
 70
8
 71
3
 72
8
 73
4
 74
0
 40
0
 40
0
 40
0
 40
0
 40
1
 40
1
 40
1
 40
1
 10
155.247946
 20
160.446757
 30
0.0
 10
151.593873
 20
162.200209
 30
0.0
 10
148.045057
 20
163.215034
 30
0.0
 10
145.567258
 20
163.215034
 30
0.0
  0
LINE
  5
2f2
100
AcDbEntity
  8
0
 62
7
100
AcDbLine
 10
145.567258
 20
163.215034
 30
0.0
 11
144.755056
 21
163.215034
 31
0.0
  0
LINE
  5
2f3
100
AcDbEntity
  8
0
 62
7
100
AcDbLine
 10
144.755056
 20
163.215034
 30
0.0
 11
144.541455
 21
163.873270
 31
0.0
  0
SPLINE
  5
2f4
100
AcDbEntity
  8
0
 62
7
100
AcDbSpline
 70
8
 71
3
 72
8
 73
4
 74
0
 40
0
 40
0
 40
0
 40
0
 40
1
 40
1
 40
1
 40
1
 10
144.541455
 20
163.873270
 30
0.0
 10
143.683514
 20
166.517418
 30
0.0
 10
141.638090
 20
168.839896
 30
0.0
 10
137.582260
 20
171.775175
 30
0.0
  0
SPLINE
  5
2f5
100
AcDbEntity
  8
0
 62
7
100
AcDbSpline
 70
8
 71
3
 72
8
 73
4
 74
0
 40
0
 40
0
 40
0
 40
0
 40
1
 40
1
 40
1
 40
1
 10
137.582260
 20
171.775175
 30
0.0
 10
137.282969
 20
171.991774
 30
0.0
 10
137.312901
 20
171.995724
 30
0.0
 10
138.716725
 20
171.924832
 30
0.0
  0
SPLINE
  5
2f6
100
AcDbEntity
  8
0
 62
7
100
AcDbSpline
 70
8
 71
3
 72
8
 73
4
 74
0
 40
0
 40
0
 40
0
 40
0
 40
1
 40
1
 40
1
 40
1
 10
138.716725
 20
171.924832
 30
0.0
 10
148.073783
 20
171.452283
 30
0.0
 10
157.054309
 20
168.610867
 30
0.0
 10
162.664032
 20
164.347972
 30
0.0
  0
SPLINE
  5
2f7
100
AcDbEntity
  8
0
 62
7
100
AcDbSpline
 70
8
 71
3
 72
8
 73
4
 74
0
 40
0
 40
0
 40
0
 40
0
 40
1
 40
1
 40
1
 40
1
 10
162.664032
 20
164.347972
 30
0.0
 10
164.167881
 20
163.205179
 30
0.0
 10
166.156322
 20
161.238139
 30
0.0
 10
167.158310
 20
159.902049
 30
0.0
  0
SPLINE
  5
2f8
100
AcDbEntity
  8
0
 62
7
100
AcDbSpline
 70
8
 71
3
 72
8
 73
4
 74
0
 40
0
 40
0
 40
0
 40
0
 40
1
 40
1
 40
1
 40
1
 10
167.158310
 20
159.902049
 30
0.0
 10
167.985612
 20
158.798945
 30
0.0
 10
168.237257
 20
158.436424
 30
0.0
 10
168.156758
 20
158.463835
 30
0.0
  0
SPLINE
  5
2f9
100
AcDbEntity
  8
0
 62
7
100
AcDbSpline
 70
8
 71
3
 72
8
 73
4
 74
0
 40
0
 40
0
 40
0
 40
0
 40
1
 40
1
 40
1
 40
1
 10
168.156758
 20
158.463835
 30
0.0
 10
168.135432
 20
158.471084
 30
0.0
 10
167.412755
 20
158.806851
 30
0.0
 10
166.550769
 20
159.209976
 30
0.0
  0
LINE
  5
2fa
100
AcDbEntity
  8
0
 62
7
100
AcDbLine
 10
166.550769
 20
159.209976
 30
0.0
 11
166.550769
 21
159.209976
 31
0.0
  0
SPLINE
  5
2fb
100
AcDbEntity
  8
0
 62
7
100
AcDbSpline
 70
8
 71
3
 72
8
 73
4
 74
0
 40
0
 40
0
 40
0
 40
0
 40
1
 40
1
 40
1
 40
1
 10
134.265785
 20
174.132504
 30
0.0
 10
132.334112
 20
175.339036
 30
0.0
 10
129.985427
 20
176.458745
 30
0.0
 10
128.498366
 20
176.882094
 30
0.0
  0
LINE
  5
2fc
100
AcDbEntity
  8
0
 62
7
100
AcDbLine
 10
128.498366
 20
176.882094
 30
0.0
 11
127.746089
 21
177.096258
 31
0.0
  0
LINE
  5
2fd
100
AcDbEntity
  8
0
 62
7
100
AcDbLine
 10
127.746089
 20
177.096258
 30
0.0
 11
128.749125
 21
177.600062
 31
0.0
  0
SPLINE
  5
2fe
100
AcDbEntity
  8
0
 62
7
100
AcDbSpline
 70
8
 71
3
 72
8
 73
4
 74
0
 40
0
 40
0
 40
0
 40
0
 40
1
 40
1
 40
1
 40
1
 10
128.749125
 20
177.600062
 30
0.0
 10
130.895845
 20
178.678332
 30
0.0
 10
134.292357
 20
179.867380
 30
0.0
 10
136.889748
 20
180.449931
 30
0.0
  0
SPLINE
  5
2ff
100
AcDbEntity
  8
0
 62
7
100
AcDbSpline
 70
8
 71
3
 72
8
 73
4
 74
0
 40
0
 40
0
 40
0
 40
0
 40
1
 40
1
 40
1
 40
1
 10
136.889748
 20
180.449931
 30
0.0
 10
143.327396
 20
181.893776
 30
0.0
 10
149.746423
 20
181.849043
 30
0.0
 10
156.050409
 20
180.316401
 30
0.0
  0
SPLINE
  5
300
100
AcDbEntity
  8
0
 62
7
100
AcDbSpline
 70
8
 71
3
 72
8
 73
4
 74
0
 40
0
 40
0
 40
0
 40
0
 40
1
 40
1
 40
1
 40
1
 10
156.050409
 20
180.316401
 30
0.0
 10
157.880365
 20
179.871499
 30
0.0
 10
158.276782
 20
179.639629
 30
0.0
 10
157.207458
 20
179.639629
 30
0.0
  0
SPLINE
  5
301
100
AcDbEntity
  8
0
 62
7
100
AcDbSpline
 70
8
 71
3
 72
8
 73
4
 74
0
 40
0
 40
0
 40
0
 40
0
 40
1
 40
1
 40
1
 40
1
 10
157.207458
 20
179.639629
 30
0.0
 10
155.630518
 20
179.639629
 30
0.0
 10
150.796443
 20
178.843728
 30
0.0
 10
149.071627
 20
178.300118
 30
0.0
  0
SPLINE
  5
302
100
AcDbEntity
  8
0
 62
7
100
AcDbSpline
 70
8
 71
3
 72
8
 73
4
 74
0
 40
0
 40
0
 40
0
 40
0
 40
1
 40
1
 40
1
 40
1
 10
149.071627
 20
178.300118
 30
0.0
 10
145.741605
 20
177.250595
 30
0.0
 10
145.026346
 20
175.909277
 30
0.0
 10
146.881062
 20
174.192141
 30
0.0
  0
SPLINE
  5
303
100
AcDbEntity
  8
0
 62
7
100
AcDbSpline
 70
8
 71
3
 72
8
 73
4
 74
0
 40
0
 40
0
 40
0
 40
0
 40
1
 40
1
 40
1
 40
1
 10
146.881062
 20
174.192141
 30
0.0
 10
147.740450
 20
173.396492
 30
0.0
 10
147.814671
 20
173.433099
 30
0.0
 10
145.737922
 20
173.628200
 30
0.0
  0
SPLINE
  5
304
100
AcDbEntity
  8
0
 62
7
100
AcDbSpline
 70
8
 71
3
 72
8
 73
4
 74
0
 40
0
 40
0
 40
0
 40
0
 40
1
 40
1
 40
1
 40
1
 10
145.737922
 20
173.628200
 30
0.0
 10
144.026369
 20
173.788988
 30
0.0
 10
138.205526
 20
173.786366
 30
0.0
 10
136.836042
 20
173.624152
 30
0.0
  0
SPLINE
  5
305
100
AcDbEntity
  8
0
 62
7
100
AcDbSpline
 70
8
 71
3
 72
8
 73
4
 74
0
 40
0
 40
0
 40
0
 40
0
 40
1
 40
1
 40
1
 40
1
 10
136.836042
 20
173.624152
 30
0.0
 10
135.337064
 20
173.446633
 30
0.0
 10
135.376217
 20
173.438886
 30
0.0
 10
134.265785
 20
174.132470
 30
0.0
  0
LINE
  5
306
100
AcDbEntity
  8
0
 62
7
100
AcDbLine
 10
134.265785
 20
174.132470
 30
0.0
 11
134.265785
 21
174.132504
 31
0.0
  0
SPLINE
  5
307
100
AcDbEntity
  8
0
 62
7
100
AcDbSpline
 70
8
 71
3
 72
8
 73
4
 74
0
 40
0
 40
0
 40
0
 40
0
 40
1
 40
1
 40
1
 40
1
 10
125.551961
 20
177.895874
 30
0.0
 10
123.507200
 20
178.406300
 30
0.0
 10
121.186373
 20
178.682684
 30
0.0
 10
118.906895
 20
178.687216
 30
0.0
  0
SPLINE
  5
308
100
AcDbEntity
  8
0
 62
7
100
AcDbSpline
 70
8
 71
3
 72
8
 73
4
 74
0
 40
0
 40
0
 40
0
 40
0
 40
1
 40
1
 40
1
 40
1
 10
118.906895
 20
178.687216
 30
0.0
 10
117.655352
 20
178.689597
 30
0.0
 10
116.393948
 20
178.626058
 30
0.0
 10
115.970615
 20
178.539047
 30
0.0
  0
SPLINE
  5
309
100
AcDbEntity
  8
0
 62
7
100
AcDbSpline
 70
8
 71
3
 72
8
 73
4
 74
0
 40
0
 40
0
 40
0
 40
0
 40
1
 40
1
 40
1
 40
1
 10
115.970615
 20
178.539047
 30
0.0
 10
115.562440
 20
178.455150
 30
0.0
 10
115.205758
 20
178.409205
 30
0.0
 10
115.178016
 20
178.436955
 30
0.0
  0
SPLINE
  5
30a
100
AcDbEntity
  8
0
 62
7
100
AcDbSpline
 70
8
 71
3
 72
8
 73
4
 74
0
 40
0
 40
0
 40
0
 40
0
 40
1
 40
1
 40
1
 40
1
 10
115.178016
 20
178.436955
 30
0.0
 10
115.069397
 20
178.545564
 30
0.0
 10
118.056384
 20
180.423640
 30
0.0
 10
119.659171
 20
181.254484
 30
0.0
  0
SPLINE
  5
30b
100
AcDbEntity
  8
0
 62
7
100
AcDbSpline
 70
8
 71
3
 72
8
 73
4
 74
0
 40
0
 40
0
 40
0
 40
0
 40
1
 40
1
 40
1
 40
1
 10
119.659171
 20
181.254484
 30
0.0
 10
125.349152
 20
184.204059
 30
0.0
 10
131.054632
 20
185.617098
 30
0.0
 10
136.836042
 20
185.508574
 30
0.0
  0
LINE
  5
30c
100
AcDbEntity
  8
0
 62
7
100
AcDbLine
 10
136.836042
 20
185.508574
 30
0.0
 11
138.904780
 21
185.469736
 31
0.0
  0
LINE
  5
30d
100
AcDbEntity
  8
0
 62
7
100
AcDbLine
 10
138.904780
 20
185.469736
 30
0.0
 11
136.773357
 21
184.920172
 31
0.0
  0
SPLINE
  5
30e
100
AcDbEntity
  8
0
 62
7
100
AcDbSpline
 70
8
 71
3
 72
8
 73
4
 74
0
 40
0
 40
0
 40
0
 40
0
 40
1
 40
1
 40
1
 40
1
 10
136.773357
 20
184.920172
 30
0.0
 10
131.401834
 20
183.535221
 30
0.0
 10
128.090212
 20
182.162423
 30
0.0
 10
128.208393
 20
181.369676
 30
0.0
  0
SPLINE
  5
30f
100
AcDbEntity
  8
0
 62
7
100
AcDbSpline
 70
8
 71
3
 72
8
 73
4
 74
0
 40
0
 40
0
 40
0
 40
0
 40
1
 40
1
 40
1
 40
1
 10
128.208393
 20
181.369676
 30
0.0
 10
128.267676
 20
180.971988
 30
0.0
 10
128.778755
 20
180.666641
 30
0.0
 10
129.752163
 20
180.447317
 30
0.0
  0
SPLINE
  5
310
100
AcDbEntity
  8
0
 62
7
100
AcDbSpline
 70
8
 71
3
 72
8
 73
4
 74
0
 40
0
 40
0
 40
0
 40
0
 40
1
 40
1
 40
1
 40
1
 10
129.752163
 20
180.447317
 30
0.0
 10
131.560719
 20
180.039819
 30
0.0
 10
131.486882
 20
180.105483
 30
0.0
 10
130.503050
 20
179.779498
 30
0.0
  0
SPLINE
  5
311
100
AcDbEntity
  8
0
 62
7
100
AcDbSpline
 70
8
 71
3
 72
8
 73
4
 74
0
 40
0
 40
0
 40
0
 40
0
 40
1
 40
1
 40
1
 40
1
 10
130.503050
 20
179.779498
 30
0.0
 10
129.145383
 20
179.329627
 30
0.0
 10
127.828099
 20
178.659573
 30
0.0
 10
127.245355
 20
178.122413
 30
0.0
  0
SPLINE
  5
312
100
AcDbEntity
  8
0
 62
7
100
AcDbSpline
 70
8
 71
3
 72
8
 73
4
 74
0
 40
0
 40
0
 40
0
 40
0
 40
1
 40
1
 40
1
 40
1
 10
127.245355
 20
178.122413
 30
0.0
 10
126.953673
 20
177.853549
 30
0.0
 10
126.664906
 20
177.639773
 30
0.0
 10
126.603653
 20
177.647351
 30
0.0
  0
SPLINE
  5
313
100
AcDbEntity
  8
0
 62
7
100
AcDbSpline
 70
8
 71
3
 72
8
 73
4
 74
0
 40
0
 40
0
 40
0
 40
0
 40
1
 40
1
 40
1
 40
1
 10
126.603653
 20
177.647351
 30
0.0
 10
126.542418
 20
177.654971
 30
0.0
 10
126.069160
 20
177.766765
 30
0.0
 10
125.551961
 20
177.895874
 30
0.0
  0
LINE
  5
314
100
AcDbEntity
  8
0
 62
7
100
AcDbLine
 10
125.551961
 20
177.895874
 30
0.0
 11
125.551961
 21
177.895874
 31
0.0
  0
SPLINE
  5
315
100
AcDbEntity
  8
0
 62
7
100
AcDbSpline
 70
8
 71
3
 72
8
 73
4
 74
0
 40
0
 40
0
 40
0
 40
0
 40
1
 40
1
 40
1
 40
1
 10
101.980785
 20
181.367146
 30
0.0
 10
101.980785
 20
181.545256
 30
0.0
 10
103.300233
 20
183.608249
 30
0.0
 10
104.083479
 20
184.654771
 30
0.0
  0
SPLINE
  5
316
100
AcDbEntity
  8
0
 62
7
100
AcDbSpline
 70
8
 71
3
 72
8
 73
4
 74
0
 40
0
 40
0
 40
0
 40
0
 40
1
 40
1
 40
1
 40
1
 10
104.083479
 20
184.654771
 30
0.0
 10
105.642166
 20
186.737373
 30
0.0
 10
107.045286
 20
187.957414
 30
0.0
 10
109.720136
 20
189.555953
 30
0.0
  0
SPLINE
  5
317
100
AcDbEntity
  8
0
 62
7
100
AcDbSpline
 70
8
 71
3
 72
8
 73
4
 74
0
 40
0
 40
0
 40
0
 40
0
 40
1
 40
1
 40
1
 40
1
 10
109.720136
 20
189.555953
 30
0.0
 10
113.339165
 20
191.718763
 30
0.0
 10
117.000948
 20
194.299723
 30
0.0
 10
120.098007
 20
196.870647
 30
0.0
  0
SPLINE
  5
318
100
AcDbEntity
  8
0
 62
7
100
AcDbSpline
 70
8
 71
3
 72
8
 73
4
 74
0
 40
0
 40
0
 40
0
 40
0
 40
1
 40
1
 40
1
 40
1
 10
120.098007
 20
196.870647
 30
0.0
 10
122.052648
 20
198.493233
 30
0.0
 10
125.470696
 20
201.916172
 30
0.0
 10
126.804731
 20
203.586939
 30
0.0
  0
SPLINE
  5
319
100
AcDbEntity
  8
0
 62
7
100
AcDbSpline
 70
8
 71
3
 72
8
 73
4
 74
0
 40
0
 40
0
 40
0
 40
0
 40
1
 40
1
 40
1
 40
1
 10
126.804731
 20
203.586939
 30
0.0
 10
128.794860
 20
206.079470
 30
0.0
 10
130.578578
 20
209.139860
 30
0.0
 10
131.371899
 20
211.423108
 30
0.0
  0
SPLINE
  5
31a
100
AcDbEntity
  8
0
 62
7
100
AcDbSpline
 70
8
 71
3
 72
8
 73
4
 74
0
 40
0
 40
0
 40
0
 40
0
 40
1
 40
1
 40
1
 40
1
 10
131.371899
 20
211.423108
 30
0.0
 10
131.824443
 20
212.725477
 30
0.0
 10
131.758577
 20
212.164106
 30
0.0
 10
131.196668
 20
209.929107
 30
0.0
  0
SPLINE
  5
31b
100
AcDbEntity
  8
0
 62
7
100
AcDbSpline
 70
8
 71
3
 72
8
 73
4
 74
0
 40
0
 40
0
 40
0
 40
0
 40
1
 40
1
 40
1
 40
1
 10
131.196668
 20
209.929107
 30
0.0
 10
128.730244
 20
200.119191
 30
0.0
 10
123.226688
 20
191.817648
 30
0.0
 10
116.220408
 20
187.339009
 30
0.0
  0
LINE
  5
31c
100
AcDbEntity
  8
0
 62
7
100
AcDbLine
 10
116.220408
 20
187.339009
 30
0.0
 11
115.853418
 21
187.104413
 31
0.0
  0
LINE
  5
31d
100
AcDbEntity
  8
0
 62
7
100
AcDbLine
 10
115.853418
 20
187.104413
 30
0.0
 11
115.942191
 21
187.415479
 31
0.0
  0
SPLINE
  5
31e
100
AcDbEntity
  8
0
 62
7
100
AcDbSpline
 70
8
 71
3
 72
8
 73
4
 74
0
 40
0
 40
0
 40
0
 40
0
 40
1
 40
1
 40
1
 40
1
 10
115.942191
 20
187.415479
 30
0.0
 10
116.286395
 20
188.621452
 30
0.0
 10
116.774848
 20
190.657826
 30
0.0
 10
116.775131
 20
190.887926
 30
0.0
  0
SPLINE
  5
31f
100
AcDbEntity
  8
0
 62
7
100
AcDbSpline
 70
8
 71
3
 72
8
 73
4
 74
0
 40
0
 40
0
 40
0
 40
0
 40
1
 40
1
 40
1
 40
1
 10
116.775131
 20
190.887926
 30
0.0
 10
116.775131
 20
191.138301
 30
0.0
 10
116.587578
 20
191.056960
 30
0.0
 10
114.863445
 20
190.060182
 30
0.0
  0
SPLINE
  5
320
100
AcDbEntity
  8
0
 62
7
100
AcDbSpline
 70
8
 71
3
 72
8
 73
4
 74
0
 40
0
 40
0
 40
0
 40
0
 40
1
 40
1
 40
1
 40
1
 10
114.863445
 20
190.060182
 30
0.0
 10
109.572281
 20
187.001202
 30
0.0
 10
105.293188
 20
184.141149
 30
0.0
 10
102.949882
 20
182.097444
 30
0.0
  0
SPLINE
  5
321
100
AcDbEntity
  8
0
 62
7
100
AcDbSpline
 70
8
 71
3
 72
8
 73
4
 74
0
 40
0
 40
0
 40
0
 40
0
 40
1
 40
1
 40
1
 40
1
 10
102.949882
 20
182.097444
 30
0.0
 10
102.416877
 20
181.632587
 30
0.0
 10
101.980785
 20
181.303956
 30
0.0
 10
101.980785
 20
181.367146
 30
0.0
  0
LINE
  5
322
100
AcDbEntity
  8
0
 62
7
100
AcDbLine
 10
101.980785
 20
181.367146
 30
0.0
 11
101.980785
 21
181.367146
 31
0.0
  0
ENDSEC
  0
SECTION
  2
OBJECTS
  0
DICTIONARY
  5
C
330
0
100
AcDbDictionary
  3
ACAD_GROUP
350
D
  3
ACAD_MLINESTYLE
350
17
  0
DICTIONARY
  5
D
330
C
100
AcDbDictionary
  0
DICTIONARY
  5
1A
330
C
100
AcDbDictionary
  0
DICTIONARY
  5
17
330
C
100
AcDbDictionary
  3
STANDARD
350
18
  0
DICTIONARY
  5
19
330
C
100
AcDbDictionary
  0
ENDSEC
  0
EOF
